<svg width="30" height="30" viewBox="0 0 30 30" fill="none" xmlns="http://www.w3.org/2000/svg">
<path d="M20.5 7C19.6739 7 19 6.32609 19 5.5C19 4.67391 19.6739 4 20.5 4C21.3261 4 22 4.67391 22 5.5C22 6.32609 21.3261 7 20.5 7ZM20.5 4.82609C20.1304 4.82609 19.8261 5.13044 19.8261 5.5C19.8261 5.86957 20.1304 6.17391 20.5 6.17391C20.8696 6.17391 21.1739 5.86957 21.1739 5.5C21.1739 5.13044 20.8696 4.82609 20.5 4.82609Z" fill="white"/>
<path d="M10.5 27C9.67391 27 9 26.3261 9 25.5C9 24.6739 9.67391 24 10.5 24C11.3261 24 12 24.6739 12 25.5C12 26.3261 11.3261 27 10.5 27ZM10.5 24.8261C10.1304 24.8261 9.82609 25.1304 9.82609 25.5C9.82609 25.8696 10.1304 26.1739 10.5 26.1739C10.8696 26.1739 11.1739 25.8696 11.1739 25.5C11.1739 25.1304 10.8696 24.8261 10.5 24.8261Z" fill="white"/>
<path d="M17.9337 21.8188H9.58363C8.71004 21.8188 8 21.1088 8 20.2352V13.6127C8 12.7392 8.71004 12.0291 9.58363 12.0291H17.9337C18.8073 12.0291 19.5173 12.7392 19.5173 13.6127V20.2352C19.5173 21.1088 18.8073 21.8188 17.9337 21.8188ZM9.58363 12.8929C9.18686 12.8929 8.8638 13.216 8.8638 13.6127V20.2352C8.8638 20.632 9.18686 20.955 9.58363 20.955H17.9337C18.3305 20.955 18.6535 20.632 18.6535 20.2352V13.6127C18.6535 13.216 18.3305 12.8929 17.9337 12.8929H9.58363Z" fill="white"/>
<path d="M19.0854 14.9083H8.4319C8.19349 14.9083 8 14.7148 8 14.4764C8 14.238 8.19349 14.0445 8.4319 14.0445H19.0854C19.3238 14.0445 19.5173 14.238 19.5173 14.4764C19.5173 14.7148 19.3238 14.9083 19.0854 14.9083Z" fill="white"/>
<path d="M21.3823 17.7878C21.1439 17.7878 20.9504 17.5943 20.9504 17.3559V9.58174C20.9504 9.18497 20.6273 8.86191 20.2306 8.86191H11.8805C11.4837 8.86191 11.1607 9.18497 11.1607 9.58174V10.4455C11.1607 10.6839 10.9672 10.8774 10.7288 10.8774C10.4904 10.8774 10.2969 10.6839 10.2969 10.4455V9.58174C10.2969 8.70815 11.0069 7.99811 11.8805 7.99811H20.2306C21.1041 7.99811 21.8142 8.70815 21.8142 9.58174V17.3559C21.8142 17.5943 21.6207 17.7878 21.3823 17.7878Z" fill="white"/>
<path d="M21.3823 10.8772H10.7288C10.4904 10.8772 10.2969 10.6837 10.2969 10.4453C10.2969 10.2069 10.4904 10.0134 10.7288 10.0134H21.3823C21.6207 10.0134 21.8142 10.2069 21.8142 10.4453C21.8142 10.6837 21.6207 10.8772 21.3823 10.8772Z" fill="white"/>
</svg>
