<svg width="30" height="30" viewBox="0 0 30 30" fill="none" xmlns="http://www.w3.org/2000/svg">
<path d="M27 3C26.4493 3 26 2.55072 26 2C26 1.44928 26.4493 1 27 1C27.5507 1 28 1.44928 28 2C28 2.55072 27.5507 3 27 3ZM27 1.55072C26.7536 1.55072 26.5507 1.75362 26.5507 2C26.5507 2.24638 26.7536 2.44928 27 2.44928C27.2464 2.44928 27.4493 2.24638 27.4493 2C27.4493 1.75362 27.2464 1.55072 27 1.55072Z" fill="white"/>
<path d="M3 29C2.44927 29 2 28.5507 2 28C2 27.4493 2.44927 27 3 27C3.55072 27 4 27.4493 4 28C4 28.5507 3.55072 29 3 29ZM3 27.5507C2.75362 27.5507 2.55072 27.7536 2.55072 28C2.55072 28.2464 2.75362 28.4493 3 28.4493C3.24638 28.4493 3.44928 28.2464 3.44928 28C3.44928 27.7536 3.24638 27.5507 3 27.5507Z" fill="white"/>
<path d="M5.0141 8.96977H5.22193C5.34361 7.92794 6.18254 7.10195 7.23099 7.00087C7.35136 5.87774 8.30476 5 9.45989 5H23.766C25.6806 5 27.2383 6.55664 27.2383 8.46974V18.4938C27.2383 19.6563 26.3481 20.6145 25.2135 20.724C25.0944 21.8352 24.1597 22.7055 23.0212 22.7238C23.0183 22.921 22.9874 23.1113 22.9314 23.2909C22.6764 24.109 21.9112 24.7045 21.0098 24.7045H5.0141C3.90445 24.7045 3.00172 23.8024 3.00172 22.6937V10.9808C3.00172 9.8719 3.90445 8.96977 5.0141 8.96977ZM3.94846 10.9808V18.7265L6.00762 17.1721C6.5703 16.7474 7.33121 16.7408 7.9011 17.1556L10.5059 19.0523L15.4734 13.9344C16.0651 13.3246 17.0279 13.2871 17.6653 13.8492L22.0752 17.7373V10.9808C22.0752 10.3935 21.5972 9.91588 21.0098 9.91588H5.0141C4.42645 9.91588 3.94846 10.3935 3.94846 10.9808ZM3.94846 22.6935C3.94846 23.2807 4.42645 23.7584 5.01391 23.7584H21.0098C21.487 23.7584 21.8922 23.443 22.0271 23.0098C22.0584 22.9099 22.0752 22.8036 22.0752 22.6937V18.9989L17.0388 14.5586C16.7812 14.3313 16.3922 14.3465 16.1529 14.593L13.9111 16.9028C13.9111 16.903 13.9111 16.903 13.9109 16.903L9.4488 21.5003C9.35597 21.596 9.23264 21.6441 9.10893 21.6441C8.99022 21.6441 8.87132 21.5997 8.77942 21.5107C8.59193 21.3287 8.5873 21.0293 8.76925 20.8417L9.84025 19.7382L7.3436 17.9205C7.1132 17.7527 6.80569 17.7553 6.57825 17.9269L3.94846 19.9121V22.6935ZM24.2797 20.484V9.31476C24.2797 9.26727 24.2773 9.22015 24.2725 9.17396C24.2019 8.47971 23.6133 7.93626 22.9003 7.93626H17.11C16.8485 7.93626 16.6366 7.72449 16.6366 7.4632C16.6366 7.20192 16.8485 6.99015 17.11 6.99015H22.9003C24.183 6.99015 25.2265 8.0329 25.2265 9.31476V19.7681C25.8313 19.6593 26.2915 19.1293 26.2915 18.4938V8.46974C26.2915 7.07829 25.1586 5.94611 23.766 5.94611H9.45989C8.83157 5.94611 8.30624 6.39569 8.18919 6.99015H13.323C13.5845 6.99015 13.7964 7.20192 13.7964 7.4632C13.7964 7.72449 13.5845 7.93626 13.323 7.93626H7.69141H7.69086H7.44807C6.82344 7.93626 6.30052 8.38067 6.1794 8.96977H21.0098C22.1192 8.96977 23.022 9.8719 23.022 10.9808V18.7851V18.7854V21.7777C23.7189 21.7579 24.2797 21.1853 24.2797 20.484Z" fill="white"/>
<path d="M8.91618 11.897C10.0029 11.897 10.8867 12.781 10.8867 13.8673C10.8867 14.9539 10.0027 15.8379 8.91618 15.8379C7.82982 15.8379 6.94581 14.9539 6.94581 13.8673C6.94581 12.781 7.82982 11.897 8.91618 11.897ZM8.91618 14.917C9.49496 14.917 9.96584 14.4461 9.96584 13.8675C9.96584 13.2887 9.49496 12.8179 8.91618 12.8179C8.33757 12.8179 7.8667 13.2887 7.8667 13.8675C7.8667 14.4461 8.33757 14.917 8.91618 14.917Z" fill="white"/>
<path d="M15.7746 7.65136C15.7623 7.681 15.7471 7.70948 15.7294 7.73623C15.7115 7.76318 15.6909 7.78839 15.6682 7.8111C15.6455 7.83362 15.6205 7.8544 15.5933 7.87269C15.5668 7.89039 15.5377 7.9056 15.5081 7.91791C15.4786 7.93023 15.4475 7.93966 15.4159 7.94601C15.3845 7.95236 15.352 7.95544 15.3199 7.95544C15.2874 7.95544 15.2554 7.95236 15.2233 7.94601C15.1919 7.93966 15.1613 7.93023 15.1313 7.91791C15.1017 7.9056 15.0732 7.89039 15.0464 7.87269C15.0195 7.8544 14.9943 7.83362 14.9716 7.8111C14.9485 7.78839 14.9283 7.76318 14.91 7.73623C14.8923 7.70948 14.8771 7.681 14.8648 7.65136C14.8525 7.62134 14.8431 7.59035 14.8367 7.55937C14.8304 7.52723 14.8273 7.4947 14.8273 7.46276C14.8273 7.43062 14.8304 7.39809 14.8367 7.36672C14.8431 7.33516 14.8525 7.30398 14.8648 7.27453C14.8771 7.24451 14.8923 7.21584 14.91 7.18928C14.9283 7.16214 14.9485 7.13712 14.9716 7.11441C14.9943 7.0917 15.0195 7.07111 15.0464 7.05321C15.0732 7.03551 15.1017 7.0203 15.1313 7.00798C15.1613 6.99567 15.1919 6.98624 15.2233 6.97989C15.287 6.96699 15.3524 6.96699 15.4159 6.97989C15.4475 6.98624 15.4786 6.99567 15.5081 7.00798C15.5377 7.0203 15.5668 7.03551 15.5933 7.05321C15.6205 7.07111 15.6455 7.0917 15.6682 7.11441C15.6909 7.13712 15.7115 7.16214 15.7294 7.18928C15.7471 7.21584 15.7623 7.24451 15.7746 7.27453C15.7869 7.30398 15.7963 7.33516 15.8027 7.36672C15.809 7.39809 15.8125 7.43062 15.8125 7.46276C15.8125 7.4947 15.809 7.52723 15.8027 7.55937C15.7963 7.59035 15.7869 7.62134 15.7746 7.65136Z" fill="white"/>
</svg>
