<svg width="30" height="30" viewBox="0 0 30 30" fill="none" xmlns="http://www.w3.org/2000/svg">
<path d="M22.0582 7.11649C21.2001 7.11649 20.5 6.41641 20.5 5.55825C20.5 4.70008 21.2001 4 22.0582 4C22.9164 4 23.6165 4.70008 23.6165 5.55825C23.6165 6.41641 22.9164 7.11649 22.0582 7.11649ZM22.0582 4.85817C21.6743 4.85817 21.3582 5.17433 21.3582 5.55825C21.3582 5.94216 21.6743 6.25833 22.0582 6.25833C22.4422 6.25833 22.7583 5.94216 22.7583 5.55825C22.7583 5.17433 22.4422 4.85817 22.0582 4.85817Z" fill="white"/>
<path d="M11.2185 26.0001C10.4829 26.0001 9.88281 25.4001 9.88281 24.6645C9.88281 23.9289 10.4829 23.3289 11.2185 23.3289C11.954 23.3289 12.5541 23.9289 12.5541 24.6645C12.5541 25.4001 11.954 26.0001 11.2185 26.0001ZM11.2185 24.0644C10.8894 24.0644 10.6184 24.3354 10.6184 24.6645C10.6184 24.9936 10.8894 25.2646 11.2185 25.2646C11.5475 25.2646 11.8185 24.9936 11.8185 24.6645C11.8185 24.3354 11.5475 24.0644 11.2185 24.0644Z" fill="white"/>
<path d="M15.8151 14.4319H17.7224L18.7149 16.1356C18.7807 16.2482 18.9012 16.3175 19.0314 16.3175C19.1616 16.3175 19.2821 16.2482 19.3479 16.1356L20.3407 14.4319H21.8815C22.5313 14.4319 23.0599 13.9031 23.0599 13.2533V9.36982C23.0599 8.71996 22.5313 8.19141 21.8815 8.19141H15.8151C15.1653 8.19141 14.6367 8.71996 14.6367 9.36982V13.2533C14.6367 13.9031 15.1653 14.4319 15.8151 14.4319V14.4319ZM15.3692 9.36982C15.3692 9.1239 15.5691 8.92385 15.8151 8.92385H21.8815C22.1276 8.92385 22.3274 9.124 22.3274 9.36982V13.2533C22.3274 13.4994 22.1275 13.6994 21.8815 13.6994H20.1301C19.9999 13.6994 19.8794 13.7686 19.8136 13.8812L19.0314 15.2237L18.2496 13.8813C18.1838 13.7687 18.0633 13.6995 17.9331 13.6995H15.8151C15.569 13.6995 15.3692 13.4994 15.3692 13.2534V9.36982Z" fill="white"/>
<path d="M17.7237 12.8989C17.7881 12.9449 17.8625 12.967 17.9361 12.967C18.0506 12.967 18.1629 12.9137 18.2344 12.8136L20.0655 10.25C20.1832 10.0855 20.1449 9.85678 19.9804 9.73913C19.8162 9.62185 19.5873 9.66012 19.4697 9.82446L17.6386 12.388C17.5209 12.5526 17.5592 12.7813 17.7237 12.8989Z" fill="white"/>
<path d="M17.9365 10.4036C18.1388 10.4036 18.3028 10.2396 18.3028 10.0374C18.3028 9.83511 18.1388 9.67114 17.9365 9.67114C17.7343 9.67114 17.5703 9.83511 17.5703 10.0374C17.5703 10.2396 17.7343 10.4036 17.9365 10.4036Z" fill="white"/>
<path d="M19.7608 12.967C19.963 12.967 20.127 12.803 20.127 12.6008C20.127 12.3985 19.963 12.2346 19.7608 12.2346C19.5585 12.2346 19.3945 12.3985 19.3945 12.6008C19.3945 12.803 19.5585 12.967 19.7608 12.967Z" fill="white"/>
<path d="M25.9881 16.6293H20.6953C20.4929 16.6293 20.3291 16.7933 20.3291 16.9956C20.3291 17.1978 20.4929 17.3618 20.6953 17.3618H25.6219V19.9253H19.3961V16.9956C19.3961 16.7933 19.2323 16.6293 19.0298 16.6293H4.01466C3.81241 16.6293 3.64844 16.7933 3.64844 16.9956V20.2916C3.64844 20.4938 3.81241 20.6578 4.01466 20.6578H25.9881C26.1905 20.6578 26.3543 20.4938 26.3543 20.2916V16.9956C26.3543 16.7933 26.1905 16.6293 25.9881 16.6293ZM7.18241 17.3618H7.84591L6.70659 19.9253H6.04308L7.18241 17.3618ZM5.2416 19.9253H4.5781L5.71742 17.3618H6.38093L5.2416 19.9253ZM8.6473 17.3618H9.31081L8.17149 19.9253H7.50798L8.6473 17.3618ZM10.1122 17.3618H10.7757L9.63638 19.9253H8.97288L10.1122 17.3618ZM11.5771 17.3618H12.2406L11.1013 19.9253H10.4378L11.5771 17.3618ZM13.042 17.3618H13.7053L12.5661 19.9253H11.9026L13.042 17.3618ZM14.5071 17.3618H15.1702L14.0309 19.9253H13.3676L14.5071 17.3618ZM15.972 17.3618H16.6351L15.4958 19.9253H14.8326L15.972 17.3618ZM17.4369 17.3618H18.1L16.9607 19.9253H16.2975L17.4369 17.3618ZM4.91612 17.3618L4.38089 18.566V17.3618H4.91612ZM17.7623 19.9253L18.6636 17.8976V19.9253H17.7623Z" fill="white"/>
</svg>
