<svg width="30" height="30" viewBox="0 0 30 30" fill="none" xmlns="http://www.w3.org/2000/svg">
<path d="M18.0238 22.449H11.1808V21.5452C11.6151 21.5452 11.9438 21.4278 12.1668 21.1813C12.6011 20.7001 12.5424 19.8784 12.5424 19.8784V19.8432V13.3759H10.4413C9.77231 13.3759 9.33802 13.7045 9.10327 13.9862C8.93895 14.174 8.66898 14.2444 8.43423 14.1623C8.18774 14.0684 8.03516 13.8454 8.03516 13.5871V9.2912H21.2047V13.5637C21.2047 13.8219 21.0521 14.0449 20.8056 14.1388C20.5591 14.2327 20.3009 14.1623 20.1365 13.9627C19.9018 13.681 19.4675 13.3524 18.7985 13.3524H16.6974V19.8667C16.6974 19.8784 16.6388 20.7001 17.073 21.1813C17.2961 21.4278 17.613 21.5452 18.059 21.5452V22.449H18.0238ZM13.0236 21.5452H16.1927C15.7232 20.8409 15.7584 19.9723 15.7702 19.8198V12.4721H18.775C19.4205 12.4721 19.9253 12.6716 20.2891 12.9298V10.195H8.92721V12.9298C9.30281 12.6716 9.79578 12.4721 10.4413 12.4721H13.4462V19.8198C13.4579 19.9841 13.4931 20.8527 13.0236 21.5452Z" fill="white"/>
<path d="M14.612 6.23956C13.7199 6.23956 12.9922 5.51183 12.9922 4.61978C12.9922 3.72773 13.7199 3 14.612 3C15.504 3 16.2317 3.72773 16.2317 4.61978C16.2317 5.51183 15.504 6.23956 14.612 6.23956ZM14.612 3.89205C14.2129 3.89205 13.8842 4.2207 13.8842 4.61978C13.8842 5.01885 14.2129 5.3475 14.612 5.3475C15.011 5.3475 15.3397 5.01885 15.3397 4.61978C15.3397 4.2207 15.011 3.89205 14.612 3.89205Z" fill="white"/>
<path d="M5.61978 10.864C4.72773 10.864 4 10.1363 4 9.24423C4 8.35218 4.72773 7.62445 5.61978 7.62445C6.51183 7.62445 7.23955 8.35218 7.23955 9.24423C7.23955 10.1363 6.51183 10.864 5.61978 10.864ZM5.61978 8.5165C5.2207 8.5165 4.89205 8.84515 4.89205 9.24423C4.89205 9.6433 5.2207 9.97195 5.61978 9.97195C6.01885 9.97195 6.33577 9.6433 6.33577 9.24423C6.33577 8.84515 6.01885 8.5165 5.61978 8.5165Z" fill="white"/>
<path d="M5.61978 22.4492C4.72773 22.4492 4 21.7214 4 20.8294C4 19.9373 4.72773 19.2096 5.61978 19.2096C6.51183 19.2096 7.23955 19.9373 7.23955 20.8294C7.23955 21.7214 6.51183 22.4492 5.61978 22.4492ZM5.61978 20.1016C5.2207 20.1016 4.89205 20.4303 4.89205 20.8294C4.89205 21.2284 5.2207 21.5571 5.61978 21.5571C6.01885 21.5571 6.3475 21.2284 6.3475 20.8294C6.33577 20.4303 6.01885 20.1016 5.61978 20.1016Z" fill="white"/>
<path d="M14.612 26.9914C13.7199 26.9914 12.9922 26.2637 12.9922 25.3717C12.9922 24.4796 13.7199 23.7519 14.612 23.7519C15.504 23.7519 16.2317 24.4796 16.2317 25.3717C16.2317 26.2637 15.504 26.9914 14.612 26.9914ZM14.612 24.6439C14.2129 24.6439 13.8842 24.9726 13.8842 25.3717C13.8842 25.7707 14.2129 26.0994 14.612 26.0994C15.011 26.0994 15.3397 25.7707 15.3397 25.3717C15.3397 24.9726 15.011 24.6439 14.612 24.6439Z" fill="white"/>
<path d="M23.6042 10.864C22.7121 10.864 21.9844 10.1363 21.9844 9.24423C21.9844 8.35218 22.7121 7.62445 23.6042 7.62445C24.4962 7.62445 25.2239 8.35218 25.2239 9.24423C25.2239 10.1363 24.4962 10.864 23.6042 10.864ZM23.6042 8.5165C23.2051 8.5165 22.8764 8.84515 22.8764 9.24423C22.8764 9.6433 23.2051 9.97195 23.6042 9.97195C24.0032 9.97195 24.3319 9.6433 24.3319 9.24423C24.3319 8.84515 24.0032 8.5165 23.6042 8.5165Z" fill="white"/>
<path d="M5.6179 19.6555C5.78223 19.6555 5.93481 19.6908 6.06393 19.7494V10.3242C5.92308 10.3829 5.77049 10.4181 5.6179 10.4181C5.45358 10.4181 5.30099 10.3829 5.17188 10.3242V19.7494C5.30099 19.6908 5.45358 19.6555 5.6179 19.6555Z" fill="white"/>
<path d="M6.72367 8.86863L13.8014 5.46475C13.5784 5.25348 13.4493 4.97178 13.4375 4.64313L6.08984 8.17612C6.39502 8.30523 6.61803 8.55172 6.72367 8.86863V8.86863Z" fill="white"/>
<path d="M15.4219 5.46475L22.4996 8.86863C22.6052 8.55172 22.8283 8.30523 23.1334 8.17612L15.7857 4.64313C15.774 4.97178 15.6332 5.25348 15.4219 5.46475V5.46475Z" fill="white"/>
<path d="M22.4722 21.1344L15.4062 24.5265C15.6293 24.7378 15.7584 25.0195 15.7701 25.3482L23.0356 21.8621C22.7657 21.7095 22.5544 21.4513 22.4722 21.1344Z" fill="white"/>
<path d="M23.6023 10.4181C23.4379 10.4181 23.2854 10.3829 23.1562 10.3242V19.7494C23.2971 19.6908 23.4497 19.6555 23.6023 19.6555C23.7666 19.6555 23.9192 19.6908 24.0483 19.7494V10.3242C23.9192 10.3829 23.7666 10.4181 23.6023 10.4181V10.4181Z" fill="white"/>
<path d="M13.8013 24.5265L6.74701 21.1344C6.66485 21.4513 6.45358 21.7095 6.17188 21.8504L13.4491 25.3364C13.4491 25.0195 13.59 24.7378 13.8013 24.5265V24.5265Z" fill="white"/>
<path d="M23.6042 22.4492C22.7121 22.4492 21.9844 21.7214 21.9844 20.8294C21.9844 19.9373 22.7121 19.2096 23.6042 19.2096C24.4962 19.2096 25.2239 19.9373 25.2239 20.8294C25.2239 21.7214 24.4962 22.4492 23.6042 22.4492ZM23.6042 20.1016C23.2051 20.1016 22.8764 20.4303 22.8764 20.8294C22.8764 21.2284 23.2051 21.5571 23.6042 21.5571C24.0032 21.5571 24.3319 21.2284 24.3319 20.8294C24.3319 20.4303 24.0032 20.1016 23.6042 20.1016Z" fill="white"/>
</svg>
