<svg width="30" height="30" viewBox="0 0 30 30" fill="none" xmlns="http://www.w3.org/2000/svg">
<path d="M23.4211 21.6134C22.5847 21.6134 21.9023 20.931 21.9023 20.0946C21.9023 19.2583 22.5847 18.5759 23.4211 18.5759C24.2575 18.5759 24.9398 19.2583 24.9398 20.0946C24.9398 20.931 24.2575 21.6134 23.4211 21.6134ZM23.4211 19.4123C23.0469 19.4123 22.7387 19.7205 22.7387 20.0946C22.7387 20.4688 23.0469 20.777 23.4211 20.777C23.7952 20.777 24.1034 20.4688 24.1034 20.0946C24.1034 19.7205 23.7952 19.4123 23.4211 19.4123Z" fill="white"/>
<path d="M6.51872 11.0374C5.68232 11.0374 5 10.3551 5 9.51872C5 8.68232 5.68232 8 6.51872 8C7.35512 8 8.03744 8.68232 8.03744 9.51872C8.03744 10.3551 7.35512 11.0374 6.51872 11.0374V11.0374ZM6.51872 8.8364C6.14454 8.8364 5.8364 9.14454 5.8364 9.51872C5.8364 9.8929 6.14454 10.201 6.51872 10.201C6.8929 10.201 7.20104 9.8929 7.20104 9.51872C7.20104 9.14454 6.8929 8.8364 6.51872 8.8364Z" fill="white"/>
<path d="M11.9993 20.0725L5 15.9455V14.0636L11.9993 9.93665V12.6439L7.76231 14.999L11.9993 17.3542V20.0725ZM5.8364 15.4723L11.1519 18.5978V17.8604L6.49671 15.2742V14.7459L11.1519 12.1597V11.4224L5.8364 14.5588V15.4723Z" fill="white"/>
<path d="M13.4404 18.2683V14.4249H12.793V13.2817H13.4404V13.0858C13.4404 12.4869 13.6238 11.8228 14.0662 11.409C14.4546 11.0389 14.9833 10.9082 15.4365 10.9082C15.7818 10.9082 16.0408 10.9518 16.2566 11.0062L16.1918 12.2038C16.0623 12.1603 15.9005 12.1276 15.6955 12.1276C15.1883 12.1276 14.9725 12.5305 14.9725 13.0204V13.2708H15.9652V14.4141H14.9833V18.2574H13.4404V18.2683Z" fill="white"/>
<path d="M17.9883 20.0002V17.3375L22.1816 15.0213L17.9883 12.705V10.0424L24.9154 14.1012V15.9521L17.9883 20.0002ZM18.8161 17.8246V18.5498L24.0768 15.4759V14.5775L18.8161 11.5036V12.2287L23.4233 14.7723V15.2918L18.8161 17.8246Z" fill="white"/>
</svg>
