<svg width="30" height="30" viewBox="0 0 30 30" fill="none" xmlns="http://www.w3.org/2000/svg">
<path d="M6.64986 12.2655C5.74124 12.2655 5 11.5242 5 10.6156C5 9.707 5.74124 8.96576 6.64986 8.96576C7.55847 8.96576 8.29971 9.707 8.29971 10.6156C8.29971 11.5362 7.55847 12.2655 6.64986 12.2655V12.2655ZM6.64986 9.88633C6.24337 9.88633 5.90862 10.2211 5.90862 10.6276C5.90862 11.0341 6.24337 11.3688 6.64986 11.3688C7.05634 11.3688 7.39109 11.0341 7.39109 10.6276C7.39109 10.2211 7.04439 9.88633 6.64986 9.88633Z" fill="white"/>
<path d="M22.8491 6.29971C21.9405 6.29971 21.1992 5.55847 21.1992 4.64985C21.1992 3.74124 21.9405 3 22.8491 3C23.7577 3 24.4989 3.74124 24.4989 4.64985C24.4989 5.55847 23.7577 6.29971 22.8491 6.29971ZM22.8491 3.90862C22.4426 3.90862 22.1078 4.24337 22.1078 4.64985C22.1078 5.05634 22.4426 5.39109 22.8491 5.39109C23.2556 5.39109 23.5903 5.05634 23.5903 4.64985C23.5903 4.24337 23.2556 3.90862 22.8491 3.90862Z" fill="white"/>
<path d="M23.3647 26.2534C22.4561 26.2534 21.7148 25.5121 21.7148 24.6035C21.7148 23.6949 22.4561 22.9537 23.3647 22.9537C24.2733 22.9537 25.0146 23.6949 25.0146 24.6035C25.0265 25.5121 24.2853 26.2534 23.3647 26.2534ZM23.3647 23.8623C22.9582 23.8623 22.6235 24.197 22.6235 24.6035C22.6235 25.01 22.9582 25.3448 23.3647 25.3448C23.7712 25.3448 24.1059 25.01 24.1059 24.6035C24.1059 24.197 23.7712 23.8623 23.3647 23.8623Z" fill="white"/>
<path d="M23.1021 6.93341H11.1825C10.2261 6.93341 9.46094 7.71052 9.46094 8.655V15.5892H9.91525H10.3696V8.655C10.3696 8.21265 10.7282 7.84203 11.1825 7.84203H23.1021C23.5445 7.84203 23.9151 8.20069 23.9151 8.655V20.5746C23.9151 21.017 23.5564 21.3876 23.1021 21.3876H11.1825C11.1467 21.3876 11.1227 21.3876 11.0869 21.3756V22.2962H11.1825H23.1021C24.0586 22.2962 24.8237 21.5191 24.8237 20.5746V8.655C24.8237 7.71052 24.0466 6.93341 23.1021 6.93341V6.93341Z" fill="white"/>
<path d="M12.3885 24.9501H7.41501V24.0295C7.68998 24.0295 7.89322 23.9578 8.02473 23.8143C8.26384 23.5633 8.2758 23.1089 8.26384 22.9655V22.9296V18.3626H6.87701C6.5303 18.3626 6.23141 18.4941 6.00426 18.7572C5.84884 18.9365 5.59777 19.0082 5.37062 18.9126C5.14347 18.8289 5 18.6137 5 18.3746V15.1346H14.8274V18.3746C14.8274 18.6137 14.6839 18.8289 14.4568 18.9126C14.2296 18.9963 13.9786 18.9365 13.8231 18.7572C13.596 18.4941 13.2971 18.3626 12.9504 18.3626H11.5516V22.9774C11.5396 23.1209 11.5636 23.5752 11.7907 23.8263C11.9222 23.9697 12.1255 24.0415 12.4004 24.0415V24.9501H12.3885ZM8.98117 24.0415H10.8223C10.5832 23.5513 10.6071 23.0492 10.6071 22.9057V17.4421H12.9265C13.2732 17.4421 13.6079 17.5257 13.8949 17.6812V16.0552H5.90862V17.6812C6.19555 17.5257 6.5303 17.4421 6.87701 17.4421H9.19637V22.9057C9.19637 23.0372 9.22028 23.5513 8.98117 24.0415Z" fill="white"/>
</svg>
