<svg width="30" height="30" viewBox="0 0 30 30" fill="none" xmlns="http://www.w3.org/2000/svg">
<path d="M24 5H6C5.44773 5 5 5.44773 5 6V20.6667C5 21.2189 5.44773 21.6667 6 21.6667H11.794L11.1273 23H10C9.44773 23 9 23.4477 9 24C9 24.5523 9.44773 25 10 25H20C20.5523 25 21 24.5523 21 24C21 23.4477 20.5523 23 20 23H18.8727L18.206 21.6667H24C24.5523 21.6667 25 21.2189 25 20.6667V6C25 5.44773 24.5523 5 24 5V5ZM6 5.66668H24C24.1841 5.66668 24.3333 5.81594 24.3333 6V19H5.66668V6C5.66668 5.8159 5.8159 5.66668 6 5.66668V5.66668ZM20.3333 24C20.3333 24.1841 20.1841 24.3333 20 24.3333H10C9.8159 24.3333 9.66668 24.1841 9.66668 24C9.66668 23.8159 9.81594 23.6667 10 23.6667H20C20.1841 23.6667 20.3333 23.8159 20.3333 24ZM18.1273 23H11.8727L12.5393 21.6667H17.4607L18.1273 23ZM24 21H6C5.8159 21 5.66668 20.8507 5.66668 20.6667V19.6667H24.3334V20.6667C24.3333 20.8508 24.1841 21 24 21Z" fill="white"/>
<path d="M13.8124 12.243C14.0936 12.3857 14.4314 12.3563 14.6838 12.1674L16.6411 10.7194C16.8663 10.5488 16.9987 10.2827 16.9987 10.0002C16.9987 9.71768 16.8663 9.45151 16.6411 9.281L14.6838 7.83334C14.4313 7.64444 14.0936 7.6151 13.8124 7.75768C13.5147 7.90986 13.3287 8.21733 13.3321 8.55166V11.4483C13.3285 11.7829 13.5145 12.0907 13.8124 12.243V12.243ZM13.9988 8.5517C13.9945 8.4685 14.039 8.39045 14.1127 8.3517C14.1359 8.33955 14.1616 8.33326 14.1877 8.33338C14.224 8.33365 14.2592 8.34596 14.2877 8.36838L16.2458 9.81705C16.301 9.86186 16.3331 9.92924 16.3331 10.0004C16.3331 10.0715 16.301 10.1389 16.2458 10.1837L14.2871 11.6333C14.2376 11.6735 14.1687 11.6798 14.1127 11.6494C14.039 11.6106 13.9945 11.5326 13.9988 11.4494V8.5517Z" fill="white"/>
<path d="M6.64286 18H6.66618C6.84154 18.0004 6.98724 17.8649 6.9995 17.69C7.00216 17.6567 7.26118 14.3333 9.4995 14.3333C11.7328 14.3333 11.9995 17.657 11.9995 17.6903C12.0119 17.8651 12.1576 18.0004 12.3328 18C12.5082 18.0004 12.6539 17.8649 12.6661 17.69C12.6688 17.6566 12.9278 14.3333 15.1661 14.3333C17.3995 14.3333 17.6645 17.657 17.6661 17.6903C17.6785 17.8619 17.8195 17.9959 17.9915 17.9996H17.9995C18.1687 17.9995 18.311 17.8727 18.3305 17.7046C18.3342 17.6713 18.7132 14.6163 20.7199 14.3529C20.8995 14.9972 21.5297 15.4078 22.1917 15.3118C22.8536 15.2157 23.3411 14.6429 23.3302 13.9741C23.3192 13.3053 22.8132 12.7488 22.1485 12.6745C21.4838 12.6001 20.8673 13.0311 20.7089 13.6809C19.1985 13.8266 18.4206 15.0986 18.0319 16.1613C17.6215 14.9303 16.7576 13.6666 15.1662 13.6666C13.6156 13.6666 12.7556 14.8666 12.3329 16.0666C11.9102 14.8666 11.0502 13.6666 9.49958 13.6666C7.21626 13.6666 6.43025 16.2666 6.3329 17.6433C6.3265 17.7318 6.3556 17.8191 6.41376 17.8861C6.47193 17.9531 6.55439 17.994 6.64286 18V18ZM21.9995 13.3333C22.3677 13.3333 22.6662 13.6318 22.6662 14C22.6662 14.3682 22.3677 14.6667 21.9995 14.6667C21.6313 14.6667 21.3329 14.3682 21.3329 14C21.3329 13.6318 21.6313 13.3333 21.9995 13.3333Z" fill="white"/>
<path d="M28 3C27.4493 3 27 2.55072 27 2C27 1.44928 27.4493 1 28 1C28.5507 1 29 1.44928 29 2C29 2.55072 28.5507 3 28 3ZM28 1.55072C27.7536 1.55072 27.5507 1.75362 27.5507 2C27.5507 2.24638 27.7536 2.44928 28 2.44928C28.2464 2.44928 28.4493 2.24638 28.4493 2C28.4493 1.75362 28.2464 1.55072 28 1.55072Z" fill="white"/>
<path d="M3 28C2.44927 28 2 27.5507 2 27C2 26.4493 2.44927 26 3 26C3.55072 26 4 26.4493 4 27C4 27.5507 3.55072 28 3 28ZM3 26.5507C2.75362 26.5507 2.55072 26.7536 2.55072 27C2.55072 27.2464 2.75362 27.4493 3 27.4493C3.24638 27.4493 3.44928 27.2464 3.44928 27C3.44928 26.7536 3.24638 26.5507 3 26.5507Z" fill="white"/>
</svg>
