<svg width="30" height="30" viewBox="0 0 30 30" fill="none" xmlns="http://www.w3.org/2000/svg">
<path d="M28 3C27.4493 3 27 2.55072 27 2C27 1.44928 27.4493 1 28 1C28.5507 1 29 1.44928 29 2C29 2.55072 28.5507 3 28 3ZM28 1.55072C27.7536 1.55072 27.5507 1.75362 27.5507 2C27.5507 2.24638 27.7536 2.44928 28 2.44928C28.2464 2.44928 28.4493 2.24638 28.4493 2C28.4493 1.75362 28.2464 1.55072 28 1.55072Z" fill="white"/>
<path d="M3 28C2.44927 28 2 27.5507 2 27C2 26.4493 2.44927 26 3 26C3.55072 26 4 26.4493 4 27C4 27.5507 3.55072 28 3 28ZM3 26.5507C2.75362 26.5507 2.55072 26.7536 2.55072 27C2.55072 27.2464 2.75362 27.4493 3 27.4493C3.24638 27.4493 3.44928 27.2464 3.44928 27C3.44928 26.7536 3.24638 26.5507 3 26.5507Z" fill="white"/>
<path d="M25.2769 18.0426C25.3974 17.3906 25.459 16.7256 25.459 16.058C25.459 12.39 23.6257 8.99771 20.5546 6.98364L19.7617 8.1928C22.4239 9.93875 24.0132 12.879 24.0132 16.058C24.0132 16.5556 23.9732 17.0515 23.896 17.5397C22.4995 17.3381 21.0228 17.972 20.2496 19.3113C19.253 21.0375 19.8466 23.2524 21.5728 24.2492C23.3095 25.2518 25.5204 24.6412 26.5105 22.926C27.497 21.2175 26.9293 19.0601 25.2769 18.0426V18.0426ZM25.2585 22.2031C24.6605 23.2387 23.3314 23.5949 22.2956 22.9969C21.2599 22.399 20.9038 21.0699 21.5018 20.0343C22.101 18.9963 23.4261 18.6408 24.4645 19.2403C25.5027 19.8396 25.8578 21.1648 25.2585 22.2031V22.2031Z" fill="white"/>
<path d="M14.7018 25.5527C12.5254 25.5527 10.4481 24.8105 8.77631 23.4498C9.66143 22.322 9.82637 20.7233 9.06683 19.4077C8.06799 17.6776 5.85924 17.0856 4.12892 18.0847C2.39878 19.0835 1.80682 21.2921 2.80585 23.0224C3.77739 24.7055 5.92759 25.3283 7.65339 24.3957C9.61738 26.078 12.0982 26.9987 14.7018 26.9987C16.4212 26.9987 18.0658 26.6079 19.5902 25.8368L18.9374 24.5465C17.6175 25.2142 16.1924 25.5527 14.7018 25.5527V25.5527ZM4.05793 22.2996C3.45863 21.2614 3.81373 19.9362 4.85192 19.3367C5.88579 18.7399 7.213 19.0888 7.81456 20.1305C8.41255 21.1663 8.05651 22.4954 7.02076 23.0934C5.9852 23.6914 4.65592 23.3351 4.05793 22.2996Z" fill="white"/>
<path d="M11.2918 7.27614C11.8252 8.60768 13.1281 9.55117 14.6481 9.55117C16.6413 9.55117 18.2628 7.92967 18.2628 5.93651C18.2628 3.94334 16.6413 2.32166 14.6481 2.32166C12.6905 2.32166 11.0926 3.8861 11.0359 5.83013C6.93452 7.27746 4.06132 11.0753 3.82031 15.4527L5.26407 15.5322C5.46854 11.8194 7.85786 8.58753 11.2918 7.27614V7.27614ZM14.6481 3.76767C15.8441 3.76767 16.8169 4.74053 16.8169 5.93651C16.8169 7.13229 15.8441 8.10534 14.6481 8.10534C13.4521 8.10534 12.4793 7.13229 12.4793 5.93651C12.4793 4.74053 13.4521 3.76767 14.6481 3.76767Z" fill="white"/>
<path d="M14.7342 18.5686C13.1187 18.5686 11.8008 17.2506 11.8008 15.6351C11.8008 14.0196 13.1187 12.7017 14.7342 12.7017C16.3498 12.7017 17.6677 14.0196 17.6677 15.6351C17.6677 17.2506 16.3498 18.5686 14.7342 18.5686ZM14.7342 14.3172C14.0115 14.3172 13.4163 14.9124 13.4163 15.6351C13.4163 16.3579 14.0115 16.9531 14.7342 16.9531C15.457 16.9531 16.0522 16.3579 16.0522 15.6351C16.0522 14.9124 15.457 14.3172 14.7342 14.3172Z" fill="white"/>
</svg>
