<svg width="30" height="30" viewBox="0 0 30 30" fill="none" xmlns="http://www.w3.org/2000/svg">
<path d="M21.8019 22.4327H12.7401V21.2234C13.3212 21.2234 13.7452 21.0663 14.0436 20.7365C14.6247 20.1083 14.5462 19.0247 14.5462 19.009V18.9619V10.4026H11.7663C10.8712 10.4026 10.3058 10.8423 9.99167 11.2035C9.77179 11.4548 9.41058 11.549 9.09647 11.4234C8.76667 11.2978 8.5625 10.9994 8.5625 10.6538V5H26.0266V10.6696C26.0266 11.0151 25.8224 11.3135 25.4926 11.4391C25.1785 11.5647 24.8173 11.4705 24.5974 11.2192C24.2833 10.858 23.7179 10.4183 22.8228 10.4183H20.0429V19.0404C20.0429 19.0561 19.9644 20.1397 20.5455 20.7679C20.8439 21.082 21.2679 21.2391 21.849 21.2391V22.4327H21.8019ZM15.1744 21.2391H19.3519C18.7394 20.3125 18.7865 19.166 18.8022 18.9461V9.19327H22.7913C23.6394 9.19327 24.299 9.46026 24.8016 9.80577V6.19359H9.75609V9.80577C10.2429 9.46026 10.9026 9.19327 11.7663 9.19327H15.7554V18.9461C15.7397 19.166 15.7869 20.3125 15.1744 21.2391V21.2391Z" fill="white"/>
<path d="M25.39 24.0034C24.1964 24.0034 23.2227 23.0297 23.2227 21.8361C23.2227 20.6425 24.1964 19.6688 25.39 19.6688C26.5836 19.6688 27.5573 20.6425 27.5573 21.8361C27.573 23.0297 26.5993 24.0034 25.39 24.0034ZM25.39 20.8781C24.856 20.8781 24.4162 21.3179 24.4162 21.8518C24.4162 22.3858 24.856 22.8256 25.39 22.8256C25.9239 22.8256 26.3637 22.3858 26.3637 21.8518C26.3637 21.3022 25.9239 20.8781 25.39 20.8781Z" fill="white"/>
<path d="M2 15.8522H9.71122V17.0615H2V15.8522Z" fill="white"/>
<path d="M6.67947 20.2968L5.95703 19.3388L9.74197 16.4805L5.97274 13.8106L6.66376 12.8369L11.7836 16.4491L6.67947 20.2968Z" fill="white"/>
</svg>
