<svg width="30" height="30" viewBox="0 0 30 30" fill="none" xmlns="http://www.w3.org/2000/svg">
<path d="M3.97693 10.2507C3.3564 10.2507 2.85156 9.7459 2.85156 9.12537C2.85156 8.50484 3.3564 8 3.97693 8C4.59746 8 5.1023 8.50484 5.1023 9.12537C5.1023 9.7459 4.59746 10.2507 3.97693 10.2507ZM3.97693 8.62053C3.70348 8.62053 3.47209 8.8414 3.47209 9.12537C3.47209 9.39882 3.69296 9.61969 3.97693 9.61969C4.25038 9.61969 4.47125 9.39882 4.47125 9.12537C4.48177 8.85191 4.25038 8.62053 3.97693 8.62053V8.62053Z" fill="white"/>
<path d="M15.4926 15.4779C14.872 15.4779 14.3672 14.9731 14.3672 14.3525C14.3672 13.732 14.872 13.2272 15.4926 13.2272C16.1131 13.2272 16.6179 13.732 16.6179 14.3525C16.6179 14.9731 16.1131 15.4779 15.4926 15.4779ZM15.4926 13.8477C15.2191 13.8477 14.9982 14.0686 14.9982 14.342C14.9982 14.6155 15.2191 14.8469 15.4926 14.8469C15.766 14.8469 15.9974 14.626 15.9974 14.342C15.9974 14.0791 15.766 13.8477 15.4926 13.8477Z" fill="white"/>
<path d="M17.8496 19.706H13.1272C12.0229 19.706 11.1289 18.8015 11.1289 17.6972V12.9749C11.1289 11.8705 12.0229 10.9766 13.1272 10.9766H17.8496C18.9539 10.9766 19.8584 11.8705 19.8584 12.9749V17.6972C19.8584 18.8015 18.9539 19.706 17.8496 19.706ZM13.1377 11.5971C12.3805 11.5971 11.76 12.2176 11.76 12.9749V17.6972C11.76 18.465 12.3805 19.075 13.1377 19.075H17.8601C18.6278 19.075 19.2379 18.4545 19.2379 17.6972V12.9749C19.2379 12.2176 18.6173 11.5971 17.8601 11.5971H13.1377Z" fill="white"/>
<path d="M17.8496 19.7062H13.1272C12.0229 19.7062 11.1289 18.8017 11.1289 17.6973V17.1925L14.1684 15.4676L15.0414 16.7402L19.8584 13.7953V17.6973C19.8584 18.8017 18.9539 19.7062 17.8496 19.7062ZM11.7494 17.5501V17.6973C11.7494 18.4651 12.37 19.0751 13.1272 19.0751H17.8496C18.6173 19.0751 19.2273 18.4546 19.2273 17.6973V14.9102L14.8521 17.5816L13.9686 16.288L11.7494 17.5501Z" fill="white"/>
<path d="M5.69177 15.499C5.14486 15.499 4.70312 15.0573 4.70312 14.5104C4.70312 13.9635 5.14486 13.5217 5.69177 13.5217C6.23867 13.5217 6.68041 13.9635 6.68041 14.5104C6.68041 15.0573 6.23867 15.499 5.69177 15.499ZM5.69177 14.1528C5.49193 14.1528 5.32365 14.3211 5.32365 14.5209C5.32365 14.7207 5.49193 14.889 5.69177 14.889C5.8916 14.889 6.05988 14.7207 6.05988 14.5209C6.05988 14.3105 5.8916 14.1528 5.69177 14.1528Z" fill="white"/>
<path d="M7.65839 19.0329H3.72486C2.77829 19.0329 2 18.2546 2 17.308V13.364C2 12.4174 2.77829 11.6391 3.72486 11.6391H7.66891C8.61548 11.6391 9.39377 12.4174 9.39377 13.364V17.308C9.38325 18.2651 8.61548 19.0329 7.65839 19.0329V19.0329ZM3.72486 12.2701C3.11485 12.2701 2.62053 12.7645 2.62053 13.3745V17.3185C2.62053 17.9285 3.11485 18.4229 3.72486 18.4229H7.66891C8.27892 18.4229 8.77324 17.9285 8.77324 17.3185V13.3745C8.77324 12.7645 8.27892 12.2701 7.66891 12.2701H3.72486Z" fill="white"/>
<path d="M7.65839 19.0329H3.72486C2.77829 19.0329 2 18.2546 2 17.308V16.8557L4.60833 15.3833L5.33403 16.4456L9.39377 13.9634V17.308C9.38325 18.2651 8.61548 19.0329 7.65839 19.0329V19.0329ZM2.62053 17.2133V17.308C2.62053 17.918 3.11485 18.4123 3.72486 18.4123H7.66891C8.27892 18.4123 8.77324 17.918 8.77324 17.308V15.0678L5.15524 17.2764L4.41901 16.1931L2.62053 17.2133Z" fill="white"/>
<path d="M25.2972 15.499C24.7503 15.499 24.3086 15.0573 24.3086 14.5104C24.3086 13.9635 24.7503 13.5217 25.2972 13.5217C25.8441 13.5217 26.2859 13.9635 26.2859 14.5104C26.2859 15.0573 25.8441 15.499 25.2972 15.499ZM25.2972 14.1528C25.0974 14.1528 24.9291 14.3211 24.9291 14.5209C24.9291 14.7207 25.0974 14.889 25.2972 14.889C25.4971 14.889 25.6653 14.7207 25.6653 14.5209C25.6653 14.3105 25.4971 14.1528 25.2972 14.1528Z" fill="white"/>
<path d="M27.2627 19.0329H23.3186C22.372 19.0329 21.5938 18.2546 21.5938 17.3081V13.364C21.5938 12.4175 22.372 11.6392 23.3186 11.6392H27.2627C28.2092 11.6392 28.9875 12.4175 28.9875 13.364V17.3081C28.9875 18.2652 28.2197 19.0329 27.2627 19.0329ZM23.3291 12.2702C22.7191 12.2702 22.2248 12.7645 22.2248 13.3745V17.3186C22.2248 17.9286 22.7191 18.4229 23.3291 18.4229H27.2732C27.8832 18.4229 28.3775 17.9286 28.3775 17.3186V13.3745C28.3775 12.7645 27.8832 12.2702 27.2732 12.2702H23.3291Z" fill="white"/>
<path d="M27.2627 19.0329H23.3186C22.372 19.0329 21.5938 18.2546 21.5938 17.308V16.8557L24.2021 15.3833L24.9278 16.4456L28.9875 13.9634V17.308C28.9875 18.2651 28.2197 19.0329 27.2627 19.0329ZM22.2248 17.2133V17.308C22.2248 17.918 22.7191 18.4123 23.3291 18.4123H27.2732C27.8832 18.4123 28.3775 17.918 28.3775 17.308V15.0678L24.7595 17.2764L24.0233 16.1931L22.2248 17.2133Z" fill="white"/>
<path d="M18.6699 22.8086H12.3174C11.6653 22.8086 11.1289 22.2723 11.1289 21.6202C11.1289 20.9681 11.6653 20.4317 12.3174 20.4317H18.6699C19.322 20.4317 19.8584 20.9681 19.8584 21.6202C19.8584 22.2723 19.322 22.8086 18.6699 22.8086ZM12.3174 21.0522C12.0019 21.0522 11.7494 21.3046 11.7494 21.6202C11.7494 21.9357 12.0019 22.1881 12.3174 22.1881H18.6699C18.9854 22.1881 19.2379 21.9357 19.2379 21.6202C19.2379 21.3046 18.9854 21.0522 18.6699 21.0522H12.3174Z" fill="white"/>
<path d="M8.17974 21.7359H3.19447C2.63705 21.7359 2.19531 21.2837 2.19531 20.7368C2.19531 20.1899 2.64756 19.7376 3.19447 19.7376H8.17974C8.72665 19.7376 9.1789 20.1899 9.1789 20.7368C9.1789 21.2942 8.73717 21.7359 8.17974 21.7359ZM3.19447 20.3581C2.98412 20.3581 2.81584 20.5264 2.81584 20.7368C2.81584 20.9471 2.98412 21.1154 3.19447 21.1154H8.17974C8.39009 21.1154 8.55837 20.9471 8.55837 20.7368C8.55837 20.5264 8.39009 20.3581 8.17974 20.3581H3.19447Z" fill="white"/>
<path d="M27.7852 21.7359H22.7999C22.253 21.7359 21.8008 21.2837 21.8008 20.7368C21.8008 20.1899 22.253 19.7376 22.7999 19.7376H27.7852C28.3321 19.7376 28.7844 20.1899 28.7844 20.7368C28.7844 21.2942 28.3426 21.7359 27.7852 21.7359V21.7359ZM22.7999 20.3581C22.5896 20.3581 22.4213 20.5264 22.4213 20.7368C22.4213 20.9471 22.5896 21.1154 22.7999 21.1154H27.7852C27.9956 21.1154 28.1638 20.9471 28.1638 20.7368C28.1638 20.5264 27.9956 20.3581 27.7852 20.3581H22.7999Z" fill="white"/>
</svg>
