<svg width="30" height="30" viewBox="0 0 30 30" fill="none" xmlns="http://www.w3.org/2000/svg">
<path d="M16.2885 21.0951L15.7725 20.4609C16.0842 20.203 16.2455 19.9342 16.2562 19.6333C16.2885 19.0421 15.7725 18.4939 15.7725 18.4831L15.751 18.4509L12.0104 13.861L10.5163 15.0757C10.0433 15.4626 9.92506 15.9463 9.91431 16.2796C9.90356 16.516 9.75307 16.7203 9.53809 16.7955C9.31236 16.8708 9.06514 16.8063 8.9254 16.6128L6.45312 13.5816L15.8048 5.97125L18.277 9.00248C18.4275 9.18521 18.449 9.43244 18.3308 9.64742C18.2125 9.85165 17.9868 9.95914 17.7503 9.91614C17.4171 9.8624 16.9227 9.87315 16.4497 10.2601L14.9556 11.4747L18.7178 16.0968C18.7178 16.0968 19.1477 16.7203 19.7497 16.8063C20.0506 16.8493 20.3409 16.7525 20.6526 16.4945L21.1685 17.1287L16.2885 21.0951ZM16.3745 17.9242C16.4712 18.0317 16.9979 18.6336 17.0732 19.3968L19.3197 17.5694C18.5888 17.3437 18.1051 16.7095 18.0191 16.5805L13.7625 11.3565L15.9015 9.61517C16.3637 9.23895 16.8367 9.09922 17.2451 9.06697L15.665 7.1214L7.59252 13.6998L9.17263 15.6454C9.29087 15.2477 9.51659 14.8177 9.9788 14.4415L12.1179 12.7001L16.3745 17.9242Z" fill="white"/>
<path d="M4.48336 12.2378C3.66644 12.2378 3 11.5713 3 10.7544C3 9.9375 3.66644 9.27106 4.48336 9.27106C5.30029 9.27106 5.96673 9.9375 5.96673 10.7544C5.96673 11.5713 5.30029 12.2378 4.48336 12.2378V12.2378ZM4.48336 10.088C4.1179 10.088 3.81693 10.389 3.81693 10.7544C3.81693 11.1199 4.1179 11.4209 4.48336 11.4209C4.84883 11.4209 5.1498 11.1199 5.1498 10.7544C5.13905 10.389 4.83808 10.088 4.48336 10.088Z" fill="white"/>
<path d="M23.499 21.1918C22.6821 21.1918 22.0156 20.5253 22.0156 19.7084C22.0156 18.8915 22.6821 18.225 23.499 18.225C24.3159 18.225 24.9824 18.8915 24.9824 19.7084C24.9824 20.5253 24.3159 21.1918 23.499 21.1918ZM23.499 19.042C23.1335 19.042 22.8326 19.3429 22.8326 19.7084C22.8326 20.0739 23.1335 20.3748 23.499 20.3748C23.8645 20.3748 24.1654 20.0739 24.1654 19.7084C24.1654 19.3429 23.8645 19.042 23.499 19.042Z" fill="white"/>
<path d="M20.6177 2.18756L18.8656 4.42335C18.7366 4.58459 18.7258 4.81032 18.8441 4.9823L20.4994 7.47607C20.6392 7.69105 20.9401 7.75555 21.1551 7.60506C21.3701 7.45458 21.4346 7.16435 21.2841 6.94937L20.0587 5.11129C21.4991 4.86406 22.9824 5.24028 24.1326 6.14319C26.4006 7.91678 26.8091 11.1845 25.0355 13.4525C24.8743 13.6568 24.9065 13.9577 25.1215 14.119C25.3257 14.2802 25.6267 14.248 25.7879 14.033C26.7768 12.7753 27.2283 11.1737 27.0563 9.58288C26.6909 6.20769 23.6704 3.76766 20.2952 4.12238L21.3593 2.75725C21.5313 2.56377 21.4991 2.2628 21.2841 2.10156C21.0799 1.94033 20.7789 1.97258 20.6177 2.18756V2.18756Z" fill="white"/>
<path d="M10.663 26.7707L12.1893 24.3736C12.2968 24.2017 12.2861 23.9759 12.1571 23.8147L10.2653 21.4929C10.104 21.2887 9.80307 21.2564 9.59884 21.4284C9.39461 21.5897 9.36236 21.8906 9.53434 22.0949L10.9317 23.8147C9.52359 24.1909 8.01873 23.9652 6.78259 23.1805C4.35332 21.6326 3.63313 18.4187 5.18099 15.9894C5.32073 15.7637 5.25623 15.4735 5.0305 15.3337C4.80478 15.194 4.51455 15.2585 4.37481 15.4842C3.51489 16.8278 3.21392 18.4617 3.53639 20.031C4.22433 23.3525 7.47053 25.4915 10.8027 24.8144L9.87831 26.2762C9.73857 26.502 9.80307 26.7922 10.0288 26.9319C10.2545 27.0716 10.5233 26.9857 10.663 26.7707V26.7707Z" fill="white"/>
</svg>
