<svg width="30" height="30" viewBox="0 0 30 30" fill="none" xmlns="http://www.w3.org/2000/svg">
<path d="M20.9492 11.7458H9.81835C8.54044 11.7458 7.31488 12.2534 6.41126 13.157C5.50765 14.0607 5 15.2862 5 16.5641C5 17.842 5.50765 19.0676 6.41126 19.9712C7.31488 20.8748 8.54044 21.3825 9.81835 21.3825H20.9492C22.2271 21.3825 23.4526 20.8748 24.3563 19.9712C25.2599 19.0676 25.7675 17.842 25.7675 16.5641C25.7675 15.2862 25.2599 14.0607 24.3563 13.157C23.4526 12.2534 22.2271 11.7458 20.9492 11.7458V11.7458ZM9.81835 20.0121C9.1364 20.0121 8.46977 19.8099 7.90275 19.431C7.33573 19.0522 6.89379 18.5137 6.63282 17.8836C6.37185 17.2536 6.30357 16.5603 6.43661 15.8915C6.56965 15.2226 6.89804 14.6082 7.38025 14.126C7.86246 13.6438 8.47683 13.3154 9.14568 13.1824C9.81452 13.0494 10.5078 13.1176 11.1378 13.3786C11.7679 13.6396 12.3064 14.0815 12.6852 14.6485C13.0641 15.2156 13.2663 15.8822 13.2663 16.5641C13.2663 17.4786 12.9031 18.3556 12.2564 19.0022C11.6098 19.6489 10.7328 20.0121 9.81835 20.0121V20.0121Z" fill="white"/>
<path d="M21.1596 16.3872L18.799 14.0267C18.7771 14.0019 18.7497 13.9827 18.719 13.9704C18.6883 13.9581 18.6552 13.9532 18.6222 13.956C18.5895 13.9555 18.5571 13.9615 18.5267 13.9736C18.4964 13.9858 18.4687 14.0038 18.4454 14.0267C18.3994 14.0758 18.3738 14.1406 18.3738 14.2079C18.3738 14.2752 18.3994 14.34 18.4454 14.3892L20.6203 16.5641L18.4454 18.7743C18.4219 18.7974 18.4032 18.8249 18.3904 18.8552C18.3777 18.8856 18.3711 18.9182 18.3711 18.9511C18.3711 18.9841 18.3777 19.0167 18.3904 19.047C18.4032 19.0774 18.4219 19.1049 18.4454 19.128C18.4677 19.1528 18.4949 19.1728 18.5254 19.1865C18.5558 19.2002 18.5888 19.2074 18.6222 19.2075C18.6906 19.2072 18.7566 19.182 18.8079 19.1368L21.1596 16.7762C21.1854 16.7548 21.206 16.7277 21.2198 16.697C21.2336 16.6664 21.2402 16.633 21.2392 16.5994C21.2463 16.5602 21.2426 16.5197 21.2286 16.4824C21.2146 16.445 21.1908 16.4121 21.1596 16.3872Z" fill="white"/>
<path d="M14.6159 8.5364C14.2661 8.5364 13.9243 8.4327 13.6335 8.23841C13.3427 8.04411 13.1161 7.76796 12.9823 7.44486C12.8484 7.12177 12.8134 6.76624 12.8816 6.42324C12.9499 6.08025 13.1183 5.76518 13.3656 5.51789C13.6128 5.27061 13.9279 5.1022 14.2709 5.03398C14.6139 4.96575 14.9694 5.00077 15.2925 5.1346C15.6156 5.26843 15.8918 5.49506 16.0861 5.78584C16.2804 6.07662 16.3841 6.41848 16.3841 6.7682C16.3841 7.23716 16.1978 7.68691 15.8662 8.01851C15.5346 8.35011 15.0848 8.5364 14.6159 8.5364ZM14.6159 6.00788C14.4595 6.00613 14.3062 6.05101 14.1754 6.13679C14.0447 6.22258 13.9425 6.34537 13.8818 6.4895C13.8212 6.63364 13.8048 6.79257 13.8349 6.94603C13.865 7.09948 13.9401 7.24049 14.0507 7.35106C14.1613 7.46163 14.3023 7.53675 14.4557 7.56683C14.6092 7.59691 14.7681 7.58058 14.9122 7.51994C15.0564 7.45929 15.1792 7.35707 15.2649 7.22633C15.3507 7.09558 15.3956 6.94225 15.3939 6.78588C15.3916 6.58026 15.3089 6.3837 15.1635 6.23829C15.018 6.09288 14.8215 6.01017 14.6159 6.00788Z" fill="white"/>
<path d="M22.9909 25.8471C22.6411 25.8471 22.2993 25.7434 22.0085 25.5491C21.7177 25.3548 21.4911 25.0787 21.3573 24.7556C21.2234 24.4325 21.1884 24.077 21.2566 23.734C21.3249 23.391 21.4933 23.0759 21.7405 22.8286C21.9878 22.5813 22.3029 22.4129 22.6459 22.3447C22.9889 22.2765 23.3444 22.3115 23.6675 22.4453C23.9906 22.5792 24.2668 22.8058 24.4611 23.0966C24.6554 23.3874 24.7591 23.7292 24.7591 24.0789C24.7591 24.5479 24.5728 24.9976 24.2412 25.3292C23.9096 25.6608 23.4598 25.8471 22.9909 25.8471ZM22.9909 23.3186C22.8345 23.3169 22.6812 23.3617 22.5504 23.4475C22.4197 23.5333 22.3175 23.6561 22.2568 23.8002C22.1962 23.9444 22.1798 24.1033 22.2099 24.2568C22.24 24.4102 22.3151 24.5512 22.4257 24.6618C22.5363 24.7724 22.6773 24.8475 22.8307 24.8776C22.9842 24.9076 23.1431 24.8913 23.2872 24.8307C23.4314 24.77 23.5542 24.6678 23.6399 24.5371C23.7257 24.4063 23.7706 24.253 23.7689 24.0966C23.7712 23.993 23.7528 23.8899 23.7148 23.7934C23.6768 23.697 23.6198 23.6091 23.5473 23.535C23.4749 23.4609 23.3883 23.402 23.2927 23.3618C23.1972 23.3216 23.0945 23.3009 22.9909 23.3009V23.3186Z" fill="white"/>
</svg>
