<svg width="30" height="30" viewBox="0 0 30 30" fill="none" xmlns="http://www.w3.org/2000/svg">
<path d="M8.11682 13.4733C7.50176 13.4733 7 12.9715 7 12.3564C7 11.7414 7.50176 11.2396 8.11682 11.2396C8.73188 11.2396 9.23364 11.7414 9.23364 12.3564C9.24173 12.9715 8.73997 13.4733 8.11682 13.4733V13.4733ZM8.11682 11.8628C7.84166 11.8628 7.61506 12.0894 7.61506 12.3645C7.61506 12.6397 7.84166 12.8663 8.11682 12.8663C8.39198 12.8663 8.61858 12.6397 8.61858 12.3645C8.61858 12.0813 8.39198 11.8628 8.11682 11.8628Z" fill="white"/>
<path d="M21.0973 19.4295C20.4822 19.4295 19.9805 18.9277 19.9805 18.3127C19.9805 17.6976 20.4822 17.1959 21.0973 17.1959C21.7123 17.1959 22.2141 17.6976 22.2141 18.3127C22.2141 18.9277 21.7123 19.4295 21.0973 19.4295ZM21.0973 17.8109C20.8221 17.8109 20.5955 18.0375 20.5955 18.3127C20.5955 18.5878 20.8221 18.8144 21.0973 18.8144C21.3724 18.8144 21.599 18.5878 21.599 18.3127C21.591 18.0375 21.3724 17.8109 21.0973 17.8109Z" fill="white"/>
<path d="M15.4392 20.1337C15.3016 20.1337 15.164 20.0851 15.0588 19.9799L10.0736 14.9947C9.87129 14.7843 9.87129 14.4525 10.0736 14.2421C10.1707 14.1369 10.3083 14.0802 10.454 14.0802C10.5997 14.0802 10.7372 14.1288 10.8343 14.234L15.4392 18.8388L20.1331 14.1449H20.1654C20.3678 14.0397 20.6186 14.064 20.7886 14.234C20.8938 14.3311 20.9505 14.4687 20.9505 14.6143C20.9505 14.76 20.9019 14.8895 20.7967 14.9947L15.8115 19.9799C15.7144 20.077 15.5768 20.1337 15.4392 20.1337V20.1337Z" fill="white"/>
<path d="M15.4392 16.0548C15.3016 16.0548 15.164 16.0063 15.0588 15.9011L10.0736 10.9239C9.87129 10.7135 9.87129 10.3817 10.0736 10.1713C10.2759 9.96088 10.6158 9.95279 10.8343 10.1551L15.4392 14.76L20.1331 10.0661H20.1654C20.3759 9.95279 20.6429 9.98516 20.8129 10.1632C21.0152 10.3736 21.0152 10.7135 20.7967 10.9239L15.8196 15.9011C15.7144 16.0063 15.5768 16.0548 15.4392 16.0548V16.0548Z" fill="white"/>
<path d="M15.4412 20.1336C15.2955 20.1336 15.1661 20.077 15.0609 19.9799L10.0756 14.9947C9.97043 14.8895 9.92188 14.7519 9.92188 14.6062C9.92188 14.4605 9.97853 14.331 10.0837 14.2258C10.2941 14.0235 10.6179 14.0235 10.8283 14.2258L15.4331 18.8307L20.0299 14.2339C20.1351 14.1287 20.2646 14.0802 20.4183 14.0802C20.564 14.0802 20.6935 14.1368 20.7987 14.242C21.001 14.4524 21.001 14.7762 20.7987 14.9866L15.8135 19.9718C15.7164 20.077 15.5788 20.1336 15.4412 20.1336V20.1336Z" fill="white"/>
<path d="M15.4412 16.0548C15.2955 16.0548 15.1661 15.9982 15.0609 15.901L10.0756 10.9239C9.97852 10.8106 9.92188 10.6811 9.92188 10.5355C9.92188 10.3898 9.97853 10.2603 10.0837 10.1551C10.2941 9.95278 10.6179 9.95278 10.8283 10.1551L15.4331 14.7599L20.0299 10.1632C20.2322 9.95278 20.5721 9.95278 20.7825 10.1551C20.8877 10.2522 20.9444 10.3898 20.9444 10.5355C20.9444 10.6811 20.8958 10.8106 20.7906 10.9158L15.8054 15.9091C15.7164 15.9982 15.5788 16.0548 15.4412 16.0548V16.0548ZM20.4831 10.6002C20.475 10.6002 20.4831 10.6002 20.4831 10.6002V10.6002Z" fill="white"/>
</svg>
