<svg width="30" height="30" viewBox="0 0 30 30" fill="none" xmlns="http://www.w3.org/2000/svg">
<path d="M18.7068 22.4111H12.4476V21.5844C12.8449 21.5844 13.1455 21.4771 13.3495 21.2516C13.7574 20.8114 13.693 20.0599 13.693 20.0492V20.017V14.1013H11.7712C11.1593 14.1013 10.762 14.4019 10.5473 14.6596C10.397 14.8421 10.1501 14.8958 9.93534 14.8206C9.70988 14.7348 9.57031 14.5308 9.57031 14.2946V10.3866H21.6163V14.2946C21.6163 14.5308 21.4767 14.7348 21.2513 14.8206C21.0258 14.9065 20.7896 14.8421 20.6393 14.6596C20.4139 14.4019 20.0274 14.1013 19.4154 14.1013H17.4936V20.0599C17.4936 20.0706 17.4399 20.8222 17.8372 21.2624C18.0412 21.4878 18.331 21.5952 18.739 21.5952V22.4111H18.7068ZM14.1225 21.5952H17.0212C16.5918 20.951 16.624 20.1565 16.6347 20.017V13.2961H19.3832C19.9737 13.2961 20.4353 13.4786 20.7682 13.7148V11.2025H10.3755V13.7041C10.7191 13.4679 11.17 13.2854 11.7605 13.2854H14.509V20.0062C14.5197 20.1565 14.5519 20.951 14.1225 21.5952Z" fill="white"/>
<path d="M6.48159 18.7284C5.66564 18.7284 5 18.0628 5 17.2469C5 16.4309 5.66564 15.7653 6.48159 15.7653C7.29755 15.7653 7.96319 16.4309 7.96319 17.2469C7.96319 18.0628 7.29755 18.7284 6.48159 18.7284ZM6.48159 16.5812C6.11656 16.5812 5.81595 16.8818 5.81595 17.2469C5.81595 17.6119 6.11656 17.9125 6.48159 17.9125C6.84663 17.9125 7.14724 17.6119 7.14724 17.2469C7.14724 16.8818 6.84663 16.5812 6.48159 16.5812V16.5812Z" fill="white"/>
<path d="M19.13 5.96319C18.3141 5.96319 17.6484 5.29754 17.6484 4.48159C17.6484 3.66564 18.3141 3 19.13 3C19.946 3 20.6116 3.66564 20.6116 4.48159C20.6116 5.29754 19.946 5.96319 19.13 5.96319ZM19.13 3.81595C18.765 3.81595 18.4644 4.11656 18.4644 4.48159C18.4644 4.84662 18.765 5.14724 19.13 5.14724C19.4951 5.14724 19.7957 4.84662 19.7957 4.48159C19.7957 4.11656 19.4951 3.81595 19.13 3.81595Z" fill="white"/>
<path d="M7.54544 12.6948H6.71875V7.7561H25.3675V8.58279H7.54544V12.6948Z" fill="white"/>
<path d="M23.3064 10.7945L22.8125 10.1396L25.3999 8.18562L22.8232 6.36047L23.2956 5.69482L26.7956 8.16415L23.3064 10.7945Z" fill="white"/>
<path d="M21.4787 25.0736H7.84375V24.2469H20.652V20.9187H21.4787V25.0736Z" fill="white"/>
<path d="M9.92676 27.135L6.4375 24.6656L9.91603 22.0353L10.4206 22.6902L7.8332 24.6442L10.4099 26.4693L9.92676 27.135Z" fill="white"/>
</svg>
