<svg width="30" height="30" viewBox="0 0 30 30" fill="none" xmlns="http://www.w3.org/2000/svg">
<path d="M7.10859 8.58275C6.49806 8.58275 6 8.08469 6 7.47416C6 6.86364 6.49806 6.35754 7.10859 6.35754C7.71911 6.35754 8.21717 6.8556 8.21717 7.46613C8.21717 8.07666 7.72715 8.58275 7.10859 8.58275V8.58275ZM7.10859 6.9761C6.83546 6.9761 6.61053 7.20103 6.61053 7.47416C6.61053 7.74729 6.83546 7.96419 7.10859 7.96419C7.38172 7.96419 7.60665 7.73926 7.60665 7.46613C7.60665 7.193 7.38172 6.9761 7.10859 6.9761V6.9761Z" fill="white"/>
<path d="M22.0148 24.9064C21.4043 24.9064 20.9062 24.4083 20.9062 23.7978C20.9062 23.1873 21.4043 22.6892 22.0148 22.6892C22.6254 22.6892 23.1234 23.1873 23.1234 23.7978C23.1234 24.4083 22.6254 24.9064 22.0148 24.9064ZM22.0148 23.2997C21.7417 23.2997 21.5168 23.5247 21.5168 23.7978C21.5168 24.0709 21.7417 24.2959 22.0148 24.2959C22.288 24.2959 22.5129 24.0709 22.5129 23.7978C22.5129 23.5247 22.288 23.2997 22.0148 23.2997Z" fill="white"/>
<path d="M9.6875 14.0939H10.5551V14.7124H9.6875V14.0939Z" fill="white"/>
<path d="M9.6875 18.5522H10.5551V18.9619H9.6875V18.5522Z" fill="white"/>
<path d="M9.6875 19.5642H10.5551V19.9739H9.6875V19.5642Z" fill="white"/>
<path d="M19.3189 21.5402V22.705C19.3189 23.1308 18.9735 23.4843 18.5397 23.4843H9.24522C8.81946 23.4843 8.46599 23.1388 8.46599 22.705V11.1131H10.5466V10.4945H8.53829C8.65879 10.2214 8.93192 10.0286 9.25325 10.0286H10.5627V9.41003H9.24522C8.47403 9.41003 7.85547 10.0366 7.85547 10.7998V22.705C7.85547 23.4762 8.48206 24.0948 9.24522 24.0948H18.5397C19.3109 24.0948 19.9294 23.4682 19.9294 22.705V21.5402H19.3189Z" fill="white"/>
<path d="M21.7054 19.3794V20.4559C21.7054 20.8817 21.36 21.2351 20.9262 21.2351H11.6397C11.214 21.2351 10.8605 20.8897 10.8605 20.4559V8.86393H13.0697V8.24538H10.9328C11.0533 7.97225 11.3265 7.77945 11.6397 7.77945H13.0777V7.16089H11.6397C10.8766 7.16089 10.25 7.78748 10.25 8.55064V20.4559C10.25 21.2271 10.8766 21.8456 11.6397 21.8456H20.9342C21.7054 21.8456 22.324 21.219 22.324 20.4559V19.3794H21.7054Z" fill="white"/>
<path d="M12.082 11.8444H13.0782V12.4629H12.082V11.8444Z" fill="white"/>
<path d="M12.082 16.2948H13.0782V16.7045H12.082V16.2948Z" fill="white"/>
<path d="M12.082 17.3149H13.0782V17.7246H12.082V17.3149Z" fill="white"/>
<path d="M23.4576 19.6928H14.1632C13.392 19.6928 12.7734 19.0662 12.7734 18.303V6.38975C12.7734 5.61856 13.4 5 14.1632 5H23.4576C24.2288 5 24.8474 5.62659 24.8474 6.38975V18.295C24.8474 19.0662 24.2208 19.6928 23.4576 19.6928V19.6928ZM14.1632 5.61856C13.7374 5.61856 13.384 5.96399 13.384 6.39778V18.303C13.384 18.7288 13.7294 19.0823 14.1632 19.0823H23.4576C23.8834 19.0823 24.2369 18.7368 24.2369 18.303V6.38975C24.2369 5.96399 23.8914 5.61053 23.4576 5.61053H14.1632V5.61856Z" fill="white"/>
<path d="M14.5938 9.68347H23.0045V10.302H14.5938V9.68347Z" fill="white"/>
<path d="M14.5938 14.1339H23.0045V14.5436H14.5938V14.1339Z" fill="white"/>
<path d="M14.5938 15.1541H23.0045V15.5637H14.5938V15.1541Z" fill="white"/>
<path d="M13.0742 6.08459H24.5376V6.70315H13.0742V6.08459Z" fill="white"/>
</svg>
