<svg width="30" height="30" viewBox="0 0 30 30" fill="none" xmlns="http://www.w3.org/2000/svg">
<path d="M18.04 15.2415V20.5292C18.04 21.2161 17.4883 21.7678 16.8013 21.7678H4.04013C3.35315 21.7678 2.80148 21.2161 2.80148 20.5292V12.9619C2.80148 12.275 3.35315 11.7233 4.04013 11.7233H11.4616V10.9218H4.04013C2.91598 10.9218 2 11.8378 2 12.9619V20.5292C2 21.6533 2.91598 22.5589 4.04013 22.5589H16.7909C17.9151 22.5589 18.8311 21.6429 18.8311 20.5292V15.2415H18.04Z" fill="white"/>
<path d="M25.8599 15.6371H13.0987C11.9746 15.6371 11.0586 14.7211 11.0586 13.5969V6.04013C11.0586 4.91598 11.9746 4 13.0987 4H25.8495C26.9737 4 27.8793 4.91598 27.8793 6.04013V13.6073C27.8897 14.7315 26.9737 15.6371 25.8599 15.6371V15.6371ZM13.0987 4.80148C12.4117 4.80148 11.8601 5.35315 11.8601 6.04013V13.6073C11.8601 14.2943 12.4117 14.846 13.0987 14.846H25.8495C26.5365 14.846 27.0882 14.2943 27.0882 13.6073V6.04013C27.0882 5.35315 26.5365 4.80148 25.8495 4.80148H13.0987Z" fill="white"/>
<path d="M5.47157 9.95377C4.6805 9.95377 4.03516 9.30842 4.03516 8.51735C4.03516 7.72628 4.6805 7.08093 5.47157 7.08093C6.26264 7.08093 6.90799 7.71587 6.90799 8.50694C6.90799 9.30842 6.26264 9.95377 5.47157 9.95377ZM5.47157 7.872C5.11767 7.872 4.82623 8.16345 4.82623 8.51735C4.82623 8.87125 5.11767 9.1627 5.47157 9.1627C5.82547 9.1627 6.10651 8.86084 6.10651 8.50694C6.10651 8.15304 5.82547 7.872 5.47157 7.872Z" fill="white"/>
<path d="M16.7802 26.4102C15.9891 26.4102 15.3438 25.7649 15.3438 24.9738C15.3438 24.1828 15.9891 23.5374 16.7802 23.5374C17.5712 23.5374 18.2166 24.1828 18.2166 24.9738C18.2166 25.7649 17.5712 26.4102 16.7802 26.4102V26.4102ZM16.7802 24.3389C16.4263 24.3389 16.1348 24.6303 16.1348 24.9842C16.1348 25.3381 16.4263 25.6296 16.7802 25.6296C17.1341 25.6296 17.4255 25.3381 17.4255 24.9842C17.4151 24.6199 17.1341 24.3389 16.7802 24.3389Z" fill="white"/>
<path d="M24.2147 9.70416C23.1738 9.70416 22.3203 8.85063 22.3203 7.80975C22.3203 6.76887 23.1738 5.91534 24.2147 5.91534C25.2556 5.91534 26.1091 6.76887 26.1091 7.80975C26.1091 8.85063 25.2556 9.70416 24.2147 9.70416ZM24.2147 6.71682C23.611 6.71682 23.1218 7.20604 23.1218 7.80975C23.1218 8.41346 23.611 8.90268 24.2147 8.90268C24.8184 8.90268 25.3076 8.41346 25.3076 7.80975C25.3076 7.20604 24.8184 6.71682 24.2147 6.71682Z" fill="white"/>
<path d="M25.1519 22.7671H22.5289V21.9657C22.6746 21.9657 22.7266 21.9136 22.737 21.9032C22.8203 21.8199 22.8307 21.6326 22.8203 21.5701V21.5389V19.2802H22.2374C22.0917 19.2802 21.9876 19.3322 21.8939 19.4363C21.769 19.582 21.5712 19.6341 21.3839 19.5612C21.2069 19.4988 21.082 19.3218 21.082 19.124V17.2609H26.5883V19.124C26.5883 19.3114 26.4634 19.4884 26.2864 19.5612C26.0991 19.6341 25.9013 19.582 25.7764 19.4363C25.6827 19.3322 25.5682 19.2802 25.4329 19.2802H24.85V21.5701C24.85 21.643 24.8604 21.8199 24.9333 21.9032C24.9437 21.924 24.9958 21.9657 25.1415 21.9657V22.7671H25.1519ZM23.5697 21.9657H24.1006C24.0485 21.7679 24.0485 21.5909 24.059 21.5181V18.4787H25.4433C25.5682 18.4787 25.6827 18.4995 25.7972 18.5307V18.0623H21.8835V18.5307C21.998 18.4995 22.1125 18.4787 22.2374 18.4787H23.6218V21.5181C23.6218 21.5909 23.6218 21.7679 23.5697 21.9657V21.9657Z" fill="white"/>
</svg>
