<svg width="30" height="30" viewBox="0 0 30 30" fill="none" xmlns="http://www.w3.org/2000/svg">
<path d="M6.50838 12.9076C5.67768 12.9076 5 12.2299 5 11.3992C5 10.5685 5.67768 9.89087 6.50838 9.89087C7.33908 9.89087 8.01676 10.5685 8.01676 11.3992C8.02769 12.2299 7.35001 12.9076 6.50838 12.9076V12.9076ZM6.50838 10.7325C6.13675 10.7325 5.8307 11.0385 5.8307 11.4102C5.8307 11.7818 6.13675 12.0879 6.50838 12.0879C6.88001 12.0879 7.18606 11.7709 7.18606 11.3992C7.18606 11.0276 6.88001 10.7325 6.50838 10.7325V10.7325Z" fill="white"/>
<path d="M23.3873 20.3951C22.5566 20.3951 21.8789 19.7174 21.8789 18.8867C21.8789 18.056 22.5566 17.3783 23.3873 17.3783C24.218 17.3783 24.8957 18.056 24.8957 18.8867C24.8957 19.7174 24.218 20.3951 23.3873 20.3951ZM23.3873 18.209C23.0157 18.209 22.7096 18.515 22.7096 18.8867C22.7096 19.2583 23.0157 19.5644 23.3873 19.5644C23.7589 19.5644 24.065 19.2583 24.065 18.8867C24.065 18.515 23.7589 18.209 23.3873 18.209Z" fill="white"/>
<path d="M15.7211 19.477C15.4916 19.477 15.2839 19.4005 15.109 19.2475C14.7592 18.9414 14.4313 18.6573 14.1362 18.4168C13.2508 17.6626 12.4857 17.0068 11.9392 16.351C11.2943 15.564 10.9883 14.8207 10.9883 13.99C10.9883 13.1812 11.2725 12.427 11.7862 11.8695C12.3108 11.3012 13.0322 10.9842 13.8192 10.9842C14.4095 10.9842 14.956 11.17 15.426 11.5416C15.5243 11.6182 15.6227 11.7056 15.7211 11.793C15.8085 11.6947 15.9069 11.6182 16.0162 11.5307C16.4862 11.1591 17.0327 10.9733 17.623 10.9733C18.4099 10.9733 19.1313 11.2902 19.656 11.8586C20.1697 12.4161 20.4539 13.1703 20.4539 13.9791C20.4539 14.8098 20.1479 15.564 19.503 16.34C18.9565 16.9958 18.1913 17.6517 17.3169 18.3949L17.2732 18.4277C16.989 18.6682 16.672 18.9414 16.3441 19.2256C16.1583 19.4005 15.9397 19.477 15.7211 19.477V19.477ZM13.8192 11.8258C13.2727 11.8258 12.7699 12.0444 12.4092 12.4379C12.0376 12.8423 11.8408 13.3889 11.8408 13.99C11.8408 14.613 12.0813 15.1924 12.595 15.8154C13.0978 16.4165 13.8302 17.0396 14.6827 17.7719C14.9888 18.0342 15.3167 18.3184 15.6664 18.6135C15.6992 18.6463 15.7539 18.6463 15.7757 18.6135C16.1037 18.3184 16.4316 18.0452 16.7157 17.8047L16.7595 17.7719C17.612 17.0505 18.3444 16.4165 18.8472 15.8154C19.3609 15.1924 19.6013 14.613 19.6013 13.99C19.6013 13.3889 19.3937 12.8314 19.033 12.4379C18.6723 12.0444 18.1695 11.8258 17.623 11.8258C17.2185 11.8258 16.8469 11.957 16.5299 12.2084C16.355 12.3396 16.202 12.5035 16.0709 12.6893L15.732 13.1593L15.3932 12.6893C15.2511 12.5035 15.0981 12.3396 14.9341 12.2084C14.5843 11.9461 14.2236 11.8258 13.8192 11.8258V11.8258Z" fill="white"/>
<path d="M8.375 8H23.0434V8.84163H8.375V8Z" fill="white"/>
<path d="M8.375 21.8267H9.07454V22.6683H8.375V21.8267Z" fill="white"/>
<path d="M20.8838 22.6683H19.4082V21.8267H20.8838V22.6683ZM17.9326 22.6683H16.457V21.8267H17.9326V22.6683ZM14.9815 22.6683H13.5059V21.8267H14.9815V22.6683ZM12.0303 22.6683H10.5547V21.8267H12.0303V22.6683Z" fill="white"/>
<path d="M22.3594 21.8267H23.0589V22.6683H22.3594V21.8267Z" fill="white"/>
</svg>
