<svg width="30" height="30" viewBox="0 0 30 30" fill="none" xmlns="http://www.w3.org/2000/svg">
<path d="M23.0762 22.1461H7.35166C6.05298 22.1461 5 21.0932 5 19.7945V10.458C5 9.15936 6.05298 8.10638 7.35166 8.10638H23.0762C24.3748 8.10638 25.4278 9.15936 25.4278 10.458V19.7857C25.4278 21.0844 24.3748 22.1461 23.0762 22.1461ZM7.35166 8.78205C6.42152 8.78205 5.66689 9.53668 5.66689 10.4668V19.7945C5.66689 20.7246 6.42152 21.4792 7.35166 21.4792H23.0762C24.0063 21.4792 24.7609 20.7246 24.7609 19.7945V10.458C24.7609 9.52791 24.0063 8.77327 23.0762 8.77327H7.35166V8.78205Z" fill="white"/>
<path d="M20.6189 19.8558H9.8083C8.71144 19.8558 7.81641 18.9607 7.81641 17.8639V12.3884C7.81641 11.2915 8.71144 10.3965 9.8083 10.3965H20.6189C21.3911 10.3965 22.1018 10.8528 22.4265 11.5548C22.5494 11.818 22.6108 12.1076 22.6108 12.3971V17.8727C22.6108 18.9607 21.7158 19.8558 20.6189 19.8558V19.8558ZM9.8083 11.0634C9.07998 11.0634 8.49207 11.6513 8.49207 12.3796V17.8551C8.49207 18.5834 9.07998 19.1801 9.8083 19.1801H20.6189C21.3472 19.1801 21.9439 18.5834 21.9439 17.8551V12.3796C21.9439 12.1866 21.9 11.9935 21.8211 11.8268C21.6017 11.3617 21.1366 11.0634 20.6189 11.0634H9.8083Z" fill="white"/>
<path d="M10.9258 14.5821C10.2589 14.5821 9.71484 14.0381 9.71484 13.3712C9.71484 12.7043 10.2589 12.1603 10.9258 12.1603C11.5927 12.1603 12.1367 12.7043 12.1367 13.3712C12.1367 14.0381 11.5927 14.5821 10.9258 14.5821ZM10.9258 12.8359C10.6274 12.8359 10.3817 13.0816 10.3817 13.38C10.3817 13.6783 10.6274 13.924 10.9258 13.924C11.2241 13.924 11.4698 13.6783 11.4698 13.38C11.4698 13.0729 11.2241 12.8359 10.9258 12.8359Z" fill="white"/>
<path d="M19.9023 18.5923C19.2354 18.5923 18.6914 18.0482 18.6914 17.3813C18.6914 16.7145 19.2354 16.1704 19.9023 16.1704C20.5692 16.1704 21.1133 16.7145 21.1133 17.3813C21.1133 18.0482 20.5692 18.5923 19.9023 18.5923ZM19.9023 16.8461C19.604 16.8461 19.3583 17.0918 19.3583 17.3901C19.3583 17.6885 19.604 17.9342 19.9023 17.9342C20.2007 17.9342 20.4464 17.6885 20.4464 17.3901C20.4376 17.083 20.1919 16.8461 19.9023 16.8461Z" fill="white"/>
<path d="M18.1445 7.42186C17.4776 7.42186 16.9336 6.87782 16.9336 6.21093C16.9336 5.54404 17.4776 5 18.1445 5C18.8114 5 19.3554 5.54404 19.3554 6.21093C19.3554 6.87782 18.8114 7.42186 18.1445 7.42186ZM18.1445 5.66689C17.8462 5.66689 17.6005 5.91258 17.6005 6.21093C17.6005 6.50927 17.8462 6.75497 18.1445 6.75497C18.4429 6.75497 18.6886 6.50927 18.6886 6.21093C18.6886 5.91258 18.4429 5.66689 18.1445 5.66689Z" fill="white"/>
<path d="M8.14843 25.6033C7.48154 25.6033 6.9375 25.0593 6.9375 24.3924C6.9375 23.7255 7.48154 23.1815 8.14843 23.1815C8.81532 23.1815 9.35936 23.7255 9.35936 24.3924C9.35936 25.0593 8.81532 25.6033 8.14843 25.6033ZM8.14843 23.8483C7.85008 23.8483 7.60439 24.094 7.60439 24.3924C7.60439 24.6907 7.85008 24.9364 8.14843 24.9364C8.44677 24.9364 8.69247 24.6907 8.69247 24.3924C8.69247 24.094 8.44677 23.8483 8.14843 23.8483Z" fill="white"/>
</svg>
