<svg width="30" height="30" viewBox="0 0 30 30" fill="none" xmlns="http://www.w3.org/2000/svg">
<path d="M22.7135 6.61222C22.4539 6.6101 22.2008 6.53068 21.9866 6.3841C21.7723 6.23751 21.6066 6.03042 21.5106 5.78924C21.4146 5.54806 21.3926 5.28374 21.4475 5.03001C21.5024 4.77629 21.6316 4.54467 21.8187 4.36471C22.0058 4.18476 22.2422 4.06464 22.4979 4.01968C22.7536 3.97472 23.0168 4.00696 23.2541 4.11229C23.4914 4.21762 23.6919 4.39125 23.83 4.61104C23.9681 4.83082 24.0377 5.08678 24.0297 5.34625C24.0167 5.68655 23.8723 6.00856 23.6268 6.24464C23.3814 6.48071 23.054 6.61247 22.7135 6.61222V6.61222ZM22.7135 4.72331C22.5982 4.72331 22.4855 4.75749 22.3897 4.82152C22.2939 4.88555 22.2192 4.97657 22.1751 5.08305C22.131 5.18953 22.1194 5.3067 22.1419 5.41975C22.1644 5.53279 22.2199 5.63662 22.3014 5.71812C22.3829 5.79962 22.4867 5.85512 22.5998 5.87761C22.7128 5.90009 22.83 5.88855 22.9365 5.84445C23.043 5.80034 23.134 5.72565 23.198 5.62982C23.262 5.53398 23.2962 5.42131 23.2962 5.30606C23.286 5.15857 23.2202 5.02047 23.1119 4.91974C23.0037 4.819 22.8613 4.76315 22.7135 4.7635V4.72331Z" fill="white"/>
<path d="M7.29835 25.2601C7.04001 25.2601 6.78748 25.1835 6.57268 25.04C6.35789 24.8964 6.19047 24.6924 6.09161 24.4538C5.99275 24.2151 5.96689 23.9525 6.01729 23.6991C6.06768 23.4457 6.19208 23.213 6.37475 23.0303C6.55742 22.8477 6.79016 22.7233 7.04353 22.6729C7.2969 22.6225 7.55953 22.6483 7.7982 22.7472C8.03687 22.8461 8.24086 23.0135 8.38438 23.2283C8.52791 23.4431 8.60451 23.6956 8.60451 23.9539C8.60451 24.3003 8.4669 24.6326 8.22194 24.8775C7.97699 25.1225 7.64476 25.2601 7.29835 25.2601ZM7.29835 23.3712C7.18309 23.3712 7.07042 23.4054 6.97459 23.4694C6.87876 23.5334 6.80407 23.6244 6.75996 23.7309C6.71585 23.8374 6.70431 23.9546 6.7268 24.0676C6.74928 24.1807 6.80478 24.2845 6.88628 24.366C6.96778 24.4475 7.07162 24.503 7.18466 24.5255C7.2977 24.548 7.41487 24.5364 7.52136 24.4923C7.62784 24.4482 7.71885 24.3735 7.78289 24.2777C7.84692 24.1819 7.8811 24.0692 7.8811 23.9539C7.8811 23.7994 7.8197 23.6511 7.71041 23.5419C7.60113 23.4326 7.4529 23.3712 7.29835 23.3712Z" fill="white"/>
<path d="M21.4022 21.5123H8.63201C7.79077 21.5097 6.98474 21.1743 6.38989 20.5795C5.79504 19.9846 5.45968 19.1786 5.45703 18.3374V10.9626C5.45968 10.1213 5.79504 9.3153 6.38989 8.72045C6.98474 8.1256 7.79077 7.79025 8.63201 7.7876H21.4022C22.2452 7.78759 23.0538 8.12178 23.6509 8.71691C24.2479 9.31205 24.5846 10.1196 24.5873 10.9626V18.3374C24.5846 19.1803 24.2479 19.9879 23.6509 20.583C23.0538 21.1782 22.2452 21.5123 21.4022 21.5123V21.5123ZM8.63201 8.46077C7.9693 8.46342 7.3345 8.72785 6.86589 9.19646C6.39728 9.66506 6.13285 10.2999 6.13021 10.9626V18.3374C6.13285 19.0001 6.39728 19.6349 6.86589 20.1035C7.3345 20.5721 7.9693 20.8365 8.63201 20.8392H21.4022C21.7308 20.8392 22.0561 20.7745 22.3596 20.6487C22.6632 20.523 22.939 20.3387 23.1713 20.1064C23.4036 19.8741 23.5879 19.5983 23.7136 19.2948C23.8393 18.9912 23.904 18.6659 23.904 18.3374V10.9626C23.904 10.634 23.8393 10.3087 23.7136 10.0052C23.5879 9.70164 23.4036 9.42585 23.1713 9.19353C22.939 8.96122 22.6632 8.77694 22.3596 8.65121C22.0561 8.52548 21.7308 8.46077 21.4022 8.46077H8.63201Z" fill="white"/>
<path d="M13.2341 10.9627H8.01953V12.2086H13.2341V10.9627Z" fill="white"/>
<path d="M17.6148 15.3332L8.01953 15.3634V14.1175L17.6148 14.0873V15.3332Z" fill="white"/>
<path d="M13.0543 19.4629C13.3151 19.4629 13.5265 19.2515 13.5265 18.9907C13.5265 18.7299 13.3151 18.5184 13.0543 18.5184C12.7935 18.5184 12.582 18.7299 12.582 18.9907C12.582 19.2515 12.7935 19.4629 13.0543 19.4629Z" fill="white"/>
<path d="M15.023 19.4629C15.2838 19.4629 15.4952 19.2515 15.4952 18.9907C15.4952 18.7299 15.2838 18.5184 15.023 18.5184C14.7622 18.5184 14.5508 18.7299 14.5508 18.9907C14.5508 19.2515 14.7622 19.4629 15.023 19.4629Z" fill="white"/>
<path d="M16.9957 19.4629C17.2565 19.4629 17.4679 19.2515 17.4679 18.9907C17.4679 18.7299 17.2565 18.5184 16.9957 18.5184C16.7349 18.5184 16.5234 18.7299 16.5234 18.9907C16.5234 19.2515 16.7349 19.4629 16.9957 19.4629Z" fill="white"/>
<path d="M27.9022 14.5899L26.0333 12.6909C26.0138 12.6709 25.9903 12.6552 25.9643 12.6449C25.9384 12.6345 25.9106 12.6296 25.8826 12.6306C25.8306 12.6356 25.7814 12.6567 25.742 12.6909C25.7045 12.7302 25.6836 12.7823 25.6836 12.8366C25.6836 12.8909 25.7045 12.943 25.742 12.9823L27.5003 14.7406L25.742 16.4888C25.7085 16.53 25.6903 16.5814 25.6903 16.6345C25.6903 16.6876 25.7085 16.739 25.742 16.7802C25.7615 16.8002 25.785 16.8158 25.811 16.8262C25.8369 16.8366 25.8647 16.8415 25.8927 16.8405C25.9457 16.8397 25.9962 16.8181 26.0333 16.7802L27.9323 14.8812C27.9702 14.8441 27.9918 14.7936 27.9926 14.7406V14.7406C27.9899 14.7102 27.9804 14.6809 27.9647 14.6548C27.9491 14.6287 27.9277 14.6065 27.9022 14.5899V14.5899Z" fill="white"/>
<path d="M4.25074 12.6907C4.21003 12.6601 4.16098 12.6425 4.11008 12.6404C4.08215 12.6395 4.05432 12.6443 4.02836 12.6547C4.00241 12.6651 3.97891 12.6808 3.95937 12.7007L2.06041 14.5896C2.04043 14.6092 2.02475 14.6327 2.01437 14.6586C2.00399 14.6846 1.99914 14.7124 2.00012 14.7404V14.7404C2.00088 14.7934 2.02255 14.8439 2.06041 14.881L3.92922 16.78C3.96633 16.8178 4.01688 16.8395 4.06989 16.8403C4.09782 16.8412 4.12565 16.8364 4.1516 16.826C4.17755 16.8156 4.20105 16.7999 4.2206 16.78C4.25405 16.7388 4.27231 16.6873 4.27231 16.6343C4.27231 16.5812 4.25405 16.5298 4.2206 16.4886L2.49245 14.7404L4.25074 12.9821C4.28821 12.9428 4.30911 12.8906 4.30911 12.8364C4.30911 12.7821 4.28821 12.7299 4.25074 12.6907V12.6907Z" fill="white"/>
</svg>
