<svg width="30" height="30" viewBox="0 0 30 30" fill="none" xmlns="http://www.w3.org/2000/svg">
<path d="M20.6283 20.2864C20.314 20.2864 20.0067 20.3796 19.7454 20.5542C19.484 20.7288 19.2803 20.9771 19.16 21.2675C19.0398 21.5579 19.0083 21.8774 19.0696 22.1857C19.1309 22.494 19.2823 22.7772 19.5045 22.9994C19.7268 23.2217 20.01 23.3731 20.3183 23.4344C20.6266 23.4957 20.9461 23.4642 21.2365 23.3439C21.5269 23.2236 21.7751 23.0199 21.9498 22.7586C22.1244 22.4972 22.2176 22.19 22.2176 21.8756C22.2171 21.4543 22.0496 21.0503 21.7516 20.7524C21.4537 20.4544 21.0497 20.2868 20.6283 20.2864ZM20.6283 22.6703C20.4712 22.6703 20.3175 22.6237 20.1869 22.5364C20.0562 22.449 19.9543 22.3249 19.8942 22.1797C19.834 22.0345 19.8183 21.8748 19.849 21.7206C19.8796 21.5665 19.9553 21.4249 20.0664 21.3138C20.1776 21.2026 20.3192 21.1269 20.4733 21.0963C20.6274 21.0656 20.7872 21.0814 20.9324 21.1415C21.0776 21.2016 21.2017 21.3035 21.289 21.4342C21.3764 21.5648 21.423 21.7185 21.423 21.8756C21.4227 22.0863 21.3389 22.2883 21.19 22.4373C21.041 22.5862 20.839 22.67 20.6283 22.6703Z" fill="white"/>
<path d="M7.12052 16.3132C7.43484 16.3132 7.74211 16.22 8.00347 16.0453C8.26482 15.8707 8.46852 15.6225 8.58881 15.3321C8.7091 15.0417 8.74057 14.7221 8.67925 14.4139C8.61792 14.1056 8.46656 13.8224 8.2443 13.6001C8.02203 13.3779 7.73885 13.2265 7.43057 13.1652C7.12228 13.1039 6.80273 13.1353 6.51233 13.2556C6.22193 13.3759 5.97372 13.5796 5.79909 13.841C5.62446 14.1023 5.53125 14.4096 5.53125 14.7239C5.5317 15.1453 5.69928 15.5492 5.99723 15.8472C6.29518 16.1451 6.69915 16.3127 7.12052 16.3132ZM7.12052 13.9293C7.27768 13.9293 7.43131 13.9759 7.56199 14.0632C7.69267 14.1505 7.79452 14.2746 7.85466 14.4198C7.91481 14.565 7.93054 14.7248 7.89988 14.8789C7.86922 15.0331 7.79354 15.1747 7.68241 15.2858C7.57128 15.3969 7.42969 15.4726 7.27554 15.5033C7.1214 15.5339 6.96162 15.5182 6.81642 15.4581C6.67122 15.3979 6.54712 15.2961 6.4598 15.1654C6.37249 15.0347 6.32588 14.8811 6.32588 14.7239C6.32612 14.5132 6.40992 14.3113 6.55889 14.1623C6.70786 14.0133 6.90984 13.9295 7.12052 13.9293Z" fill="white"/>
<path d="M7.12052 27.0407C7.43484 27.0407 7.74211 26.9475 8.00347 26.7729C8.26482 26.5982 8.46852 26.35 8.58881 26.0596C8.7091 25.7692 8.74057 25.4497 8.67925 25.1414C8.61792 24.8331 8.46656 24.5499 8.2443 24.3277C8.02203 24.1054 7.73885 23.954 7.43057 23.8927C7.12228 23.8314 6.80273 23.8629 6.51233 23.9832C6.22193 24.1034 5.97372 24.3071 5.79909 24.5685C5.62446 24.8299 5.53125 25.1371 5.53125 25.4515C5.5317 25.8728 5.69928 26.2768 5.99723 26.5747C6.29518 26.8727 6.69915 27.0403 7.12052 27.0407ZM7.12052 24.6568C7.27768 24.6568 7.43131 24.7034 7.56199 24.7907C7.69267 24.8781 7.79452 25.0022 7.85466 25.1474C7.91481 25.2926 7.93054 25.4523 7.89988 25.6065C7.86922 25.7606 7.79354 25.9022 7.68241 26.0133C7.57128 26.1245 7.42969 26.2002 7.27554 26.2308C7.1214 26.2615 6.96162 26.2457 6.81642 26.1856C6.67122 26.1255 6.54712 26.0236 6.4598 25.8929C6.37249 25.7622 6.32588 25.6086 6.32588 25.4515C6.32612 25.2408 6.40992 25.0388 6.55889 24.8898C6.70786 24.7409 6.90984 24.6571 7.12052 24.6568Z" fill="white"/>
<path d="M24.7827 5.2888L20.8095 3.24557C20.7489 3.21445 20.6814 3.19942 20.6133 3.20193C20.5453 3.20443 20.479 3.22439 20.4208 3.25987C20.3627 3.29536 20.3147 3.34518 20.2813 3.40458C20.248 3.46397 20.2305 3.53093 20.2304 3.59904V9.95611H17.8465C17.7944 9.95609 17.7427 9.96636 17.6945 9.98632C17.6463 10.0063 17.6025 10.0356 17.5656 10.0724C17.5287 10.1093 17.4994 10.1532 17.4794 10.2014C17.4595 10.2496 17.4492 10.3012 17.4492 10.3534V11.9427C17.4492 11.9949 17.4595 12.0465 17.4794 12.0948C17.4994 12.143 17.5287 12.1868 17.5656 12.2237C17.6025 12.2606 17.6463 12.2898 17.6945 12.3098C17.7427 12.3298 17.7944 12.34 17.8465 12.34H23.409C23.4611 12.34 23.5128 12.3298 23.561 12.3098C23.6092 12.2898 23.653 12.2606 23.6899 12.2237C23.7268 12.1868 23.7561 12.143 23.7761 12.0948C23.796 12.0465 23.8063 11.9949 23.8063 11.9427V10.3534C23.8063 10.3012 23.796 10.2496 23.7761 10.2014C23.7561 10.1532 23.7268 10.1093 23.6899 10.0724C23.653 10.0356 23.6092 10.0063 23.561 9.98632C23.5128 9.96636 23.4611 9.95609 23.409 9.95611H21.0251V7.44732L24.7439 6.01282C24.8154 5.98525 24.8774 5.93759 24.9224 5.87559C24.9675 5.81359 24.9936 5.73989 24.9977 5.66337C25.0018 5.58685 24.9837 5.51078 24.9455 5.44432C24.9074 5.37787 24.8508 5.32386 24.7827 5.2888ZM23.0117 10.7507V11.5454H18.2439V10.7507H23.0117ZM21.0251 6.5956V4.25011L23.6313 5.59028L21.0251 6.5956Z" fill="white"/>
<path d="M20.2307 24.2595C20.2305 24.4702 20.1467 24.6722 19.9977 24.8211C19.8487 24.9701 19.6468 25.0539 19.4361 25.0541H9.23828V25.8488H19.4361C19.8574 25.8483 20.2614 25.6807 20.5594 25.3828C20.8573 25.0848 21.0249 24.6809 21.0253 24.2595V23.8622H20.2307V24.2595Z" fill="white"/>
<path d="M20.2314 19.4918V19.8891H21.0261V19.4918C21.0256 19.0704 20.858 18.6665 20.5601 18.3685C20.2621 18.0706 19.8581 17.903 19.4368 17.9025H8.31192C8.10125 17.9023 7.89927 17.8185 7.7503 17.6695C7.60133 17.5205 7.51753 17.3186 7.51729 17.1079V16.7106H6.72266V17.1079C6.72311 17.5292 6.89069 17.9332 7.18864 18.2312C7.48659 18.5291 7.89056 18.6967 8.31192 18.6972H19.4368C19.6475 18.6974 19.8494 18.7812 19.9984 18.9302C20.1474 19.0791 20.2312 19.2811 20.2314 19.4918Z" fill="white"/>
<path d="M16.6556 10.7507H8.31192C7.89056 10.7512 7.48659 10.9188 7.18864 11.2167C6.89069 11.5147 6.72311 11.9186 6.72266 12.34V12.7373H7.51729V12.34C7.51753 12.1293 7.60133 11.9273 7.7503 11.7784C7.89927 11.6294 8.10125 11.5456 8.31192 11.5454H16.6556V10.7507Z" fill="white"/>
<path d="M27 3C26.4493 3 26 2.55072 26 2C26 1.44928 26.4493 1 27 1C27.5507 1 28 1.44928 28 2C28 2.55072 27.5507 3 27 3ZM27 1.55072C26.7536 1.55072 26.5507 1.75362 26.5507 2C26.5507 2.24638 26.7536 2.44928 27 2.44928C27.2464 2.44928 27.4493 2.24638 27.4493 2C27.4493 1.75362 27.2464 1.55072 27 1.55072Z" fill="white"/>
<path d="M3 29C2.44927 29 2 28.5507 2 28C2 27.4493 2.44927 27 3 27C3.55072 27 4 27.4493 4 28C4 28.5507 3.55072 29 3 29ZM3 27.5507C2.75362 27.5507 2.55072 27.7536 2.55072 28C2.55072 28.2464 2.75362 28.4493 3 28.4493C3.24638 28.4493 3.44928 28.2464 3.44928 28C3.44928 27.7536 3.24638 27.5507 3 27.5507Z" fill="white"/>
</svg>
