<svg width="30" height="30" viewBox="0 0 30 30" fill="none" xmlns="http://www.w3.org/2000/svg">
<path d="M5.14758 21.9974C4.51685 21.9974 4 21.4806 4 20.8498C4 20.2191 4.51685 19.7023 5.14758 19.7023C5.77831 19.7023 6.29516 20.2191 6.29516 20.8498C6.29516 21.4806 5.77831 21.9974 5.14758 21.9974ZM5.14758 20.333C4.86725 20.333 4.63949 20.5608 4.63949 20.8411C4.63949 21.1214 4.86725 21.3492 5.14758 21.3492C5.4279 21.3492 5.65567 21.1214 5.65567 20.8411C5.65567 20.5608 5.4279 20.333 5.14758 20.333Z" fill="white"/>
<path d="M20.4952 9.29516C19.8645 9.29516 19.3477 8.77831 19.3477 8.14758C19.3477 7.51685 19.8645 7 20.4952 7C21.126 7 21.6428 7.51685 21.6428 8.14758C21.6428 8.77831 21.126 9.29516 20.4952 9.29516V9.29516ZM20.4952 7.63949C20.2149 7.63949 19.9871 7.86725 19.9871 8.14758C19.9871 8.4279 20.2149 8.65567 20.4952 8.65567C20.7756 8.65567 21.0033 8.4279 21.0033 8.14758C21.0033 7.86725 20.7756 7.63949 20.4952 7.63949Z" fill="white"/>
<path d="M24.3751 23.3287H9.48289C8.25647 23.3287 7.25781 22.33 7.25781 21.1036V12.2646C7.25781 11.0382 8.25647 10.0396 9.48289 10.0396H24.3751C25.6015 10.0396 26.6002 11.0382 26.6002 12.2646V21.0948C26.6002 22.33 25.6015 23.3287 24.3751 23.3287V23.3287ZM9.48289 10.6703C8.60687 10.6703 7.88854 11.3886 7.88854 12.2646V21.0948C7.88854 21.9709 8.60687 22.6892 9.48289 22.6892H24.3751C25.2511 22.6892 25.9695 21.9709 25.9695 21.0948V12.2646C25.9695 11.3886 25.2511 10.6703 24.3751 10.6703H9.48289Z" fill="white"/>
<path d="M22.0459 21.1651H11.8053C10.7628 21.1651 9.92188 20.3154 9.92188 19.2729V14.0869C9.92188 13.0445 10.7716 12.2035 11.8053 12.2035H22.0459C22.7818 12.2035 23.4563 12.6327 23.7629 13.2985C23.8768 13.5438 23.9381 13.8154 23.9381 14.0957V19.2817C23.9381 20.3154 23.0884 21.1651 22.0459 21.1651ZM11.8053 12.8342C11.1133 12.8342 10.5526 13.3949 10.5526 14.0869V19.2729C10.5526 19.965 11.1133 20.5256 11.8053 20.5256H22.0459C22.738 20.5256 23.2986 19.965 23.2986 19.2729V14.0869C23.2986 13.903 23.2548 13.7278 23.1847 13.5613C22.9832 13.1233 22.5365 12.8342 22.0459 12.8342H11.8053Z" fill="white"/>
<path d="M22.042 21.1649H11.8014C10.7589 21.1649 9.91797 20.3152 9.91797 19.2728V18.7209L13.9301 15.83L15.6646 17.7397L23.6101 12.9655L23.759 13.2808C23.8729 13.5261 23.9342 13.8064 23.9342 14.078V19.264C23.9342 20.3152 23.0845 21.1649 22.042 21.1649V21.1649ZM10.5575 19.0538V19.2728C10.5575 19.9648 11.1181 20.5255 11.8102 20.5255H22.042C22.7341 20.5255 23.2947 19.9648 23.2947 19.2728V14.0868C23.2947 14.0254 23.2947 13.9641 23.2859 13.9115L15.5507 18.5632L13.8513 16.6885L10.5575 19.0538Z" fill="white"/>
<path d="M16.0929 16.1717C15.4622 16.1717 14.9453 15.6549 14.9453 15.0242C14.9453 14.3934 15.4622 13.8766 16.0929 13.8766C16.7236 13.8766 17.2405 14.3934 17.2405 15.0242C17.2405 15.6549 16.7236 16.1717 16.0929 16.1717V16.1717ZM16.0929 14.5161C15.8126 14.5161 15.5848 14.7438 15.5848 15.0242C15.5848 15.3045 15.8126 15.5323 16.0929 15.5323C16.3732 15.5323 16.601 15.3045 16.601 15.0242C16.601 14.7438 16.3732 14.5161 16.0929 14.5161Z" fill="white"/>
</svg>
