<svg width="30" height="30" viewBox="0 0 30 30" fill="none" xmlns="http://www.w3.org/2000/svg">
<path d="M16.7399 14.8548C17.3624 14.8548 17.8688 14.3697 17.8688 13.7733C17.8688 13.177 17.3624 12.692 16.7399 12.692C16.1174 12.692 15.611 13.177 15.611 13.7733C15.611 13.8352 15.6165 13.8958 15.627 13.9549L14.7313 14.4291C14.4925 14.1562 14.1342 13.9824 13.7343 13.9824C13.0171 13.9824 12.4336 14.5414 12.4336 15.2284C12.4336 15.9154 13.0171 16.4743 13.7343 16.4743C14.1342 16.4743 14.4925 16.3006 14.7313 16.0277L15.6269 16.5019C15.6165 16.561 15.611 16.6216 15.611 16.6834C15.611 17.2797 16.1174 17.7648 16.7399 17.7648C17.3624 17.7648 17.8688 17.2797 17.8688 16.6834C17.8688 16.0871 17.3624 15.602 16.7399 15.602C16.4409 15.602 16.1687 15.714 15.9665 15.8963L15.0231 15.3968C15.0309 15.3417 15.035 15.2855 15.035 15.2284C15.035 15.1712 15.0309 15.115 15.0231 15.0599L15.9665 14.5604C16.1687 14.7428 16.441 14.8548 16.7399 14.8548V14.8548ZM16.7399 16.2894C16.9667 16.2894 17.1512 16.4662 17.1512 16.6834C17.1512 16.9007 16.9667 17.0775 16.7399 17.0775C16.5131 17.0775 16.3286 16.9007 16.3286 16.6834C16.3286 16.4662 16.5131 16.2894 16.7399 16.2894ZM13.7343 15.787C13.4128 15.787 13.1512 15.5364 13.1512 15.2284C13.1512 14.9204 13.4128 14.6698 13.7343 14.6698C14.0558 14.6698 14.3174 14.9204 14.3174 15.2284C14.3174 15.5364 14.0558 15.787 13.7343 15.787ZM16.7399 13.3793C16.9667 13.3793 17.1512 13.5561 17.1512 13.7733C17.1512 13.9906 16.9667 14.1674 16.7399 14.1674C16.5131 14.1674 16.3286 13.9906 16.3286 13.7733C16.3286 13.5561 16.5131 13.3793 16.7399 13.3793Z" fill="white"/>
<path d="M17.8772 10.3387C17.9155 10.3574 17.9575 10.3672 18.0001 10.3673C18.0647 10.367 18.1274 10.3449 18.1778 10.3045C18.2282 10.2641 18.2635 10.2078 18.2778 10.1448C18.2921 10.0818 18.2847 10.0157 18.2567 9.95751C18.2287 9.89926 18.1818 9.85222 18.1236 9.82406C17.3807 9.46757 16.5744 9.26206 15.7514 9.21941C14.9285 9.17676 14.1052 9.29783 13.3294 9.57559C13.2582 9.60131 13.2001 9.6542 13.1679 9.72267C13.1356 9.79114 13.1318 9.8696 13.1574 9.94085C13.1829 10.0121 13.2356 10.0703 13.3039 10.1028C13.3723 10.1352 13.4508 10.1393 13.5221 10.114C14.2269 9.86166 14.9747 9.7517 15.7223 9.79047C16.4698 9.82924 17.2023 10.016 17.8772 10.3398V10.3387Z" fill="white"/>
<path d="M20.9883 17.7707C21.0595 17.7963 21.1381 17.7927 21.2066 17.7605C21.2752 17.7284 21.3282 17.6703 21.354 17.5991C21.6317 16.8233 21.7528 16.0001 21.7102 15.1771C21.6675 14.3542 21.462 13.5479 21.1055 12.8049C21.07 12.7416 21.0116 12.6942 20.9424 12.6723C20.8732 12.6504 20.7982 12.6557 20.7327 12.687C20.6673 12.7184 20.6161 12.7735 20.5898 12.8412C20.5635 12.9088 20.5638 12.984 20.5909 13.0514C20.9147 13.7262 21.1015 14.4587 21.1402 15.2063C21.179 15.9538 21.0691 16.7017 20.8167 17.4064C20.7915 17.4775 20.7954 17.5556 20.8275 17.6239C20.8597 17.6921 20.9174 17.7449 20.9883 17.7707Z" fill="white"/>
<path d="M16.7833 21.0496C15.89 21.2735 14.9553 21.2735 14.062 21.0496C14.0255 21.0406 13.9876 21.0388 13.9505 21.0444C13.9134 21.05 13.8777 21.0628 13.8455 21.0822C13.8133 21.1016 13.7853 21.1271 13.763 21.1573C13.7406 21.1876 13.7245 21.2219 13.7155 21.2583C13.7064 21.2948 13.7046 21.3327 13.7102 21.3698C13.7158 21.407 13.7287 21.4427 13.748 21.4748C13.7674 21.507 13.793 21.5351 13.8232 21.5574C13.8534 21.5797 13.8877 21.5958 13.9242 21.6049C14.9079 21.8519 15.9374 21.8519 16.9211 21.6049C16.9576 21.5958 16.9919 21.5797 17.0221 21.5574C17.0524 21.5351 17.0779 21.507 17.0973 21.4748C17.1167 21.4427 17.1295 21.407 17.1351 21.3698C17.1407 21.3327 17.1389 21.2948 17.1299 21.2583C17.1208 21.2219 17.1047 21.1876 17.0824 21.1573C17.06 21.1271 17.032 21.1016 16.9998 21.0822C16.9676 21.0628 16.932 21.05 16.8948 21.0444C16.8577 21.0388 16.8198 21.0406 16.7833 21.0496V21.0496Z" fill="white"/>
<path d="M9.66831 13.7928C9.63185 13.7837 9.59396 13.7819 9.55681 13.7875C9.51966 13.7931 9.48397 13.8059 9.45179 13.8253C9.41961 13.8447 9.39156 13.8702 9.36925 13.9004C9.34694 13.9307 9.33081 13.965 9.32178 14.0015C8.97059 15.407 9.12232 16.8911 9.75065 18.1964C9.77387 18.245 9.81034 18.2861 9.85586 18.3149C9.90139 18.3437 9.95412 18.359 10.008 18.3591C10.0505 18.359 10.0924 18.3492 10.1306 18.3305C10.1991 18.2979 10.2517 18.2394 10.277 18.1679C10.3023 18.0964 10.2982 18.0178 10.2656 17.9494C9.69467 16.7638 9.55719 15.4157 9.87703 14.1393C9.8861 14.1028 9.88789 14.0649 9.8823 14.0278C9.87672 13.9906 9.86387 13.9549 9.84449 13.9228C9.8251 13.8906 9.79956 13.8625 9.76934 13.8402C9.73911 13.8179 9.70478 13.8018 9.66831 13.7928Z" fill="white"/>
<path d="M11.1364 13.2129C11.5154 13.2124 11.8788 13.0617 12.1468 12.7937C12.4148 12.5257 12.5655 12.1623 12.566 11.7833V8.92415C12.5655 8.54514 12.4148 8.18178 12.1468 7.91378C11.8788 7.64578 11.5154 7.49502 11.1364 7.49457H8.27724C7.89823 7.49502 7.53487 7.64578 7.26687 7.91378C6.99887 8.18178 6.84811 8.54514 6.84766 8.92415V10.3603C6.84766 10.4361 6.87778 10.5089 6.9314 10.5625C6.98502 10.6161 7.05774 10.6462 7.13357 10.6462C7.2094 10.6462 7.28213 10.6161 7.33575 10.5625C7.38937 10.5089 7.41949 10.4361 7.41949 10.3603V8.92415C7.41949 8.69666 7.50986 8.47849 7.67072 8.31763C7.83158 8.15677 8.04975 8.0664 8.27724 8.0664H11.1364C11.3639 8.0664 11.5821 8.15677 11.7429 8.31763C11.9038 8.47849 11.9941 8.69666 11.9941 8.92415V11.7833C11.9941 12.0108 11.9038 12.229 11.7429 12.3898C11.5821 12.5507 11.3639 12.6411 11.1364 12.6411H8.27724C8.04975 12.6411 7.83158 12.5507 7.67072 12.3898C7.50986 12.229 7.41949 12.0108 7.41949 11.7833V11.4974C7.41949 11.4216 7.38937 11.3488 7.33575 11.2952C7.28213 11.2416 7.2094 11.2115 7.13357 11.2115C7.05774 11.2115 6.98502 11.2416 6.9314 11.2952C6.87778 11.3488 6.84766 11.4216 6.84766 11.4974V11.7833C6.84811 12.1623 6.99887 12.5257 7.26687 12.7937C7.53487 13.0617 7.89823 13.2124 8.27724 13.2129H11.1364Z" fill="white"/>
<path d="M9.99284 9.20995H10.5647C10.6405 9.20995 10.7132 9.17983 10.7668 9.12621C10.8205 9.07259 10.8506 8.99987 10.8506 8.92404C10.8506 8.84821 10.8205 8.77549 10.7668 8.72187C10.7132 8.66825 10.6405 8.63812 10.5647 8.63812H9.99284C9.76535 8.63812 9.54718 8.72849 9.38632 8.88935C9.22546 9.05021 9.13509 9.26838 9.13509 9.49587V10.0677H8.56326C8.48743 10.0677 8.41471 10.0978 8.36109 10.1514C8.30747 10.2051 8.27734 10.2778 8.27734 10.3536C8.27734 10.4294 8.30747 10.5022 8.36109 10.5558C8.41471 10.6094 8.48743 10.6395 8.56326 10.6395H9.13509V11.7832C9.13509 11.859 9.16522 11.9318 9.21883 11.9854C9.27245 12.039 9.34518 12.0691 9.42101 12.0691C9.49684 12.0691 9.56956 12.039 9.62318 11.9854C9.6768 11.9318 9.70692 11.859 9.70692 11.7832V10.6395H10.2788C10.3546 10.6395 10.4273 10.6094 10.4809 10.5558C10.5345 10.5022 10.5647 10.4294 10.5647 10.3536C10.5647 10.2778 10.5345 10.2051 10.4809 10.1514C10.4273 10.0978 10.3546 10.0677 10.2788 10.0677H9.70692V9.49587C9.70692 9.42004 9.73705 9.34732 9.79067 9.2937C9.84429 9.24008 9.91701 9.20995 9.99284 9.20995V9.20995Z" fill="white"/>
<path d="M9.70703 20.3606V21.5043C9.70703 21.5801 9.73715 21.6528 9.79077 21.7065C9.84439 21.7601 9.91712 21.7902 9.99295 21.7902C10.0688 21.7902 10.1415 21.7601 10.1951 21.7065C10.2487 21.6528 10.2789 21.5801 10.2789 21.5043V20.3606C10.2789 20.2848 10.2487 20.2121 10.1951 20.1584C10.1415 20.1048 10.0688 20.0747 9.99295 20.0747C9.91712 20.0747 9.84439 20.1048 9.79077 20.1584C9.73715 20.2121 9.70703 20.2848 9.70703 20.3606Z" fill="white"/>
<path d="M11.1336 20.0747C11.0577 20.0747 10.985 20.1048 10.9314 20.1584C10.8778 20.2121 10.8477 20.2848 10.8477 20.3606V21.5043C10.8477 21.5801 10.8778 21.6528 10.9314 21.7065C10.985 21.7601 11.0577 21.7902 11.1336 21.7902C11.2094 21.7902 11.2821 21.7601 11.3357 21.7065C11.3894 21.6528 11.4195 21.5801 11.4195 21.5043V20.3606C11.4195 20.2848 11.3894 20.2121 11.3357 20.1584C11.2821 20.1048 11.2094 20.0747 11.1336 20.0747Z" fill="white"/>
<path d="M11.995 18.9312H9.13585C8.83253 18.9312 8.54164 19.0516 8.32716 19.2661C8.11268 19.4806 7.99219 19.7715 7.99219 20.0748V21.7903C7.99219 22.0936 8.11268 22.3845 8.32716 22.599C8.54164 22.8135 8.83253 22.934 9.13585 22.934V23.7917C9.13589 23.846 9.1514 23.8992 9.18056 23.9451C9.20973 23.9909 9.25134 24.0274 9.30054 24.0505C9.33843 24.0684 9.37984 24.0777 9.42177 24.0776C9.48868 24.0776 9.55348 24.0542 9.60504 24.0116L10.9774 22.8679C11.0357 22.8194 11.0724 22.7496 11.0793 22.674C11.0862 22.5985 11.0627 22.5232 11.0142 22.4649C10.9656 22.4066 10.8959 22.37 10.8203 22.3631C10.7447 22.3562 10.6695 22.3796 10.6112 22.4282L9.70768 23.1813V22.6481C9.70768 22.5722 9.67756 22.4995 9.62394 22.4459C9.57032 22.3923 9.4976 22.3621 9.42177 22.3621H9.13585C8.98419 22.3621 8.83874 22.3019 8.73151 22.1947C8.62427 22.0874 8.56402 21.942 8.56402 21.7903V20.0748C8.56402 19.9232 8.62427 19.7777 8.73151 19.6705C8.83874 19.5632 8.98419 19.503 9.13585 19.503H11.995C12.1467 19.503 12.2921 19.5632 12.3994 19.6705C12.5066 19.7777 12.5668 19.9232 12.5668 20.0748V21.7903C12.5668 21.942 12.5066 22.0874 12.3994 22.1947C12.2921 22.3019 12.1467 22.3621 11.995 22.3621C11.9192 22.3621 11.8465 22.3923 11.7928 22.4459C11.7392 22.4995 11.7091 22.5722 11.7091 22.6481C11.7091 22.7239 11.7392 22.7966 11.7928 22.8502C11.8465 22.9039 11.9192 22.934 11.995 22.934C12.2983 22.934 12.5892 22.8135 12.8037 22.599C13.0182 22.3845 13.1387 22.0936 13.1387 21.7903V20.0748C13.1387 19.7715 13.0182 19.4806 12.8037 19.2661C12.5892 19.0516 12.2983 18.9312 11.995 18.9312Z" fill="white"/>
<path d="M20.86 22.9341H21.4319C21.5077 22.9341 21.5804 22.904 21.634 22.8504C21.6877 22.7967 21.7178 22.724 21.7178 22.6482C21.7178 22.5724 21.6877 22.4996 21.634 22.446C21.5804 22.3924 21.5077 22.3623 21.4319 22.3623H20.86C20.7842 22.3623 20.7115 22.3322 20.6579 22.2785C20.6042 22.2249 20.5741 22.1522 20.5741 22.0764V21.5045H21.1459C21.2218 21.5045 21.2945 21.4744 21.3481 21.4208C21.4017 21.3672 21.4319 21.2944 21.4319 21.2186C21.4319 21.1428 21.4017 21.0701 21.3481 21.0164C21.2945 20.9628 21.2218 20.9327 21.1459 20.9327H20.5741V19.789C20.5741 19.7132 20.544 19.6405 20.4904 19.5869C20.4367 19.5332 20.364 19.5031 20.2882 19.5031C20.2124 19.5031 20.1396 19.5332 20.086 19.5869C20.0324 19.6405 20.0023 19.7132 20.0023 19.789V20.9327H19.4304C19.3546 20.9327 19.2819 20.9628 19.2283 21.0164C19.1747 21.0701 19.1445 21.1428 19.1445 21.2186C19.1445 21.2944 19.1747 21.3672 19.2283 21.4208C19.2819 21.4744 19.3546 21.5045 19.4304 21.5045H20.0023V22.0764C20.0023 22.3038 20.0926 22.522 20.2535 22.6829C20.4144 22.8437 20.6325 22.9341 20.86 22.9341Z" fill="white"/>
<path d="M22.0036 18.3592H19.1444C18.7654 18.3596 18.4021 18.5104 18.1341 18.7784C17.8661 19.0464 17.7153 19.4098 17.7148 19.7888V22.6479C17.7153 23.0269 17.8661 23.3903 18.1341 23.6583C18.4021 23.9263 18.7654 24.0771 19.1444 24.0775H22.0036C22.3826 24.0771 22.7459 23.9263 23.0139 23.6583C23.2819 23.3903 23.4327 23.0269 23.4332 22.6479V22.362C23.4332 22.2862 23.403 22.2135 23.3494 22.1598C23.2958 22.1062 23.2231 22.0761 23.1472 22.0761C23.0714 22.0761 22.9987 22.1062 22.9451 22.1598C22.8915 22.2135 22.8613 22.2862 22.8613 22.362V22.6479C22.8613 22.8754 22.771 23.0936 22.6101 23.2545C22.4492 23.4153 22.2311 23.5057 22.0036 23.5057H19.1444C18.9169 23.5057 18.6988 23.4153 18.5379 23.2545C18.377 23.0936 18.2867 22.8754 18.2867 22.6479V19.7888C18.2867 19.5613 18.377 19.3431 18.5379 19.1823C18.6988 19.0214 18.9169 18.931 19.1444 18.931H22.0036C22.2311 18.931 22.4492 19.0214 22.6101 19.1823C22.771 19.3431 22.8613 19.5613 22.8613 19.7888V21.2249C22.8613 21.3008 22.8915 21.3735 22.9451 21.4271C22.9987 21.4807 23.0714 21.5108 23.1472 21.5108C23.2231 21.5108 23.2958 21.4807 23.3494 21.4271C23.403 21.3735 23.4332 21.3008 23.4332 21.2249V19.7888C23.4327 19.4098 23.2819 19.0464 23.0139 18.7784C22.7459 18.5104 22.3826 18.3596 22.0036 18.3592V18.3592Z" fill="white"/>
<path d="M22.5764 9.49597C22.5764 9.44284 22.5616 9.39075 22.5337 9.34555C22.5058 9.30035 22.4658 9.26383 22.4183 9.24008L20.7028 8.38233C20.6592 8.36054 20.6107 8.35026 20.562 8.35247C20.5134 8.35467 20.466 8.36929 20.4246 8.39493C20.3831 8.42057 20.3489 8.45638 20.3252 8.49896C20.3015 8.54154 20.289 8.58948 20.2891 8.63822V10.3537C20.289 10.4025 20.3015 10.4504 20.3252 10.493C20.3489 10.5356 20.3831 10.5714 20.4246 10.597C20.466 10.6227 20.5134 10.6373 20.562 10.6395C20.6107 10.6417 20.6592 10.6314 20.7028 10.6096L22.4183 9.75187C22.4658 9.72812 22.5058 9.69159 22.5337 9.64639C22.5616 9.60119 22.5764 9.5491 22.5764 9.49597ZM20.8609 9.89111V9.10083L21.6512 9.49597L20.8609 9.89111Z" fill="white"/>
<path d="M22.5763 6.92261H20.289C19.9099 6.92306 19.5466 7.07382 19.2786 7.34182C19.0106 7.60982 18.8598 7.97318 18.8594 8.35219V10.6395C18.8598 11.0185 19.0106 11.3819 19.2786 11.6499C19.5466 11.9179 19.9099 12.0686 20.289 12.0691H21.4326C21.5084 12.0691 21.5812 12.039 21.6348 11.9854C21.6884 11.9317 21.7185 11.859 21.7185 11.7832C21.7185 11.7073 21.6884 11.6346 21.6348 11.581C21.5812 11.5274 21.5084 11.4973 21.4326 11.4973H20.289C20.0615 11.4973 19.8433 11.4069 19.6824 11.246C19.5216 11.0852 19.4312 10.867 19.4312 10.6395V8.35219C19.4312 8.1247 19.5216 7.90653 19.6824 7.74567C19.8433 7.58481 20.0615 7.49444 20.289 7.49444H22.5763C22.8038 7.49444 23.0219 7.58481 23.1828 7.74567C23.3437 7.90653 23.434 8.1247 23.434 8.35219V10.6395C23.434 10.867 23.3437 11.0852 23.1828 11.246C23.0219 11.4069 22.8038 11.4973 22.5763 11.4973C22.5005 11.4973 22.4277 11.5274 22.3741 11.581C22.3205 11.6346 22.2904 11.7073 22.2904 11.7832C22.2904 11.859 22.3205 11.9317 22.3741 11.9854C22.4277 12.039 22.5005 12.0691 22.5763 12.0691C22.9553 12.0686 23.3186 11.9179 23.5866 11.6499C23.8546 11.3819 24.0054 11.0185 24.0059 10.6395V8.35219C24.0054 7.97318 23.8546 7.60982 23.5866 7.34182C23.3186 7.07382 22.9553 6.92306 22.5763 6.92261V6.92261Z" fill="white"/>
<path d="M21.2713 5.60419C20.5023 5.60419 19.875 4.97685 19.875 4.20786C19.875 3.43886 20.5023 2.81152 21.2713 2.81152C22.0403 2.81152 22.6677 3.43886 22.6677 4.20786C22.6677 4.97685 22.0403 5.60419 21.2713 5.60419ZM21.2713 3.58052C20.9273 3.58052 20.644 3.86383 20.644 4.20786C20.644 4.55188 20.9273 4.8352 21.2713 4.8352C21.6154 4.8352 21.8987 4.55188 21.8987 4.20786C21.8987 3.86383 21.6154 3.58052 21.2713 3.58052Z" fill="white"/>
<path d="M10.9742 28.1883C10.3151 28.1883 9.77734 27.6506 9.77734 26.9915C9.77734 26.3323 10.3151 25.7946 10.9742 25.7946C11.6333 25.7946 12.1711 26.3323 12.1711 26.9915C12.1711 27.6506 11.6333 28.1883 10.9742 28.1883ZM10.9742 26.4538C10.6793 26.4538 10.4365 26.6966 10.4365 26.9915C10.4365 27.2864 10.6793 27.5292 10.9742 27.5292C11.2691 27.5292 11.5119 27.2864 11.5119 26.9915C11.5119 26.6966 11.2691 26.4538 10.9742 26.4538Z" fill="white"/>
</svg>
