<svg width="30" height="30" viewBox="0 0 30 30" fill="none" xmlns="http://www.w3.org/2000/svg">
<path d="M4.38789 8.00711C3.62355 8.00711 3 7.38356 3 6.61921C3 5.85487 3.62355 5.23132 4.38789 5.23132C5.15224 5.23132 5.77578 5.85487 5.77578 6.61921C5.77578 7.38356 5.15224 8.00711 4.38789 8.00711ZM4.38789 5.99567C4.04595 5.99567 3.76435 6.27727 3.76435 6.61921C3.76435 6.96116 4.04595 7.2327 4.38789 7.2327C4.72984 7.2327 5.01144 6.9511 5.01144 6.60916C5.01144 6.26721 4.72984 5.99567 4.38789 5.99567Z" fill="white"/>
<path d="M25.0246 20.4076C24.2603 20.4076 23.6367 19.7841 23.6367 19.0197C23.6367 18.2554 24.2603 17.6318 25.0246 17.6318C25.789 17.6318 26.4125 18.2554 26.4125 19.0197C26.4125 19.7841 25.789 20.4076 25.0246 20.4076ZM25.0246 18.3962C24.6827 18.3962 24.4011 18.6778 24.4011 19.0197C24.4011 19.3617 24.6827 19.6433 25.0246 19.6433C25.3666 19.6433 25.6482 19.3617 25.6482 19.0197C25.6482 18.6778 25.3666 18.3962 25.0246 18.3962Z" fill="white"/>
<path d="M6.94531 6.34766V9.72688L7.71972 9.65648V7.05167L20.8946 5.8448V23.6259L7.71972 22.419V18.4263L6.94531 18.3559V23.123L21.669 24.4707V5L6.94531 6.34766Z" fill="white"/>
<path d="M11.2134 19.1306L3.44922 18.4165V9.65669L11.2134 8.94263V19.1306ZM4.21356 17.7125L10.439 18.2858V9.78743L4.21356 10.3607V17.7125Z" fill="white"/>
</svg>
