<svg width="30" height="30" viewBox="0 0 30 30" fill="none" xmlns="http://www.w3.org/2000/svg">
<path d="M17.75 23.1028C17.9261 23.1419 18.112 23.1713 18.3371 23.1713H17.8283C17.7989 23.1517 17.7696 23.1224 17.75 23.1028V23.1028Z" fill="white"/>
<path d="M20.5391 14.2583C20.7543 14.3268 20.95 14.4344 21.1065 14.542C21.0478 14.6203 20.9206 14.6399 20.8424 14.5518C20.7641 14.4638 20.6663 14.3561 20.5391 14.2583V14.2583Z" fill="white"/>
<path d="M13.8272 21.3124C13.8272 21.3124 13.9054 22.1441 13.4945 22.7996C13.4064 22.9366 13.2988 23.0638 13.1618 23.1714H11.2539C13.3282 23.1714 13.1325 20.9308 13.1325 20.9308V14.1504H13.5043H13.8272V21.3124Z" fill="white"/>
<path d="M21.1452 10.4813V10.8629H9.13999V14.1895C8.97366 14.3069 8.84646 14.4439 8.73884 14.5613C8.641 14.669 8.44531 14.6005 8.44531 14.4439V10.4813H21.1452Z" fill="white"/>
<path d="M21.1068 14.5419C20.9502 14.4245 20.7545 14.3266 20.5393 14.2581C20.324 14.1896 20.0892 14.1505 19.8055 14.1505H19.238C19.8935 14.1896 20.3142 14.5223 20.5589 14.806C20.7056 14.9821 20.9404 15.0311 21.1557 14.9528C21.2535 14.9137 21.3318 14.855 21.3905 14.7865C21.3122 14.6984 21.2242 14.6201 21.1068 14.5419V14.5419ZM17.7508 23.103C17.7801 23.1324 17.7997 23.152 17.8291 23.1715H13.162C13.299 23.0639 13.4066 22.9269 13.4947 22.7997H12.9859C13.5632 22.0757 13.524 21.0777 13.5142 20.9212V14.1505H12.7511V20.9701C12.7511 20.9799 12.8196 21.8702 12.3401 22.3986C12.0857 22.6725 11.7335 22.7997 11.2541 22.7997V23.5531H18.3378V22.7997C17.9073 22.7997 17.5845 22.6921 17.3399 22.4768C17.4181 22.6921 17.5551 22.9171 17.7508 23.103V23.103ZM8.07422 10.1096V14.444C8.07422 14.6691 8.2112 14.8745 8.42645 14.9528C8.6417 15.0311 8.87652 14.9724 9.02329 14.806C9.06242 14.7669 9.10156 14.718 9.1407 14.6788V13.7396C9.02329 13.808 8.91566 13.8863 8.81782 13.9646V10.8532H20.7741V10.863H21.5275V10.1096H8.07422Z" fill="white"/>
<path d="M12.751 14.1407L11.1757 14.1505C10.2952 14.1505 9.73746 14.5908 9.43415 14.9431C9.33631 15.0605 9.14062 14.9822 9.14062 14.8256V14.6789C9.41458 14.4147 9.84509 14.1407 10.4811 14.1407H12.751Z" fill="white"/>
<path d="M18.3383 23.4454C18.534 23.5139 18.7688 23.5432 19.033 23.5432H11.9492C12.0079 23.5432 12.0568 23.5432 12.1058 23.5334C12.5656 23.5041 12.9081 23.3671 13.1527 23.1616H17.8197C17.9665 23.2888 18.1328 23.3769 18.3383 23.4454V23.4454Z" fill="white"/>
<path d="M17.3376 22.4669C17.3082 22.4375 17.2789 22.418 17.2593 22.3886C16.7701 21.8603 16.8484 20.9699 16.8484 20.9601V14.1307H19.1183C19.1672 14.1307 19.2063 14.1307 19.2553 14.1405C18.0616 14.1405 17.1712 14.1405 17.1712 14.1405V21.3026C17.1614 21.3123 17.1125 21.8994 17.3376 22.4669V22.4669Z" fill="white"/>
<path d="M19.0332 23.9248H11.9494V23.1714C12.4288 23.1714 12.7811 23.0344 13.0354 22.7703C13.5247 22.2419 13.4562 21.3516 13.4464 21.3418V21.3124V14.5222H11.1764C10.4426 14.5222 9.98277 14.8842 9.7186 15.1875C9.57184 15.3636 9.33701 15.4223 9.12176 15.3343C8.90651 15.256 8.76953 15.0505 8.76953 14.8255V10.4813H22.2228V14.8157C22.2228 15.0408 22.0858 15.2462 21.8706 15.3245C21.6553 15.4028 21.4205 15.3441 21.2737 15.1777C21.0096 14.8744 20.5497 14.5124 19.8159 14.5124H17.546V21.332C17.546 21.3418 17.4775 22.2321 17.9569 22.7605C18.2113 23.0344 18.5635 23.1616 19.0429 23.1616V23.9248H19.0332ZM13.6812 23.1714H17.3111C16.7339 22.4474 16.773 21.4494 16.7926 21.2929V13.7688H19.8159C20.5497 13.7688 21.0976 14.033 21.4792 14.3363V11.2347H9.52291V14.3363C9.9045 14.033 10.4426 13.7688 11.1862 13.7688H14.2095V21.2929C14.2095 21.4494 14.2585 22.4474 13.6812 23.1714V23.1714Z" fill="white"/>
<path d="M9.13928 8.70044C8.39568 8.70044 7.78906 8.09382 7.78906 7.35022C7.78906 6.60662 8.39568 6 9.13928 6C9.88288 6 10.4895 6.60662 10.4895 7.35022C10.4895 8.09382 9.88288 8.70044 9.13928 8.70044V8.70044ZM9.13928 6.7436C8.80662 6.7436 8.54245 7.01756 8.54245 7.35022C8.54245 7.68288 8.8164 7.95684 9.14907 7.95684C9.48173 7.95684 9.75569 7.68288 9.75569 7.35022C9.75569 7.01756 9.47194 6.7436 9.13928 6.7436V6.7436Z" fill="white"/>
<path d="M21.6744 20.3832C20.9308 20.3832 20.3242 19.7766 20.3242 19.033C20.3242 18.2894 20.9308 17.6827 21.6744 17.6827C22.418 17.6827 23.0247 18.2894 23.0247 19.033C23.0247 19.7766 22.418 20.3832 21.6744 20.3832ZM21.6744 18.4263C21.3418 18.4263 21.0678 18.7003 21.0678 19.033C21.0678 19.3656 21.3418 19.6396 21.6744 19.6396C22.0071 19.6396 22.2811 19.3656 22.2811 19.033C22.2811 18.7003 22.0071 18.4263 21.6744 18.4263Z" fill="white"/>
<path d="M6 14.3362H9.74735V15.7451H6V14.3362Z" fill="white"/>
<path d="M11.4219 18.2991H15.1692V19.708H11.4219V18.2991Z" fill="white"/>
<path d="M8.44531 22.5156H12.1927V23.9246H8.44531V22.5156Z" fill="white"/>
<path d="M17.8477 7.85938H21.595V9.2683H17.8477V7.85938Z" fill="white"/>
<path d="M18.1055 21.8114H21.8528V23.2203H18.1055V21.8114Z" fill="white"/>
</svg>
