<svg width="30" height="30" viewBox="0 0 30 30" fill="none" xmlns="http://www.w3.org/2000/svg">
<path d="M8.09967 9.73841C7.34562 9.73841 6.73047 9.12326 6.73047 8.3692C6.73047 7.61515 7.34562 7 8.09967 7C8.85373 7 9.46888 7.61515 9.46888 8.3692C9.46888 9.12326 8.85373 9.73841 8.09967 9.73841V9.73841ZM8.09967 7.75405C7.76233 7.75405 7.48452 8.03186 7.48452 8.3692C7.48452 8.70654 7.76233 8.98435 8.09967 8.98435C8.43701 8.98435 8.71482 8.70654 8.71482 8.3692C8.71482 8.03186 8.43701 7.75405 8.09967 7.75405V7.75405Z" fill="white"/>
<path d="M22.17 22.3688C21.4159 22.3688 20.8008 21.7536 20.8008 20.9996C20.8008 20.2455 21.4159 19.6304 22.17 19.6304C22.924 19.6304 23.5392 20.2455 23.5392 20.9996C23.5392 21.7536 22.924 22.3688 22.17 22.3688ZM22.17 20.3844C21.8326 20.3844 21.5548 20.6622 21.5548 20.9996C21.5548 21.3369 21.8326 21.6147 22.17 21.6147C22.5073 21.6147 22.7851 21.3369 22.7851 20.9996C22.7851 20.6622 22.5073 20.3844 22.17 20.3844Z" fill="white"/>
<path d="M25.6138 18.5688H3.66686C2.74413 18.5688 2 17.8147 2 16.9019V13.0423C2 12.1196 2.75405 11.3755 3.66686 11.3755H25.6039C26.5266 11.3755 27.2707 12.1295 27.2707 13.0423V16.9019C27.2807 17.8147 26.5266 18.5688 25.6138 18.5688V18.5688ZM3.66686 12.1295C3.16085 12.1295 2.75405 12.5363 2.75405 13.0423V16.9019C2.75405 17.4079 3.16085 17.8147 3.66686 17.8147H25.6039C26.1099 17.8147 26.5167 17.4079 26.5167 16.9019V13.0423C26.5167 12.5363 26.1099 12.1295 25.6039 12.1295H3.66686Z" fill="white"/>
<path d="M8.21865 17.1697C8.13928 17.1697 8.05991 17.1498 7.99045 17.1101L7.10742 16.6438L6.22438 17.1101C6.06563 17.1994 5.85727 17.1796 5.70845 17.0705C5.55962 16.9613 5.48025 16.7728 5.51001 16.5942L5.67868 15.612L4.96431 14.9174C4.83533 14.7884 4.78572 14.59 4.83533 14.4114C4.89486 14.2328 5.04369 14.1038 5.2322 14.0741L6.21446 13.9352L6.65102 13.0422C6.73039 12.8735 6.89906 12.7644 7.08757 12.7644C7.27609 12.7644 7.44476 12.8735 7.52413 13.0422L7.96069 13.9352L8.94294 14.0741C9.13146 14.1038 9.28028 14.2328 9.33981 14.4114C9.39934 14.59 9.34974 14.7884 9.21083 14.9174L8.49646 15.612L8.66513 16.5942C8.6949 16.7827 8.62545 16.9613 8.4667 17.0705C8.41709 17.13 8.31787 17.1697 8.21865 17.1697V17.1697ZM5.89696 14.7488L6.50219 15.3441L6.36328 16.1775L7.11734 15.7806L7.87139 16.1775L7.73249 15.3441L8.33772 14.7488L7.49437 14.6297L7.11734 13.8657L6.74031 14.6297L5.89696 14.7488ZM5.50009 14.3717C5.51001 14.3717 5.51001 14.3717 5.50009 14.3717V14.3717Z" fill="white"/>
<path d="M15.7499 17.1697C15.6705 17.1697 15.5912 17.1498 15.5217 17.1101L14.6387 16.6438L13.7556 17.1101C13.5969 17.1994 13.3885 17.1796 13.2397 17.0705C13.0909 16.9613 13.0115 16.7728 13.0413 16.5942L13.2099 15.612L12.4956 14.9174C12.3666 14.7884 12.317 14.59 12.3666 14.4114C12.4261 14.2328 12.5749 14.1038 12.7635 14.0741L13.7457 13.9352L14.1823 13.0422C14.2616 12.8735 14.4303 12.7644 14.6188 12.7644C14.8073 12.7644 14.976 12.8735 15.0554 13.0422L15.4919 13.9352L16.4742 14.0741C16.6627 14.1038 16.8115 14.2328 16.8711 14.4114C16.9306 14.59 16.881 14.7884 16.7421 14.9174L16.0277 15.612L16.1964 16.5942C16.2261 16.7827 16.1567 16.9613 15.9979 17.0705C15.9483 17.13 15.8491 17.1697 15.7499 17.1697V17.1697ZM13.4282 14.7488L14.0334 15.3441L13.8945 16.1775L14.6486 15.7806L15.4026 16.1775L15.2637 15.3441L15.869 14.7488L15.0256 14.6297L14.6387 13.8657L14.2616 14.6297L13.4282 14.7488Z" fill="white"/>
<path d="M23.2694 17.1699C23.1901 17.1699 23.1107 17.1501 23.0412 17.1104L22.1582 16.6441L21.2752 17.1104C21.1164 17.1997 20.9081 17.1799 20.7592 17.0707C20.6104 16.9616 20.531 16.7731 20.5608 16.5846L20.7295 15.6023L20.0151 14.9078C19.8861 14.7788 19.8365 14.5804 19.8861 14.4018C19.9456 14.2232 20.0945 14.0942 20.283 14.0644L21.2652 13.9255L21.7018 13.0326C21.7812 12.8639 21.9498 12.7548 22.1384 12.7548C22.3269 12.7548 22.4955 12.8639 22.5749 13.0326L23.0115 13.9255L23.9937 14.0644C24.1822 14.0942 24.3311 14.2232 24.3906 14.4018C24.4501 14.5804 24.4005 14.7788 24.2616 14.9078L23.5472 15.6023L23.7159 16.5846C23.7457 16.7731 23.6762 16.9517 23.5175 17.0608C23.4778 17.1303 23.3786 17.1699 23.2694 17.1699V17.1699ZM20.9477 14.749L21.553 15.3443L21.4141 16.1778L22.1681 15.7809L22.9222 16.1778L22.7833 15.3443L23.3885 14.749L22.5451 14.63L22.1681 13.866L21.7911 14.63L20.9477 14.749Z" fill="white"/>
</svg>
