<svg width="30" height="30" viewBox="0 0 30 30" fill="none" xmlns="http://www.w3.org/2000/svg">
<path d="M23.9585 23.444C23.3176 23.444 22.7852 22.9214 22.7852 22.2706C22.7852 21.6199 23.3077 21.0973 23.9585 21.0973C24.5994 21.0973 25.1318 21.6199 25.1318 22.2706C25.1318 22.9214 24.6093 23.444 23.9585 23.444ZM23.9585 21.7579C23.6726 21.7579 23.4359 21.9946 23.4359 22.2805C23.4359 22.5664 23.6726 22.8031 23.9585 22.8031C24.2444 22.8031 24.4811 22.5664 24.4811 22.2805C24.4811 21.9946 24.2444 21.7579 23.9585 21.7579Z" fill="white"/>
<path d="M6.02455 6.34668C5.2921 6.34668 4.68359 5.8241 4.68359 5.17334C4.68359 4.52258 5.28083 4 6.02455 4C6.76828 4 7.36551 4.52258 7.36551 5.17334C7.36551 5.8241 6.76828 6.34668 6.02455 6.34668V6.34668ZM6.02455 4.66062C5.69777 4.66062 5.42732 4.89726 5.42732 5.1832C5.42732 5.46914 5.69777 5.70578 6.02455 5.70578C6.35134 5.70578 6.62179 5.46914 6.62179 5.1832C6.62179 4.89726 6.36261 4.66062 6.02455 4.66062Z" fill="white"/>
<path d="M20.0956 21.0972H4.35406C3.05421 21.0972 2 20.0401 2 18.7368V9.37745C2 8.07412 3.05421 7.01709 4.35406 7.01709H20.0956C21.3954 7.01709 22.4496 8.07412 22.4496 9.37745V18.7368C22.4496 20.0401 21.3954 21.0972 20.0956 21.0972ZM4.35406 7.69441C3.42267 7.69441 2.67551 8.45383 2.67551 9.37745V18.7368C2.67551 19.6707 3.43291 20.4199 4.35406 20.4199H20.0956C21.027 20.4199 21.7741 19.6604 21.7741 18.7368V9.37745C21.7741 8.44357 21.0167 7.69441 20.0956 7.69441H4.35406Z" fill="white"/>
<path d="M17.7364 18.7505H6.71658C5.60104 18.7505 4.68359 17.8686 4.68359 16.7738V11.3405C4.68359 10.2558 5.59062 9.36377 6.71658 9.36377H17.7364C18.5288 9.36377 19.2481 9.80979 19.5817 10.5092C19.7068 10.7627 19.7694 11.0566 19.7694 11.3405V16.7738C19.7694 17.8686 18.8519 18.7505 17.7364 18.7505ZM6.71658 10.0328C5.97636 10.0328 5.37168 10.6207 5.37168 11.3405V16.7738C5.37168 17.4935 5.97636 18.0815 6.71658 18.0815H17.7364C18.4766 18.0815 19.0813 17.4935 19.0813 16.7738V11.3405C19.0813 11.1479 19.0396 10.9654 18.9562 10.7931C18.7373 10.3268 18.2577 10.0328 17.7364 10.0328H6.71658Z" fill="white"/>
<path d="M17.6118 18.867H6.8126C5.71939 18.867 4.82031 17.9781 4.82031 16.8747V16.2923L9.0603 13.2477L10.8891 15.2604L19.2669 10.2235L19.4202 10.5607C19.5428 10.8161 19.6041 11.1124 19.6041 11.3984V16.8747C19.6041 17.9781 18.705 18.867 17.6118 18.867V18.867ZM5.49462 16.6397V16.8747C5.49462 17.6001 6.0872 18.1926 6.8126 18.1926H17.6118C18.3372 18.1926 18.9298 17.6001 18.9298 16.8747V11.3984C18.9298 11.3371 18.9298 11.2758 18.9196 11.2145L10.7563 16.1186L8.95813 14.1468L5.49462 16.6397Z" fill="white"/>
<path d="M11.3408 13.5951C10.6767 13.5951 10.125 13.0536 10.125 12.3793C10.125 11.7152 10.6665 11.1635 11.3408 11.1635C12.0049 11.1635 12.5566 11.7049 12.5566 12.3793C12.5464 13.0536 12.0049 13.5951 11.3408 13.5951ZM11.3408 11.848C11.0445 11.848 10.7993 12.0932 10.7993 12.3895C10.7993 12.6858 11.0445 12.931 11.3408 12.931C11.6371 12.931 11.8823 12.6858 11.8823 12.3895C11.8823 12.0932 11.6371 11.848 11.3408 11.848Z" fill="white"/>
<path d="M25 8.50684H25.6743V19.306H25V8.50684Z" fill="white"/>
<path d="M26.9434 10.6015L25.3496 8.48661L23.8579 10.5913L23.3164 10.203L25.3291 7.35254L27.4849 10.1928L26.9434 10.6015Z" fill="white"/>
<path d="M6.90234 23.7302H17.7015V24.4045H6.90234V23.7302Z" fill="white"/>
<path d="M16.0102 26.213L15.6016 25.6715L17.7164 24.0777L15.6118 22.586L16 22.0343L18.8505 24.0572L16.0102 26.213Z" fill="white"/>
</svg>
