<svg width="30" height="30" viewBox="0 0 30 30" fill="none" xmlns="http://www.w3.org/2000/svg">
<path d="M25.4798 5.35022C25.3463 5.35022 25.2157 5.31063 25.1047 5.23644C24.9937 5.16226 24.9072 5.05682 24.8561 4.93346C24.805 4.8101 24.7916 4.67436 24.8177 4.5434C24.8437 4.41244 24.908 4.29215 25.0024 4.19774C25.0968 4.10332 25.2171 4.03902 25.3481 4.01297C25.479 3.98692 25.6148 4.00029 25.7382 4.05139C25.8615 4.10249 25.9669 4.18902 26.0411 4.30004C26.1153 4.41106 26.1549 4.54159 26.1549 4.67511C26.1549 4.85416 26.0838 5.02588 25.9572 5.15249C25.8306 5.27909 25.6588 5.35022 25.4798 5.35022V5.35022ZM25.4798 4.37436C25.4203 4.37436 25.3622 4.392 25.3127 4.42505C25.2633 4.45809 25.2247 4.50506 25.2019 4.56002C25.1792 4.61497 25.1732 4.67544 25.1848 4.73378C25.1964 4.79212 25.2251 4.84571 25.2671 4.88777C25.3092 4.92983 25.3628 4.95848 25.4211 4.97008C25.4795 4.98169 25.5399 4.97573 25.5949 4.95297C25.6498 4.9302 25.6968 4.89166 25.7299 4.8422C25.7629 4.79274 25.7805 4.73459 25.7805 4.67511C25.7805 4.59535 25.7489 4.51885 25.6925 4.46245C25.6361 4.40605 25.5596 4.37436 25.4798 4.37436V4.37436Z" fill="white"/>
<path d="M2.97582 9.94135C2.90788 9.94175 2.84133 9.92206 2.78453 9.88478C2.72774 9.84749 2.68321 9.79426 2.65656 9.73176C2.6299 9.66926 2.6223 9.60028 2.6347 9.53348C2.6471 9.46668 2.67896 9.40503 2.72627 9.35626C2.77359 9.3075 2.83425 9.27379 2.90065 9.25938C2.96704 9.24496 3.03622 9.25048 3.0995 9.27524C3.16277 9.29999 3.21732 9.34288 3.25631 9.39853C3.29529 9.45418 3.31698 9.5201 3.31864 9.58802C3.32004 9.63392 3.31222 9.67963 3.29562 9.72244C3.27903 9.76526 3.254 9.8043 3.22202 9.83726C3.19005 9.87021 3.15178 9.89641 3.10949 9.91429C3.06719 9.93217 3.02174 9.94137 2.97582 9.94135V9.94135ZM2.97582 9.44291C2.94546 9.44291 2.91577 9.45191 2.89053 9.46878C2.86528 9.48565 2.8456 9.50963 2.83398 9.53768C2.82236 9.56574 2.81932 9.59661 2.82524 9.62639C2.83117 9.65617 2.84579 9.68353 2.86726 9.705C2.88873 9.72647 2.91609 9.74109 2.94587 9.74702C2.97565 9.75294 3.00652 9.7499 3.03458 9.73828C3.06263 9.72666 3.08661 9.70698 3.10348 9.68173C3.12035 9.65649 3.12935 9.6268 3.12935 9.59644C3.12935 9.55572 3.11318 9.51667 3.08438 9.48787C3.05559 9.45908 3.01654 9.44291 2.97582 9.44291V9.44291Z" fill="white"/>
<path d="M3.29975 26.1336C3.04268 26.1336 2.79139 26.0574 2.57765 25.9146C2.3639 25.7717 2.19731 25.5688 2.09894 25.3313C2.00056 25.0938 1.97482 24.8324 2.02497 24.5803C2.07513 24.3282 2.19891 24.0966 2.38069 23.9148C2.56246 23.733 2.79405 23.6092 3.04618 23.5591C3.2983 23.5089 3.55964 23.5347 3.79714 23.6331C4.03463 23.7314 4.23763 23.898 4.38044 24.1118C4.52326 24.3255 4.59949 24.5768 4.59949 24.8339C4.59949 25.1786 4.46255 25.5092 4.2188 25.7529C3.97506 25.9967 3.64446 26.1336 3.29975 26.1336V26.1336ZM3.29975 24.2555C3.18536 24.2555 3.07354 24.2894 2.97842 24.353C2.88331 24.4165 2.80918 24.5069 2.76541 24.6125C2.72163 24.7182 2.71018 24.8345 2.73249 24.9467C2.75481 25.0589 2.80989 25.1619 2.89078 25.2428C2.97167 25.3237 3.07472 25.3788 3.18691 25.4011C3.2991 25.4234 3.41539 25.412 3.52108 25.3682C3.62676 25.3244 3.71709 25.2503 3.78064 25.1552C3.84419 25.0601 3.87811 24.9483 3.87811 24.8339C3.87756 24.6806 3.81644 24.5339 3.7081 24.4255C3.59976 24.3172 3.45297 24.2561 3.29975 24.2555V24.2555Z" fill="white"/>
<path d="M3.84387 17.2078L2.11928 15.662C2.08777 15.6339 2.06234 15.5998 2.04453 15.5615C2.02672 15.5233 2.01693 15.4818 2.01575 15.4397C2.01456 15.3975 2.02202 15.3555 2.03766 15.3164C2.05329 15.2772 2.07678 15.2417 2.10666 15.2119L3.84387 13.4537C3.87262 13.4246 3.90684 13.4015 3.94457 13.3858C3.98229 13.37 4.02277 13.3619 4.06364 13.3619C4.10452 13.3619 4.145 13.37 4.18272 13.3858C4.22044 13.4015 4.25467 13.4246 4.28342 13.4537C4.3416 13.512 4.37427 13.591 4.37427 13.6734C4.37427 13.7558 4.3416 13.8349 4.28342 13.8932L3.00471 15.1867C2.97482 15.2164 2.95134 15.252 2.9357 15.2911C2.92006 15.3303 2.91261 15.3723 2.91379 15.4144C2.91497 15.4566 2.92477 15.498 2.94257 15.5363C2.96038 15.5745 2.98582 15.6087 3.01733 15.6367L4.25819 16.7388C4.28871 16.766 4.31358 16.7989 4.33137 16.8357C4.34916 16.8726 4.35952 16.9125 4.36186 16.9533C4.36421 16.9942 4.35849 17.035 4.34503 17.0736C4.33157 17.1122 4.31063 17.1478 4.28342 17.1783V17.1783C4.22877 17.2401 4.15198 17.2778 4.06969 17.2833C3.98741 17.2888 3.90627 17.2617 3.84387 17.2078Z" fill="white"/>
<path d="M26.9502 17.2077L28.6748 15.6619C28.7061 15.6339 28.7315 15.5997 28.7493 15.5616C28.7671 15.5235 28.777 15.4821 28.7784 15.44C28.7798 15.398 28.7726 15.356 28.7573 15.3168C28.742 15.2776 28.719 15.2419 28.6895 15.2118L26.9502 13.4536C26.9216 13.4246 26.8876 13.4016 26.85 13.3859C26.8125 13.3702 26.7722 13.3621 26.7315 13.3621C26.6907 13.3621 26.6504 13.3702 26.6129 13.3859C26.5753 13.4016 26.5413 13.4246 26.5127 13.4536V13.4536C26.4545 13.512 26.4219 13.591 26.4219 13.6734C26.4219 13.7558 26.4545 13.8348 26.5127 13.8932L27.7935 15.1866C27.823 15.2167 27.8461 15.2524 27.8614 15.2916C27.8767 15.3308 27.8839 15.3727 27.8825 15.4148C27.8811 15.4569 27.8712 15.4982 27.8534 15.5364C27.8356 15.5745 27.8102 15.6086 27.7788 15.6367L26.5295 16.7387C26.4989 16.7659 26.474 16.7989 26.4562 16.8358C26.4385 16.8727 26.4282 16.9128 26.4261 16.9537C26.4239 16.9946 26.4299 17.0355 26.4437 17.074C26.4575 17.1126 26.4788 17.148 26.5064 17.1783V17.1783C26.5334 17.2097 26.5663 17.2355 26.6034 17.254C26.6404 17.2726 26.6808 17.2835 26.7221 17.2863C26.7634 17.289 26.8049 17.2835 26.8441 17.27C26.8832 17.2565 26.9193 17.2353 26.9502 17.2077V17.2077Z" fill="white"/>
<path d="M22.7249 8.14319H8.54971C7.62048 8.14319 6.86719 8.89648 6.86719 9.82571V24.0724C6.86719 25.0017 7.62048 25.7549 8.54971 25.7549H22.7249C23.6542 25.7549 24.4074 25.0017 24.4074 24.0724V9.82571C24.4074 8.89648 23.6542 8.14319 22.7249 8.14319Z" stroke="white" stroke-miterlimit="10" stroke-linecap="round"/>
<path d="M19.4471 19.9208H11.3185C11.1512 19.9208 11.0156 20.0564 11.0156 20.2236C11.0156 20.3909 11.1512 20.5265 11.3185 20.5265H19.4471C19.6144 20.5265 19.75 20.3909 19.75 20.2236C19.75 20.0564 19.6144 19.9208 19.4471 19.9208Z" fill="white"/>
<path d="M21.3103 21.2185H9.4591C9.29184 21.2185 9.15625 21.3541 9.15625 21.5214C9.15625 21.6886 9.29184 21.8242 9.4591 21.8242H21.3103C21.4776 21.8242 21.6132 21.6886 21.6132 21.5214C21.6132 21.3541 21.4776 21.2185 21.3103 21.2185Z" fill="white"/>
<path d="M15.3851 14.2717C15.2216 14.2717 15.0617 14.2232 14.9257 14.1323C14.7897 14.0414 14.6838 13.9122 14.6213 13.761C14.5588 13.6099 14.5426 13.4436 14.5746 13.2832C14.6067 13.1228 14.6856 12.9755 14.8014 12.86C14.9172 12.7445 15.0647 12.6659 15.2252 12.6343C15.3856 12.6026 15.5519 12.6193 15.7029 12.6822C15.8539 12.7451 15.9828 12.8513 16.0734 12.9875C16.164 13.1237 16.2121 13.2837 16.2117 13.4473C16.2111 13.6661 16.1238 13.8758 15.9688 14.0304C15.8139 14.1849 15.604 14.2717 15.3851 14.2717V14.2717ZM15.3851 13.0792C15.3123 13.0792 15.2412 13.1008 15.1807 13.1413C15.1201 13.1817 15.073 13.2392 15.0451 13.3064C15.0172 13.3737 15.0099 13.4477 15.0241 13.5191C15.0383 13.5905 15.0734 13.6561 15.1249 13.7075C15.1764 13.759 15.2419 13.7941 15.3133 13.8083C15.3847 13.8225 15.4587 13.8152 15.526 13.7873C15.5932 13.7595 15.6507 13.7123 15.6912 13.6518C15.7316 13.5912 15.7532 13.5201 15.7532 13.4473C15.7532 13.3497 15.7144 13.2561 15.6454 13.187C15.5764 13.118 15.4827 13.0792 15.3851 13.0792Z" fill="white"/>
<path d="M17.1206 17.3887H13.6441C13.2536 17.3887 12.8792 17.2336 12.6031 16.9575C12.327 16.6814 12.1719 16.3069 12.1719 15.9165V12.4358C12.1719 12.0453 12.327 11.6709 12.6031 11.3948C12.8792 11.1187 13.2536 10.9636 13.6441 10.9636H17.1206C17.511 10.9636 17.8855 11.1187 18.1616 11.3948C18.4377 11.6709 18.5928 12.0453 18.5928 12.4358V15.9102C18.5936 16.104 18.5562 16.2961 18.4825 16.4755C18.4089 16.6548 18.3006 16.8179 18.1638 16.9553C18.027 17.0926 17.8645 17.2016 17.6854 17.276C17.5064 17.3504 17.3144 17.3887 17.1206 17.3887V17.3887ZM13.6441 11.4199C13.3747 11.4199 13.1163 11.527 12.9258 11.7175C12.7353 11.908 12.6283 12.1664 12.6283 12.4358V15.9102C12.6283 16.18 12.7351 16.4388 12.9255 16.63C13.1159 16.8211 13.3743 16.9291 13.6441 16.9302H17.1206C17.3907 16.9296 17.6497 16.8219 17.8405 16.6307C18.0313 16.4395 18.1385 16.1803 18.1385 15.9102V12.4358C18.1379 12.1662 18.0305 11.9078 17.8396 11.7173C17.6488 11.5269 17.3902 11.4199 17.1206 11.4199H13.6441Z" fill="white"/>
<path d="M17.1206 17.3886H13.6441C13.2536 17.3886 12.8792 17.2335 12.6031 16.9574C12.327 16.6814 12.1719 16.3069 12.1719 15.9164V15.5379L14.4096 14.276L15.0532 15.214L18.597 13.0372V15.9101C18.5978 16.1043 18.5602 16.2968 18.4863 16.4764C18.4125 16.6561 18.3038 16.8193 18.1665 16.9567C18.0293 17.0941 17.8662 17.2031 17.6867 17.2772C17.5072 17.3513 17.3148 17.3892 17.1206 17.3886V17.3886ZM12.6283 15.805V15.9101C12.6283 16.1799 12.7351 16.4387 12.9255 16.6299C13.1159 16.8211 13.3743 16.929 13.6441 16.9302H17.1206C17.3907 16.9296 17.6497 16.8219 17.8405 16.6307C18.0313 16.4394 18.1385 16.1803 18.1385 15.9101V13.8554L14.9186 15.826L14.2687 14.8754L12.6283 15.805Z" fill="white"/>
</svg>
