<svg width="30" height="30" viewBox="0 0 30 30" fill="none" xmlns="http://www.w3.org/2000/svg">
<path d="M6.38889 22.873C5.62399 22.873 5 22.1598 5 21.2857C5 20.4115 5.62399 19.6984 6.38889 19.6984C7.15378 19.6984 7.77778 20.4115 7.77778 21.2857C7.77778 22.1598 7.16385 22.873 6.38889 22.873ZM6.38889 20.5725C6.0467 20.5725 5.7649 20.8946 5.7649 21.2857C5.7649 21.6767 6.0467 21.9988 6.38889 21.9988C6.73108 21.9988 7.01288 21.6767 7.01288 21.2857C7.01288 20.8946 6.73108 20.5725 6.38889 20.5725Z" fill="white"/>
<path d="M24.2444 9.77778C23.4795 9.77778 22.8555 9.15378 22.8555 8.38889C22.8555 7.62399 23.4795 7 24.2444 7C25.0093 7 25.6332 7.62399 25.6332 8.38889C25.6332 9.15378 25.0093 9.77778 24.2444 9.77778ZM24.2444 7.7649C23.9022 7.7649 23.6204 8.0467 23.6204 8.38889C23.6204 8.73108 23.9022 9.01288 24.2444 9.01288C24.5865 9.01288 24.8684 8.73108 24.8684 8.38889C24.8684 8.0467 24.5865 7.7649 24.2444 7.7649Z" fill="white"/>
<path d="M24.8241 16.6797C25.0778 16.3899 25.2257 16.0143 25.2257 15.6064C25.2257 14.7156 24.5177 13.9965 23.6405 13.9965H20.5547C20.8612 13.0521 20.988 11.8071 20.988 11.2704V10.7338C20.988 9.55322 20.0369 8.58728 18.8744 8.58728H18.346C18.103 8.58728 17.8916 8.759 17.8282 8.99512L17.5534 10.165C17.1518 11.8071 15.8626 13.6102 14.5416 13.9429C14.3091 13.3418 13.7384 12.9233 13.0621 12.9233H9.89168C9.59578 12.9233 9.36328 13.1594 9.36328 13.4599V23.13C9.36328 23.4305 9.59578 23.6666 9.89168 23.6666H13.0621C13.6961 23.6666 14.2351 23.291 14.4993 22.7436L16.317 23.3554C16.9088 23.5593 17.5323 23.6559 18.1558 23.6559H22.5943C23.4715 23.6559 24.1795 22.9368 24.1795 22.046C24.1795 21.8314 24.1372 21.6382 24.0633 21.4557C24.7396 21.2733 25.2363 20.64 25.2363 19.8995C25.2363 19.4916 25.0778 19.1053 24.8347 18.8262C25.0883 18.5364 25.2363 18.1608 25.2363 17.753C25.2363 17.3451 25.0778 16.9695 24.8241 16.6797V16.6797ZM13.5904 22.0567C13.5904 22.3573 13.358 22.5934 13.0621 22.5934H10.4201V13.9965H13.0621C13.358 13.9965 13.5904 14.2327 13.5904 14.5332V22.0567ZM22.5837 17.2163H23.6405C23.9364 17.2163 24.1689 17.4524 24.1689 17.753C24.1689 18.0535 23.9364 18.2896 23.6405 18.2896H22.5837C22.2878 18.2896 22.0554 18.5257 22.0554 18.8262C22.0554 19.1267 22.2878 19.3629 22.5837 19.3629H23.6405C23.9364 19.3629 24.1689 19.599 24.1689 19.8995C24.1689 20.2 23.9364 20.4361 23.6405 20.4361H22.5837C22.2878 20.4361 22.0554 20.6722 22.0554 20.9728C22.0554 21.2733 22.2878 21.5094 22.5837 21.5094C22.8797 21.5094 23.1121 21.7455 23.1121 22.046C23.1121 22.3465 22.8797 22.5826 22.5837 22.5826H18.1452C17.6274 22.5826 17.1201 22.4968 16.634 22.3358L14.6367 21.6596V15.0054C15.4715 14.8444 16.2747 14.3078 17.0145 13.4384C17.7331 12.5798 18.3143 11.4529 18.5679 10.4118L18.7582 9.64981H18.8744C19.4556 9.64981 19.9312 10.1328 19.9312 10.7231V11.2597C19.9312 11.9788 19.7093 13.3633 19.4239 13.9858H18.3566C18.0607 13.9858 17.8282 14.2219 17.8282 14.5224C17.8282 14.8229 18.0607 15.0591 18.3566 15.0591H23.6511C23.947 15.0591 24.1795 15.2952 24.1795 15.5957C24.1795 15.8962 23.947 16.1323 23.6511 16.1323H22.5943C22.2984 16.1323 22.0659 16.3684 22.0659 16.669C22.0554 16.9802 22.2984 17.2163 22.5837 17.2163V17.2163Z" fill="white"/>
<path d="M11.9429 20.4921C12.2716 20.4921 12.5381 20.3145 12.5381 20.0953C12.5381 19.8762 12.2716 19.6985 11.9429 19.6985C11.6142 19.6985 11.3477 19.8762 11.3477 20.0953C11.3477 20.3145 11.6142 20.4921 11.9429 20.4921Z" fill="white"/>
</svg>
