<svg width="30" height="30" viewBox="0 0 30 30" fill="none" xmlns="http://www.w3.org/2000/svg">
<path d="M28 3C27.4493 3 27 2.55072 27 2C27 1.44928 27.4493 1 28 1C28.5507 1 29 1.44928 29 2C29 2.55072 28.5507 3 28 3ZM28 1.55072C27.7536 1.55072 27.5507 1.75362 27.5507 2C27.5507 2.24638 27.7536 2.44928 28 2.44928C28.2464 2.44928 28.4493 2.24638 28.4493 2C28.4493 1.75362 28.2464 1.55072 28 1.55072Z" fill="white"/>
<path d="M3 28C2.44927 28 2 27.5507 2 27C2 26.4493 2.44927 26 3 26C3.55072 26 4 26.4493 4 27C4 27.5507 3.55072 28 3 28ZM3 26.5507C2.75362 26.5507 2.55072 26.7536 2.55072 27C2.55072 27.2464 2.75362 27.4493 3 27.4493C3.24638 27.4493 3.44928 27.2464 3.44928 27C3.44928 26.7536 3.24638 26.5507 3 26.5507Z" fill="white"/>
<path fill-rule="evenodd" clip-rule="evenodd" d="M11.0154 5.16814C10.7947 6.02567 10.0162 6.65931 9.08979 6.65931C7.99171 6.65931 7.10156 5.76917 7.10156 4.67109C7.10156 3.57301 7.99171 2.68286 9.08979 2.68286C10.0162 2.68286 10.7947 3.31651 11.0154 4.17403H24.4989C24.7733 4.17403 24.9959 4.39654 24.9959 4.67109C24.9959 4.94563 24.7733 5.16814 24.4989 5.16814H11.0154ZM10.0839 4.67109C10.0839 5.22018 9.63878 5.6652 9.08979 5.6652C8.5408 5.6652 8.09568 5.22007 8.09568 4.67109C8.09568 4.1221 8.5408 3.67697 9.08979 3.67697C9.63878 3.67697 10.0839 4.122 10.0839 4.67109Z" fill="white"/>
<path d="M5.61034 5.16794H7.16414C7.12322 5.00911 7.10151 4.84252 7.10151 4.67088C7.10151 4.49925 7.12322 4.33266 7.16414 4.17383H5.61034C5.33579 4.17383 5.11328 4.39634 5.11328 4.67088C5.11328 4.94543 5.33579 5.16794 5.61034 5.16794V5.16794Z" fill="white"/>
<path d="M15.4274 15.3859C14.3716 15.3859 13.5156 16.2418 13.5156 17.2976C13.5156 18.3534 14.3715 19.2094 15.4274 19.2094C16.4832 19.2094 17.3391 18.3535 17.3391 17.2976C17.3391 16.2418 16.4832 15.3859 15.4274 15.3859ZM15.4274 18.299C14.8743 18.299 14.426 17.8506 14.426 17.2976C14.426 16.7445 14.8743 16.2962 15.4274 16.2962C15.9804 16.2962 16.4288 16.7445 16.4288 17.2976C16.4288 17.8506 15.9804 18.299 15.4274 18.299Z" fill="white"/>
<path d="M23.274 10.7972L10.0915 9.28639C9.57987 9.21298 9.06151 9.36373 8.66703 9.70067C8.27261 10.0094 8.01978 10.4669 7.96686 10.9678L7.72545 12.9661H6.97694C5.9146 12.9661 5.11784 13.9164 5.11784 14.9886V24.9554C5.09108 25.9778 5.89061 26.8286 6.90369 26.8556C6.92809 26.8563 6.95254 26.8564 6.97694 26.8561H20.2319C21.2942 26.8561 22.26 26.0276 22.26 24.9554V24.5655C22.5893 24.5012 22.9018 24.3684 23.1774 24.1756C23.5686 23.8432 23.8191 23.3724 23.8776 22.8597L24.9883 12.9661C25.1015 11.8914 24.3373 10.9246 23.274 10.7972ZM21.2942 24.9554C21.2942 25.4915 20.7631 25.8814 20.2319 25.8814H6.97694C6.49711 25.8956 6.09672 25.5145 6.08263 25.0302C6.08189 25.0053 6.08221 24.9803 6.0836 24.9554V23.1521L9.82591 20.3741C10.2755 20.0257 10.9087 20.0567 11.3228 20.4472L13.9545 22.7865C14.3542 23.1252 14.8572 23.3145 15.379 23.3227C15.787 23.3277 16.1883 23.218 16.538 23.0059L21.2943 20.2279V24.9554H21.2942ZM21.2942 19.0825L16.0309 22.1773C15.5789 22.4476 15.0068 22.3987 14.6064 22.0555L11.9505 19.6917C11.1894 19.0316 10.0768 18.9911 9.27057 19.5943L6.0836 21.9336V14.9886C6.0836 14.4525 6.44577 13.9408 6.97694 13.9408H20.2319C20.7994 13.9645 21.2577 14.4166 21.2942 14.9886V19.0825V19.0825ZM24.0234 12.8345C24.0231 12.8377 24.0228 12.841 24.0224 12.8442L22.8877 22.7378C22.8896 22.9943 22.7737 23.2373 22.5738 23.3958C22.4772 23.4932 22.2599 23.542 22.2599 23.5907V14.9886C22.2218 13.8785 21.3321 12.9912 20.2318 12.9661H8.69116L8.90845 11.0653C8.95559 10.8192 9.08309 10.5961 9.27062 10.4317C9.48237 10.2839 9.73838 10.2151 9.99496 10.2367L23.1534 11.7719C23.6843 11.8228 24.0738 12.2985 24.0234 12.8345Z" fill="white"/>
</svg>
