<svg width="30" height="30" viewBox="0 0 30 30" fill="none" xmlns="http://www.w3.org/2000/svg">
<path d="M4.26081 13.6899V13.6902V13.6899ZM7.30708 19.0754H9.38555C9.08095 18.6129 9.10301 18.0421 9.11036 17.9369V13.0829H11.0961C11.5219 13.0829 11.8498 13.2168 12.0937 13.3856V11.5881H4.59896V13.3856C4.84283 13.2168 5.17076 13.0829 5.59649 13.0829H7.58259V17.9369C7.5893 18.0421 7.61135 18.6129 7.30708 19.0754V19.0754ZM10.6033 19.6747H6.08934V19.0754C6.37763 19.0754 6.58954 18.9968 6.73688 18.8357C7.02486 18.5199 6.98458 17.9807 6.98426 17.975L6.9833 17.9478V13.6822H5.59649C5.15414 13.6822 4.87192 13.8998 4.71339 14.0827C4.60184 14.2115 4.42733 14.2562 4.26624 14.1961C4.10451 14.136 4 13.9858 4 13.8135V10.9888H12.6929V13.8135C12.6929 13.9855 12.5884 14.1357 12.4267 14.1961C12.2669 14.2559 12.0908 14.2115 11.9789 14.0827C11.8201 13.8998 11.5388 13.6822 11.0961 13.6822H9.70964L9.70836 17.975C9.70804 17.9794 9.66649 18.5215 9.95766 18.8376C10.1047 18.9974 10.3156 19.0754 10.6033 19.0754V19.6747Z" fill="white"/>
<path d="M6.01898 6.04544C5.43792 5.93549 4.93548 6.43793 5.04575 7.01899C5.10679 7.34244 5.37112 7.60709 5.69393 7.66973C6.27755 7.78288 6.78286 7.27724 6.66972 6.69362C6.6074 6.37081 6.34243 6.10648 6.01898 6.04544ZM6.28362 8.66853C4.93036 8.97025 3.74522 7.78511 4.04758 6.43249C4.20036 5.75043 4.75042 5.19973 5.43248 5.04759C6.7851 4.74523 7.97056 5.93006 7.66852 7.28331C7.51639 7.9657 6.96569 8.51608 6.28362 8.66853" fill="white"/>
<path d="M23.2028 22.3238C22.6214 22.2136 22.119 22.716 22.2293 23.2971C22.2906 23.6205 22.5546 23.8855 22.8774 23.9478C23.4611 24.0609 23.9664 23.5556 23.8532 22.972C23.7909 22.6492 23.5263 22.3849 23.2028 22.3238ZM23.4671 24.9466C22.1139 25.2486 20.9291 24.0632 21.2311 22.7106C21.3839 22.0285 21.9339 21.4781 22.616 21.3257C23.9689 21.0233 25.1541 22.2084 24.852 23.5614C24.7002 24.2438 24.1495 24.7941 23.4671 24.9466" fill="white"/>
<path fill-rule="evenodd" clip-rule="evenodd" d="M12.5391 20.7988H4.16254V21.7577H12.5391V20.7988Z" fill="white"/>
<path d="M19.868 10.6208V16.4829C19.8763 16.6098 19.9032 17.2992 19.5356 17.8576H22.0453C21.6777 17.2992 21.7045 16.6098 21.7129 16.4829V10.6208H24.1109C24.6252 10.6208 25.0212 10.7828 25.3156 10.9868V8.81592H16.2656V10.9868C16.56 10.7828 16.956 10.6208 17.4696 10.6208H19.868Z" fill="white"/>
<path d="M26.0435 11.5032C26.0435 11.711 25.9173 11.8925 25.722 11.9654C25.5293 12.0379 25.3167 11.9839 25.1815 11.8289C24.9898 11.6077 24.6497 11.3447 24.1153 11.3447H22.4411L22.4395 16.5292C22.4392 16.534 22.389 17.1889 22.7406 17.5705C22.9183 17.7639 23.1731 17.8575 23.5198 17.8575V18.5811H18.0691V17.8575C18.4178 17.8575 18.6732 17.7629 18.8512 17.5683C19.1993 17.187 19.1507 16.5356 19.15 16.5292L19.1484 16.4963V11.3447H17.474C17.2467 11.3447 17.0543 11.3923 16.8935 11.4642C16.6768 11.5611 16.5177 11.702 16.408 11.8289C16.2735 11.9839 16.0622 12.0383 15.8673 11.9654C15.6723 11.8928 15.5457 11.7113 15.5457 11.5032V8.09226H26.0435V11.5032ZM14.3906 7.86566V18.8077C14.3906 19.626 15.0541 20.2892 15.8724 20.2892H25.7172C26.5351 20.2892 27.1986 19.626 27.1986 18.8077V7.86566C27.1986 7.04776 26.5351 6.38391 25.7172 6.38391H15.8724C15.0541 6.38391 14.3906 7.04776 14.3906 7.86566Z" fill="white"/>
</svg>
