<svg width="30" height="30" viewBox="0 0 30 30" fill="none" xmlns="http://www.w3.org/2000/svg">
<path d="M3.5765 15.8283C2.7357 15.8283 2 15.0926 2 14.2518C2 13.411 2.7357 12.6753 3.5765 12.6753C4.4173 12.6753 5.153 13.411 5.153 14.2518C5.153 15.0926 4.4173 15.8283 3.5765 15.8283ZM3.5765 13.5161C3.1561 13.5161 2.8408 13.8314 2.8408 14.2518C2.8408 14.6722 3.1561 14.9875 3.5765 14.9875C3.9969 14.9875 4.3122 14.6722 4.3122 14.2518C4.3122 13.8314 3.9969 13.5161 3.5765 13.5161Z" fill="white"/>
<path d="M25.7562 23.816C24.9154 23.816 24.1797 23.0803 24.1797 22.2395C24.1797 21.3987 24.9154 20.663 25.7562 20.663C26.597 20.663 27.3327 21.3987 27.3327 22.2395C27.4378 23.0803 26.7021 23.816 25.7562 23.816ZM25.7562 21.5038C25.3358 21.5038 25.0205 21.8191 25.0205 22.2395C25.0205 22.6599 25.3358 22.9752 25.7562 22.9752C26.1766 22.9752 26.4919 22.6599 26.4919 22.2395C26.4919 21.8191 26.1766 21.5038 25.7562 21.5038Z" fill="white"/>
<path d="M24.1794 14.2519L19.6601 7H16.2969L20.9213 14.2519H24.1794Z" fill="white"/>
<path d="M20.9213 14.2518L16.2969 21.5037H19.6601L24.1794 14.2518H20.9213Z" fill="white"/>
<path d="M13.9816 14.2519H16.504L11.9847 7H11.5643H8.72656V21.5038H11.9847L16.504 14.2519H13.9816Z" fill="white"/>
</svg>
