<svg width="30" height="30" viewBox="0 0 30 30" fill="none" xmlns="http://www.w3.org/2000/svg">
<path d="M5.31377 24.1218C7.00951 25.4229 9.51149 25.0345 12.4621 23.2246C14.0653 22.2396 16.0848 22.2658 18.0565 22.9765C20.7727 23.9538 23.489 23.8428 25.083 21.6954C26.677 19.548 27.6251 15.1036 21.525 13.1181C19.3082 12.3951 17.0637 10.3756 15.8597 7.97842C14.5817 5.43636 12.8506 4.89526 11.0145 5.01551C9.93542 5.08642 7.33632 5.89421 6.72431 8.42086C6.0121 11.3499 7.89437 13.6036 5.7377 16.9859C3.6874 20.2001 3.33284 22.6096 5.31377 24.1218Z" stroke="white" stroke-miterlimit="10"/>
<path d="M7.64453 19.3028C7.64423 19.2204 7.66842 19.1397 7.71404 19.071C7.75966 19.0023 7.82465 18.9487 7.90076 18.917C7.97688 18.8854 8.0607 18.877 8.14158 18.893C8.22247 18.909 8.29677 18.9487 8.35507 19.007C8.41338 19.0653 8.45305 19.1396 8.46906 19.2205C8.48507 19.3014 8.4767 19.3852 8.44501 19.4613C8.41331 19.5374 8.35972 19.6024 8.29104 19.648C8.22236 19.6936 8.14167 19.7178 8.05922 19.7175C7.94936 19.7171 7.84412 19.6733 7.76644 19.5956C7.68876 19.5179 7.64494 19.4127 7.64453 19.3028V19.3028ZM8.24421 19.3028C8.24421 19.2662 8.23336 19.2305 8.21303 19.2001C8.19271 19.1696 8.16381 19.1459 8.13001 19.1319C8.09621 19.1179 8.05901 19.1143 8.02313 19.1214C7.98724 19.1285 7.95428 19.1462 7.92841 19.172C7.90254 19.1979 7.88492 19.2309 7.87778 19.2667C7.87065 19.3026 7.87431 19.3398 7.88831 19.3736C7.90231 19.4074 7.92602 19.4363 7.95644 19.4566C7.98687 19.477 8.02263 19.4878 8.05922 19.4878C8.08351 19.4878 8.10757 19.483 8.13001 19.4737C8.15246 19.4644 8.17285 19.4508 8.19003 19.4336C8.2072 19.4165 8.22083 19.3961 8.23013 19.3736C8.23942 19.3512 8.24421 19.3271 8.24421 19.3028V19.3028Z" stroke="white" stroke-miterlimit="10"/>
<path d="M22.707 12.0636C22.707 11.9812 22.7315 11.9006 22.7773 11.8322C22.8231 11.7637 22.8882 11.7103 22.9643 11.6789C23.0405 11.6474 23.1242 11.6393 23.205 11.6555C23.2858 11.6716 23.36 11.7114 23.4181 11.7698C23.4763 11.8282 23.5158 11.9025 23.5317 11.9833C23.5476 12.0642 23.5391 12.1479 23.5074 12.2239C23.4756 12.2999 23.422 12.3648 23.3534 12.4104C23.2847 12.4559 23.2041 12.4801 23.1217 12.4798C23.0671 12.4798 23.0131 12.469 22.9627 12.4481C22.9123 12.4271 22.8665 12.3965 22.8279 12.3578C22.7894 12.3191 22.7589 12.2732 22.7382 12.2227C22.7174 12.1722 22.7068 12.1181 22.707 12.0636V12.0636ZM23.3067 12.0636C23.3067 12.027 23.2959 11.9912 23.2755 11.9608C23.2552 11.9304 23.2263 11.9067 23.1925 11.8927C23.1587 11.8787 23.1215 11.875 23.0856 11.8821C23.0497 11.8893 23.0168 11.9069 22.9909 11.9328C22.965 11.9586 22.9474 11.9916 22.9403 12.0275C22.9331 12.0634 22.9368 12.1006 22.9508 12.1344C22.9648 12.1682 22.9885 12.197 23.0189 12.2174C23.0494 12.2377 23.0851 12.2486 23.1217 12.2486C23.1708 12.2486 23.2178 12.2291 23.2525 12.1944C23.2872 12.1597 23.3067 12.1126 23.3067 12.0636V12.0636Z" stroke="white" stroke-miterlimit="10"/>
<path d="M18.0551 18.8034H12.1015C11.8103 18.803 11.5311 18.687 11.3253 18.4809C11.1195 18.2748 11.0039 17.9955 11.0039 17.7042V14.6796C11.0043 14.3887 11.1201 14.1097 11.3258 13.904C11.5316 13.6982 11.8105 13.5824 12.1015 13.582H18.0551C18.2646 13.5819 18.4697 13.6418 18.6462 13.7546C18.8227 13.8675 18.9632 14.0285 19.051 14.2187C19.1187 14.3634 19.1534 14.5214 19.1527 14.6812V17.6981C19.1535 17.8428 19.1257 17.9862 19.071 18.1202C19.0162 18.2542 18.9355 18.376 18.8335 18.4787C18.7315 18.5814 18.6103 18.663 18.4767 18.7187C18.3431 18.7744 18.1998 18.8032 18.0551 18.8034V18.8034ZM12.1015 13.9536C11.9096 13.9548 11.7259 14.0318 11.5905 14.1677C11.4551 14.3037 11.3789 14.4877 11.3785 14.6796V17.6981C11.3789 17.8906 11.4555 18.0752 11.5915 18.2116C11.7276 18.3479 11.912 18.4249 12.1046 18.4257H18.0551C18.2471 18.4241 18.4308 18.3467 18.5662 18.2105C18.7015 18.0743 18.7777 17.8901 18.7781 17.6981V14.6796C18.7789 14.5731 18.7557 14.4677 18.7103 14.3713C18.6526 14.2452 18.5599 14.1383 18.4432 14.0634C18.3265 13.9885 18.1907 13.9488 18.052 13.9489L12.1015 13.9536Z" stroke="white" stroke-miterlimit="10"/>
<path d="M18.0512 18.8034H12.0976C11.8064 18.803 11.5272 18.687 11.3214 18.4809C11.1156 18.2748 11 17.9955 11 17.7043V17.3774L13.337 15.6987L14.3452 16.8086L18.97 14.0338L19.0532 14.2203C19.121 14.365 19.1557 14.523 19.155 14.6828V17.6981C19.1558 17.8433 19.1278 17.9873 19.0726 18.1217C19.0175 18.256 18.9362 18.3782 18.8336 18.4809C18.7309 18.5837 18.609 18.6651 18.4747 18.7205C18.3404 18.7758 18.1964 18.804 18.0512 18.8034V18.8034ZM11.3746 17.5701V17.6996C11.375 17.8922 11.4516 18.0768 11.5876 18.2131C11.7237 18.3495 11.9081 18.4264 12.1007 18.4273H18.0512C18.2435 18.4256 18.4274 18.3481 18.5628 18.2115C18.6982 18.0749 18.7742 17.8904 18.7742 17.6981V14.6797C18.7773 14.6458 18.7773 14.6118 18.7742 14.5779L14.2712 17.2819L13.28 16.2028L11.3746 17.5701Z" fill="white" stroke="white" stroke-miterlimit="10"/>
<path d="M14.594 15.8914C14.4613 15.8917 14.3315 15.8526 14.221 15.7791C14.1105 15.7056 14.0244 15.601 13.9734 15.4785C13.9224 15.356 13.9089 15.2211 13.9346 15.0909C13.9603 14.9608 14.024 14.8411 14.1177 14.7472C14.2115 14.6533 14.3309 14.5892 14.4611 14.5632C14.5912 14.5372 14.7261 14.5504 14.8487 14.6011C14.9714 14.6518 15.0762 14.7378 15.1499 14.8481C15.2237 14.9584 15.263 15.0881 15.263 15.2208C15.2626 15.3983 15.1921 15.5684 15.0667 15.694C14.9414 15.8196 14.7715 15.8906 14.594 15.8914V15.8914ZM14.594 14.9279C14.5348 14.9276 14.4768 14.9449 14.4274 14.9776C14.378 15.0102 14.3395 15.0568 14.3166 15.1115C14.2937 15.1661 14.2876 15.2263 14.299 15.2844C14.3103 15.3425 14.3387 15.3959 14.3804 15.4379C14.4222 15.4799 14.4755 15.5085 14.5335 15.5202C14.5916 15.5319 14.6518 15.526 14.7066 15.5034C14.7613 15.4808 14.8081 15.4425 14.841 15.3933C14.8739 15.3441 14.8915 15.2862 14.8915 15.227C14.8892 15.1487 14.8572 15.0742 14.8019 15.0186C14.7467 14.9631 14.6723 14.9306 14.594 14.9279V14.9279Z" fill="white" stroke="white" stroke-miterlimit="10"/>
</svg>
