<svg width="30" height="30" viewBox="0 0 30 30" fill="none" xmlns="http://www.w3.org/2000/svg">
<path d="M20.8587 8.49367C20.1664 8.49367 19.6016 7.92888 19.6016 7.23655C19.6016 6.54422 20.1664 5.97943 20.8587 5.97943C21.551 5.97943 22.1158 6.54422 22.1158 7.23655C22.1158 7.92888 21.551 8.49367 20.8587 8.49367ZM20.8587 6.67176C20.549 6.67176 20.2939 6.92683 20.2939 7.23655C20.2939 7.54628 20.549 7.80135 20.8587 7.80135C21.1684 7.80135 21.4235 7.54628 21.4235 7.23655C21.4235 6.92683 21.1684 6.67176 20.8587 6.67176Z" fill="white"/>
<path d="M11.5893 26.4212C10.9958 26.4212 10.5117 25.9371 10.5117 25.3437C10.5117 24.7503 10.9958 24.2662 11.5893 24.2662C12.1827 24.2662 12.6668 24.7503 12.6668 25.3437C12.6668 25.9371 12.1827 26.4212 11.5893 26.4212ZM11.5893 24.8596C11.3238 24.8596 11.1051 25.0782 11.1051 25.3437C11.1051 25.6092 11.3238 25.8278 11.5893 25.8278C11.8547 25.8278 12.0734 25.6092 12.0734 25.3437C12.0734 25.0782 11.8547 24.8596 11.5893 24.8596Z" fill="white"/>
<path d="M8.3107 13.2797L7.48447 12.4535L8.66897 11.269L12.077 14.6771C12.3551 14.9552 12.5082 15.3248 12.5082 15.7181C12.5082 16.1113 12.3551 16.481 12.077 16.759L12.9437 17.6257L17.6257 12.9438L16.759 12.0771C16.185 12.6511 15.2512 12.6511 14.6771 12.0771L11.269 8.66897L12.4535 7.48451L13.2797 8.3107L14.1464 7.44402L11.7024 5L10.8357 5.86668L11.5869 6.61787L6.61783 11.5868L5.86668 10.8357L5 11.7023L7.44402 14.1464L8.3107 13.2797ZM13.8105 12.9437C14.1858 13.319 14.6521 13.5701 15.1597 13.6764L13.675 15.1611C13.5713 14.6657 13.3275 14.1942 12.9438 13.8104L9.5357 10.4023L10.4024 9.53561L13.8105 12.9437Z" fill="white"/>
<path d="M24.9332 14.7382C23.1712 12.9761 20.3042 12.9762 18.5423 14.7382L13.3823 19.8983C12.0982 21.1824 10.0089 21.1823 8.7248 19.8983L7.82371 18.9972L6.95703 19.8639L7.85812 20.7649C8.7391 21.6459 9.89635 22.0864 11.0536 22.0864C12.2108 22.0864 13.368 21.6459 14.249 20.7649L19.409 15.6049C20.6932 14.3208 22.7825 14.3209 24.0665 15.6049L24.9676 16.506L25.8343 15.6393L24.9332 14.7382Z" fill="white"/>
</svg>
