<svg width="30" height="30" viewBox="0 0 30 30" fill="none" xmlns="http://www.w3.org/2000/svg">
<path d="M18.5156 17.4609C18.2999 17.4609 18.125 17.6358 18.125 17.8516V20.5469C18.125 21.6238 17.2488 22.5 16.1719 22.5H11.9544C11.7387 22.5 11.5639 22.6747 11.5637 22.8904L11.5632 23.667L10.6309 22.7347C10.5705 22.5961 10.4324 22.5 10.2726 22.5H7.73438C6.65742 22.5 5.78125 21.6238 5.78125 20.5469V14.5312C5.78125 13.4543 6.65742 12.5781 7.73438 12.5781H11.6797C11.8954 12.5781 12.0703 12.4032 12.0703 12.1875C12.0703 11.9718 11.8954 11.7969 11.6797 11.7969H7.73438C6.22664 11.7969 5 13.0235 5 14.5312V20.5469C5 22.0546 6.22664 23.2812 7.73438 23.2812H10.0726L11.6769 24.8856C11.7516 24.9603 11.8515 25 11.9532 25C12.0035 25 12.0542 24.9903 12.1025 24.9703C12.2484 24.9099 12.3436 24.7676 12.3438 24.6096L12.3447 23.2812H16.1719C17.6796 23.2812 18.9062 22.0546 18.9062 20.5469V17.8516C18.9062 17.6358 18.7313 17.4609 18.5156 17.4609Z" fill="white"/>
<path d="M19.3225 5H18.3338C15.2032 5 12.6562 7.54695 12.6562 10.6776C12.6562 13.8082 15.2032 16.3551 18.3338 16.3551H19.3224C19.8111 16.3551 20.2947 16.293 20.7634 16.1704L22.2239 17.63C22.2986 17.7046 22.3984 17.7443 22.5001 17.7443C22.5504 17.7443 22.6012 17.7346 22.6495 17.7146C22.7955 17.6541 22.8906 17.5117 22.8906 17.3537V15.0937C23.5089 14.593 24.0226 13.9604 24.383 13.2538C24.7925 12.4512 25 11.5845 25 10.6776C25 7.54695 22.453 5 19.3225 5ZM22.265 14.5912C22.167 14.665 22.1094 14.7805 22.1094 14.9032V16.4111L21.1535 15.4557C21.0791 15.3814 20.9793 15.3413 20.8773 15.3413C20.839 15.3413 20.8004 15.347 20.7626 15.3586C20.2977 15.5015 19.8131 15.5739 19.3225 15.5739H18.3338C15.6339 15.5739 13.4375 13.3774 13.4375 10.6776C13.4375 7.97773 15.634 5.78125 18.3338 5.78125H19.3225C22.0223 5.78125 24.2188 7.97773 24.2188 10.6776C24.2188 12.2296 23.5066 13.6561 22.265 14.5912Z" fill="white"/>
<path d="M20.5887 9.27435C20.5323 8.45658 19.8731 7.79736 19.0553 7.74099C18.5917 7.70916 18.1493 7.86553 17.8107 8.18166C17.4767 8.49342 17.2852 8.93412 17.2852 9.3908C17.2852 9.60654 17.4601 9.78142 17.6758 9.78142C17.8915 9.78142 18.0664 9.60654 18.0664 9.3908C18.0664 9.14631 18.1649 8.91971 18.3438 8.75279C18.5224 8.58603 18.7559 8.50349 19.0016 8.52045C19.4324 8.55014 19.7796 8.89736 19.8093 9.3281C19.8393 9.76314 19.5539 10.1476 19.1307 10.2423C18.7878 10.319 18.5484 10.617 18.5484 10.9669V11.9053C18.5484 12.1211 18.7233 12.296 18.939 12.296C19.1547 12.296 19.3296 12.1211 19.3296 11.9053V10.9981C20.1167 10.8079 20.6448 10.0877 20.5887 9.27435Z" fill="white"/>
<path d="M19.2176 13.1741C19.1449 13.1015 19.0441 13.0597 18.9414 13.0597C18.8387 13.0597 18.7379 13.1015 18.6652 13.1741C18.5926 13.2468 18.5508 13.3476 18.5508 13.4503C18.5508 13.5534 18.5926 13.6542 18.6652 13.7269C18.7379 13.7995 18.8387 13.8409 18.9414 13.8409C19.0441 13.8409 19.1449 13.7995 19.2176 13.7269C19.2902 13.6538 19.332 13.5534 19.332 13.4503C19.332 13.3476 19.2902 13.2468 19.2176 13.1741Z" fill="white"/>
<path d="M15.7422 17.1094H7.5C7.2843 17.1094 7.10938 17.2843 7.10938 17.5C7.10938 17.7157 7.2843 17.8906 7.5 17.8906H15.7422C15.9579 17.8906 16.1328 17.7157 16.1328 17.5C16.1328 17.2843 15.9579 17.1094 15.7422 17.1094Z" fill="white"/>
<path d="M16.0183 19.4113C15.9457 19.3387 15.8449 19.2969 15.7422 19.2969C15.6395 19.2969 15.5387 19.3387 15.466 19.4113C15.3933 19.484 15.3516 19.5848 15.3516 19.6875C15.3516 19.7902 15.3934 19.891 15.466 19.9637C15.5387 20.0363 15.6395 20.0781 15.7422 20.0781C15.8449 20.0781 15.9457 20.0363 16.0183 19.9637C16.091 19.891 16.1328 19.7906 16.1328 19.6875C16.1328 19.5848 16.091 19.484 16.0183 19.4113Z" fill="white"/>
<path d="M14.2057 19.2969H7.5C7.2843 19.2969 7.10938 19.4718 7.10938 19.6875C7.10938 19.9032 7.2843 20.0781 7.5 20.0781H14.2057C14.4215 20.0781 14.5964 19.9032 14.5964 19.6875C14.5964 19.4718 14.4214 19.2969 14.2057 19.2969Z" fill="white"/>
<path d="M13.2031 14.9219H7.5C7.2843 14.9219 7.10938 15.0968 7.10938 15.3125C7.10938 15.5282 7.2843 15.7031 7.5 15.7031H13.2031C13.4189 15.7031 13.5938 15.5282 13.5938 15.3125C13.5938 15.0968 13.4188 14.9219 13.2031 14.9219Z" fill="white"/>
<path d="M26.3356 4.67128C25.6001 4.67128 25 4.07121 25 3.33564C25 2.60007 25.6001 2 26.3356 2C27.0712 2 27.6713 2.60007 27.6713 3.33564C27.6713 4.07121 27.0712 4.67128 26.3356 4.67128ZM26.3356 2.73557C26.0066 2.73557 25.7356 3.00657 25.7356 3.33564C25.7356 3.66471 26.0066 3.93571 26.3356 3.93571C26.6647 3.93571 26.9357 3.66471 26.9357 3.33564C26.9357 3.00657 26.6647 2.73557 26.3356 2.73557Z" fill="white"/>
<path d="M4.33564 27.6713C3.60007 27.6713 3 27.0712 3 26.3356C3 25.6001 3.60007 25 4.33564 25C5.07121 25 5.67128 25.6001 5.67128 26.3356C5.67128 27.0712 5.07121 27.6713 4.33564 27.6713ZM4.33564 25.7356C4.00657 25.7356 3.73557 26.0066 3.73557 26.3356C3.73557 26.6647 4.00657 26.9357 4.33564 26.9357C4.66471 26.9357 4.93571 26.6647 4.93571 26.3356C4.93571 26.0066 4.66471 25.7356 4.33564 25.7356Z" fill="white"/>
</svg>
