<svg width="30" height="30" viewBox="0 0 30 30" fill="none" xmlns="http://www.w3.org/2000/svg">
<path d="M23.103 23.5087C22.2288 23.5087 21.5156 22.7955 21.5156 21.9213C21.5156 21.0471 22.2288 20.3339 23.103 20.3339C23.9772 20.3339 24.6904 21.0471 24.6904 21.9213C24.6904 22.7955 23.9772 23.5087 23.103 23.5087ZM23.103 21.2081C22.7119 21.2081 22.3898 21.5302 22.3898 21.9213C22.3898 22.3124 22.7119 22.6345 23.103 22.6345C23.4941 22.6345 23.8162 22.3124 23.8162 21.9213C23.8162 21.5187 23.4941 21.2081 23.103 21.2081Z" fill="white"/>
<path d="M6.58739 7.17478C5.71318 7.17478 5 6.46161 5 5.58739C5 4.71318 5.71318 4 6.58739 4C7.46161 4 8.17478 4.71318 8.17478 5.58739C8.17478 6.46161 7.46161 7.17478 6.58739 7.17478V7.17478ZM6.58739 4.87421C6.19629 4.87421 5.87421 5.19629 5.87421 5.58739C5.87421 5.97849 6.19629 6.30057 6.58739 6.30057C6.97849 6.30057 7.30057 5.97849 7.30057 5.58739C7.28906 5.19629 6.97849 4.87421 6.58739 4.87421Z" fill="white"/>
<path d="M18.606 26.9366H8.0464C6.99965 26.9366 6.14844 26.0853 6.14844 25.0386C6.14844 23.9918 6.99965 23.1406 8.0464 23.1406H18.606C19.6528 23.1406 20.504 23.9918 20.504 25.0386C20.504 26.0853 19.6528 26.9366 18.606 26.9366ZM8.0464 24.0148C7.48277 24.0148 7.02265 24.475 7.02265 25.0386C7.02265 25.6022 7.48277 26.0623 8.0464 26.0623H18.606C19.1696 26.0623 19.6298 25.6022 19.6298 25.0386C19.6298 24.475 19.1696 24.0148 18.606 24.0148H8.0464Z" fill="white"/>
<path d="M13.3296 10.8326C12.3404 10.8326 11.5352 11.6378 11.5352 12.627C11.5352 13.6163 12.3404 14.4215 13.3296 14.4215C14.3188 14.4215 15.124 13.6163 15.124 12.627C15.1125 11.6263 14.3188 10.8326 13.3296 10.8326ZM13.3296 13.5242C12.835 13.5242 12.4209 13.1101 12.4209 12.6155C12.4209 12.1094 12.835 11.7068 13.3296 11.7068C13.8242 11.7068 14.2383 12.1094 14.2383 12.6155C14.2383 13.1101 13.8242 13.5242 13.3296 13.5242V13.5242Z" fill="white"/>
<path d="M20.0554 12.1094L19.6298 11.8794V18.1829C19.6298 19.4942 18.56 20.564 17.2487 20.564H9.40374C8.09242 20.564 7.03416 19.4942 7.03416 18.1829V10.338C7.03416 9.02665 8.09242 7.96839 9.40374 7.96839H17.2487C17.5477 7.96839 17.8353 8.02591 18.0999 8.12943L18.491 7.33574C18.1114 7.1747 17.6858 7.09418 17.2487 7.09418H9.40374C7.6093 7.09418 6.14844 8.55504 6.14844 10.3495V18.1944C6.14844 19.9889 7.6093 21.4612 9.40374 21.4612H17.2487C19.0431 21.4612 20.504 20.0004 20.504 18.1944V11.8448L20.0554 12.1094Z" fill="white"/>
<path d="M20.0551 12.1096L19.6295 12.3742L12.5553 16.6992L11.0944 14.5827L7.02244 16.8833L6.13672 17.3779V18.1716C6.13672 19.966 7.59758 21.4384 9.39202 21.4384H17.237C19.0314 21.4384 20.4923 19.9775 20.4923 18.1716V11.822L20.0551 12.1096ZM19.618 18.1831C19.618 19.4944 18.5483 20.5642 17.237 20.5642H9.40352C8.0922 20.5642 7.03394 19.4944 7.03394 18.1831V17.8955L10.8414 15.733L12.3137 17.884L19.641 13.3979V18.1831H19.618Z" fill="white"/>
<path d="M20.5072 11.8336V12.3512L20.0586 12.1096L20.5072 11.8336Z" fill="white"/>
<path d="M17.2023 13.0758C17.0642 13.0758 16.9377 13.0298 16.8227 12.9493C16.6271 12.8113 16.5236 12.5582 16.5696 12.3281L16.8802 10.4877L15.5344 9.17636C15.3618 9.00381 15.2928 8.75075 15.3733 8.52069C15.4538 8.29064 15.6494 8.11809 15.8909 8.08359L17.7429 7.81902L18.5711 6.13961C18.6746 5.92105 18.8932 5.78302 19.1462 5.78302C19.3878 5.78302 19.6064 5.92105 19.7214 6.13961L20.5496 7.81902L22.4016 8.08359C22.6431 8.11809 22.8387 8.27913 22.9192 8.52069C22.9997 8.75075 22.9307 9.00381 22.7581 9.17636L21.4123 10.4877L21.7344 12.3281C21.7804 12.5697 21.6769 12.8113 21.4813 12.9493C21.2858 13.0873 21.0212 13.1103 20.8142 12.9953L19.1578 12.1211L17.5013 12.9953C17.4093 13.0528 17.3058 13.0758 17.2023 13.0758V13.0758ZM16.5121 8.88878L17.8349 10.1771L17.5243 11.9945L19.1578 11.1318L20.7912 11.9945L20.4691 10.1771L21.7919 8.88878L19.9745 8.62422L19.1578 6.96781L18.3411 8.62422L16.5121 8.88878ZM22.275 8.96931C22.275 8.96931 22.2865 8.96931 22.275 8.96931V8.96931Z" fill="white"/>
</svg>
