<svg width="30" height="30" viewBox="0 0 30 30" fill="none" xmlns="http://www.w3.org/2000/svg">
<path d="M20.9792 5.21792C20.313 5.21792 19.7695 4.67444 19.7695 4.00825C19.7695 3.34206 20.313 2.79858 20.9792 2.79858C21.6454 2.79858 22.1889 3.34206 22.1889 4.00825C22.1889 4.67444 21.6454 5.21792 20.9792 5.21792ZM20.9792 3.46478C20.6812 3.46478 20.4357 3.71022 20.4357 4.00825C20.4357 4.30628 20.6812 4.55172 20.9792 4.55172C21.2772 4.55172 21.5227 4.30628 21.5227 4.00825C21.5227 3.71022 21.2772 3.46478 20.9792 3.46478Z" fill="white"/>
<path d="M11.2995 28.2016C10.6333 28.2016 10.0898 27.6581 10.0898 26.9919C10.0898 26.3257 10.6333 25.7822 11.2995 25.7822C11.9657 25.7822 12.5092 26.3257 12.5092 26.9919C12.5092 27.6581 11.9657 28.2016 11.2995 28.2016ZM11.2995 26.4484C11.0015 26.4484 10.756 26.6939 10.756 26.9919C10.756 27.2899 11.0015 27.5354 11.2995 27.5354C11.5975 27.5354 11.843 27.2899 11.843 26.9919C11.843 26.6939 11.5975 26.4484 11.2995 26.4484Z" fill="white"/>
<path d="M15.7929 13.9319C15.4201 13.9319 15.1168 13.6286 15.1168 13.2558C15.1168 12.8829 15.4201 12.5794 15.7929 12.5794C16.1659 12.5794 16.4693 12.8829 16.4693 13.2558C16.4693 13.6286 16.1659 13.9319 15.7929 13.9319ZM15.7929 18.3644C15.4201 18.3644 15.1168 18.0609 15.1168 17.688C15.1168 17.315 15.4201 17.0115 15.7929 17.0115C16.1659 17.0115 16.4693 17.315 16.4693 17.688C16.4693 18.0609 16.1659 18.3644 15.7929 18.3644ZM15.7929 22.7965C15.4201 22.7965 15.1168 22.4932 15.1168 22.1204C15.1168 21.7475 15.4201 21.444 15.7929 21.444C16.1659 21.444 16.4693 21.7475 16.4693 22.1204C16.4693 22.4932 16.1659 22.7965 15.7929 22.7965ZM15.7929 8.14694C16.1659 8.14694 16.4693 8.45036 16.4693 8.82335C16.4693 9.19633 16.1659 9.49975 15.7929 9.49975C15.4201 9.49975 15.1168 9.19633 15.1168 8.82335C15.1168 8.45036 15.4201 8.14694 15.7929 8.14694ZM17.4417 8.82335C17.4417 7.91423 16.7021 7.17462 15.7929 7.17462C14.884 7.17462 14.1445 7.91423 14.1445 8.82335C14.1445 9.56325 14.6344 10.1908 15.3068 10.3988V11.6803C14.6344 11.8883 14.1445 12.5159 14.1445 13.2558C14.1445 13.9956 14.6344 14.623 15.3068 14.831V16.1125C14.6344 16.3205 14.1445 16.9481 14.1445 17.688C14.1445 18.4279 14.6344 19.0554 15.3068 19.2634V20.5449C14.6344 20.7529 14.1445 21.3805 14.1445 22.1204C14.1445 23.0293 14.884 23.7688 15.7929 23.7688C16.7021 23.7688 17.4417 23.0293 17.4417 22.1204C17.4417 21.3805 16.9516 20.7529 16.2791 20.5449V19.2634C16.9516 19.0555 17.4417 18.4279 17.4417 17.688C17.4417 16.948 16.9516 16.3204 16.2791 16.1124V14.831C16.9516 14.6231 17.4417 13.9956 17.4417 13.2558C17.4417 12.5158 16.9516 11.8882 16.2791 11.6803V10.3988C16.9516 10.1909 17.4417 9.56331 17.4417 8.82335" fill="white"/>
<path d="M12.0406 9.16693C11.9487 9.25884 11.8265 9.30944 11.6966 9.30944H9.13035C9.00045 9.30944 8.87852 9.25898 8.78637 9.16667C8.69469 9.07514 8.64419 8.95315 8.64419 8.82328C8.64419 8.69344 8.69469 8.57145 8.78696 8.47934C8.87852 8.38762 9.00045 8.33712 9.13035 8.33712H11.6966C11.8265 8.33712 11.9487 8.38775 12.0406 8.4796C12.1309 8.56999 12.1828 8.69526 12.1828 8.82328C12.1828 8.95134 12.1309 9.0766 12.0406 9.16693ZM11.6966 7.36481H9.13035C8.74042 7.36481 8.37411 7.51665 8.09943 7.79181C7.82371 8.06704 7.67188 8.43338 7.67188 8.82328C7.67188 9.21321 7.82372 9.57952 8.09885 9.8542C8.37412 10.1299 8.74042 10.2818 9.13035 10.2818H11.6966C12.0862 10.2818 12.4526 10.13 12.7281 9.85445C13.0035 9.57916 13.1551 9.21292 13.1551 8.82328C13.1551 8.43367 13.0035 8.06743 12.7281 7.79207C12.4526 7.51655 12.0862 7.36481 11.6966 7.36481Z" fill="white"/>
<path d="M12.0406 18.0318C11.9487 18.1237 11.8265 18.1743 11.6966 18.1743H9.13035C9.00045 18.1743 8.87852 18.1238 8.78637 18.0315C8.69469 17.94 8.64419 17.8181 8.64419 17.6881C8.64419 17.5583 8.69469 17.4363 8.78696 17.3442C8.87852 17.2525 9.00045 17.202 9.13035 17.202H11.6966C11.8265 17.202 11.9487 17.2526 12.0406 17.3445C12.1309 17.4349 12.1828 17.5601 12.1828 17.6881C12.1828 17.8181 12.1323 17.9402 12.0406 18.0318ZM11.6966 16.2297H9.13035C8.74042 16.2297 8.37411 16.3815 8.09943 16.6567C7.82371 16.9319 7.67188 17.2983 7.67188 17.6881C7.67188 18.0781 7.82372 18.4444 8.09885 18.7191C8.37408 18.9948 8.74042 19.1466 9.13035 19.1466H11.6966C12.0863 19.1466 12.4526 18.9949 12.7281 18.7194C13.0035 18.444 13.1551 18.0778 13.1551 17.6881C13.1551 17.2985 13.0035 16.9323 12.7281 16.6569C12.4526 16.3814 12.0862 16.2297 11.6966 16.2297Z" fill="white"/>
<path d="M18.9158 12.8474H22.5121C22.7806 12.8474 22.9983 12.6297 22.9983 12.3612C22.9983 12.0927 22.7806 11.8751 22.5121 11.8751H18.9158C18.6474 11.8751 18.4297 12.0927 18.4297 12.3612C18.4297 12.6297 18.6474 12.8474 18.9158 12.8474Z" fill="white"/>
<path d="M18.9158 21.665H22.5121C22.7806 21.665 22.9983 21.4473 22.9983 21.1788C22.9983 20.9104 22.7806 20.6927 22.5121 20.6927H18.9158C18.6474 20.6927 18.4297 20.9104 18.4297 21.1788C18.4297 21.4473 18.6474 21.665 18.9158 21.665Z" fill="white"/>
<path d="M18.9158 14.809H20.5234C20.7919 14.809 21.0096 14.5913 21.0096 14.3228C21.0096 14.0543 20.7919 13.8367 20.5234 13.8367H18.9158C18.6474 13.8367 18.4297 14.0543 18.4297 14.3228C18.4297 14.5913 18.6474 14.809 18.9158 14.809Z" fill="white"/>
<path d="M18.9158 23.6266H20.5234C20.7919 23.6266 21.0096 23.4089 21.0096 23.1405C21.0096 22.8719 20.7919 22.6543 20.5234 22.6543H18.9158C18.6474 22.6543 18.4297 22.8719 18.4297 23.1405C18.4297 23.4089 18.6474 23.6266 18.9158 23.6266Z" fill="white"/>
</svg>
