<svg width="30" height="30" viewBox="0 0 30 30" fill="none" xmlns="http://www.w3.org/2000/svg">
<path d="M8.75455 9.3216C8.11765 9.3216 7.59375 8.7977 7.59375 8.1608C7.59375 7.5239 8.11765 7 8.75455 7C9.39145 7 9.91535 7.5239 9.91535 8.1608C9.91535 8.80797 9.39145 9.3216 8.75455 9.3216V9.3216ZM8.75455 7.64717C8.46692 7.64717 8.24092 7.88344 8.24092 8.1608C8.24092 8.44843 8.47719 8.67443 8.75455 8.67443C9.03191 8.67443 9.26818 8.43816 9.26818 8.1608C9.26818 7.88344 9.04218 7.64717 8.75455 7.64717V7.64717Z" fill="white"/>
<path d="M23.2038 22.1728C22.5669 22.1728 22.043 21.6489 22.043 21.012C22.043 20.3751 22.5669 19.8512 23.2038 19.8512C23.8407 19.8512 24.3646 20.3751 24.3646 21.012C24.3646 21.6592 23.8407 22.1728 23.2038 22.1728ZM23.2038 20.4984C22.9161 20.4984 22.6901 20.7346 22.6901 21.012C22.6901 21.2894 22.9264 21.5256 23.2038 21.5256C23.4811 21.5256 23.7174 21.2894 23.7174 21.012C23.7174 20.7346 23.4914 20.4984 23.2038 20.4984Z" fill="white"/>
<path d="M10.4225 14.7253C9.78562 14.7253 9.26172 14.2014 9.26172 13.5645C9.26172 12.9276 9.78562 12.4037 10.4225 12.4037C11.0594 12.4037 11.5833 12.9276 11.5833 13.5645C11.5833 14.2117 11.0594 14.7253 10.4225 14.7253V14.7253ZM10.4225 13.0509C10.1349 13.0509 9.90889 13.2871 9.90889 13.5645C9.90889 13.8521 10.1452 14.0781 10.4225 14.0781C10.7102 14.0781 10.9362 13.8418 10.9362 13.5645C10.9464 13.2871 10.7102 13.0509 10.4225 13.0509Z" fill="white"/>
<path d="M12.8686 19.1014H7.98912C6.84887 19.1014 5.91406 18.1666 5.91406 17.0263V12.1468C5.91406 11.0066 6.8386 10.0718 7.98912 10.0718H12.8686C14.0089 10.0718 14.9437 10.9963 14.9437 12.1468V17.0263C14.9334 18.1768 14.0089 19.1014 12.8686 19.1014ZM7.98912 10.7292C7.19814 10.7292 6.56124 11.3661 6.56124 12.1571V17.0366C6.56124 17.8276 7.19814 18.4645 7.98912 18.4645H12.8686C13.6596 18.4645 14.2965 17.8276 14.2965 17.0366V12.1571C14.2965 11.3661 13.6596 10.7292 12.8686 10.7292H7.98912Z" fill="white"/>
<path d="M12.8686 19.1016H7.98912C6.84887 19.1016 5.91406 18.1668 5.91406 17.0265V16.5026L9.05747 14.7254L9.96146 16.0403L14.9334 12.9894V17.0265C14.9334 18.177 14.0089 19.1016 12.8686 19.1016V19.1016ZM6.56124 16.8827V17.0368C6.56124 17.8278 7.19814 18.4647 7.98912 18.4647H12.8686C13.6596 18.4647 14.2965 17.8278 14.2965 17.0368V14.1502L9.77655 16.9135L8.86229 15.5781L6.56124 16.8827Z" fill="white"/>
<path d="M20.7467 14.7253C20.1098 14.7253 19.5859 14.2014 19.5859 13.5645C19.5859 12.9276 20.1098 12.4037 20.7467 12.4037C21.3836 12.4037 21.9075 12.9276 21.9075 13.5645C21.9075 14.2117 21.3836 14.7253 20.7467 14.7253V14.7253ZM20.7467 13.0509C20.4591 13.0509 20.2331 13.2871 20.2331 13.5645C20.2331 13.8521 20.4694 14.0781 20.7467 14.0781C21.0344 14.0781 21.2604 13.8418 21.2604 13.5645C21.2706 13.2871 21.0344 13.0509 20.7467 13.0509Z" fill="white"/>
<path d="M23.1928 19.1014H18.3133C17.1731 19.1014 16.2383 18.1666 16.2383 17.0263V12.1468C16.2383 11.0066 17.1628 10.0718 18.3133 10.0718H23.1928C24.3331 10.0718 25.2679 10.9963 25.2679 12.1468V17.0263C25.2576 18.1768 24.3331 19.1014 23.1928 19.1014ZM18.3133 10.7292C17.5224 10.7292 16.8855 11.3661 16.8855 12.1571V17.0366C16.8855 17.8276 17.5224 18.4645 18.3133 18.4645H23.1928C23.9838 18.4645 24.6207 17.8276 24.6207 17.0366V12.1571C24.6207 11.3661 23.9838 10.7292 23.1928 10.7292H18.3133Z" fill="white"/>
<path d="M23.1928 19.1014H18.3133C17.1731 19.1014 16.2383 18.1666 16.2383 17.0264V16.5025L19.3817 14.7253L20.2857 16.0402L25.2576 12.9893V17.0264C25.2576 18.1769 24.3331 19.1014 23.1928 19.1014V19.1014ZM16.8855 16.8826V17.0367C16.8855 17.8276 17.5224 18.4645 18.3133 18.4645H23.1928C23.9838 18.4645 24.6207 17.8276 24.6207 17.0367V14.1501L20.1008 16.9134L19.1865 15.5779L16.8855 16.8826Z" fill="white"/>
<path d="M4.27024 16.759L2 14.725L4.25997 12.4342L4.72223 12.8862L2.93481 14.6942L4.70169 16.2864L4.27024 16.759Z" fill="white"/>
<path d="M26.7254 16.759L26.294 16.2864L28.0609 14.6942L26.2734 12.8862L26.7357 12.4342L28.9957 14.725L26.7254 16.759Z" fill="white"/>
</svg>
