<svg width="30" height="30" viewBox="0 0 30 30" fill="none" xmlns="http://www.w3.org/2000/svg">
<path d="M7.47989 27.3613C6.68303 27.3613 6 26.6783 6 25.8814C6 25.0846 6.68303 24.4016 7.47989 24.4016C8.27675 24.4016 8.95978 25.0846 8.95978 25.8814C8.95978 26.6783 8.27675 27.3613 7.47989 27.3613ZM7.47989 25.1984C7.13838 25.1984 6.79686 25.5399 6.79686 25.8814C6.79686 26.223 7.13838 26.5645 7.47989 26.5645C7.8214 26.5645 8.16292 26.223 8.16292 25.8814C8.04908 25.5399 7.8214 25.1984 7.47989 25.1984Z" fill="white"/>
<path d="M22.394 5.95978C21.5971 5.95978 20.9141 5.27675 20.9141 4.47989C20.9141 3.68303 21.5971 3 22.394 3C23.1908 3 23.8738 3.68303 23.8738 4.47989C23.9877 5.27675 23.3047 5.95978 22.394 5.95978ZM22.394 3.79686C22.0524 3.79686 21.7109 4.13838 21.7109 4.47989C21.7109 4.8214 22.0524 5.16292 22.394 5.16292C22.7355 5.16292 23.077 4.8214 23.077 4.47989C23.077 4.13838 22.8493 3.79686 22.394 3.79686Z" fill="white"/>
<path d="M22.8458 26.5645H10.4375V14.4977H22.8458V26.5645ZM11.2344 25.7676H22.0489V15.1807H11.2344V25.7676Z" fill="white"/>
<path d="M16.5847 14.2699H10.4375V8.12268H16.5847V14.2699ZM11.2344 13.4731H15.7879V8.91955H11.2344V13.4731Z" fill="white"/>
<path d="M22.8465 14.2699H16.6992V8.12268H22.8465V14.2699ZM17.4961 13.4731H22.0496V8.91955H17.4961V13.4731V13.4731Z" fill="white"/>
</svg>
