<svg width="30" height="30" viewBox="0 0 30 30" fill="none" xmlns="http://www.w3.org/2000/svg">
<path d="M11.652 22.7495H5.05624V21.8745C5.47419 21.8745 5.78765 21.7569 6.00968 21.5218C6.44069 21.0647 6.37539 20.268 6.37539 20.2549V20.2157V13.9726H4.33789C3.68485 13.9726 3.27996 14.2861 3.04487 14.5604C2.88814 14.7432 2.62692 14.8085 2.39183 14.7302C2.15673 14.6387 2 14.4298 2 14.1686V10.0413H14.7082V14.1686C14.7082 14.4167 14.5515 14.6387 14.3164 14.7302C14.0813 14.8216 13.8331 14.7563 13.6633 14.5604C13.4282 14.2992 13.0234 13.9726 12.3703 13.9726H10.3459V20.2549C10.3459 20.2549 10.2806 21.0516 10.7116 21.5218C10.9336 21.7569 11.234 21.8745 11.665 21.8745V22.7495H11.652ZM6.83252 21.8745H9.88875C9.44469 21.1953 9.47081 20.3594 9.48387 20.2027V13.1106H12.3834C13.0103 13.1106 13.4935 13.3065 13.8462 13.5547V10.9164H2.87508V13.5547C3.22772 13.3065 3.71097 13.1106 4.33789 13.1106H7.2374V20.2027C7.2374 20.3594 7.27658 21.1953 6.83252 21.8745V21.8745Z" fill="white"/>
<path d="M23.4666 12.6926H19.0781V15.4354C19.0781 15.5399 19.2087 15.5921 19.2871 15.5138C19.4961 15.2656 19.8879 14.9652 20.4887 14.9652H22.3172V19.9153C22.3172 19.9153 22.4609 21.4565 21.0242 21.4565H23.4666H25.909C24.4723 21.4565 24.6159 19.9153 24.6159 19.9153V14.9652H26.4444C27.0452 14.9652 27.4371 15.2656 27.646 15.5138C27.7113 15.5921 27.855 15.5399 27.855 15.4354V12.6926H23.4666Z" fill="white"/>
<path d="M12.5273 23.4766L19.1917 9.11739L19.9736 9.4803L13.3093 23.8395L12.5273 23.4766Z" fill="white"/>
<path d="M6.36027 7.1346C5.49825 7.1346 4.79297 6.42932 4.79297 5.5673C4.79297 4.70529 5.49825 4 6.36027 4C7.22229 4 7.92757 4.70529 7.92757 5.5673C7.92757 6.42932 7.22229 7.1346 6.36027 7.1346V7.1346ZM6.36027 4.87508C5.98151 4.87508 5.66805 5.18854 5.66805 5.5673C5.66805 5.94607 5.98151 6.25953 6.36027 6.25953C6.73904 6.25953 7.0525 5.94607 7.0525 5.5673C7.0525 5.18854 6.73904 4.87508 6.36027 4.87508Z" fill="white"/>
<path d="M26.3837 27.0312C25.5217 27.0312 24.8164 26.3259 24.8164 25.4639C24.8164 24.6019 25.5217 23.8966 26.3837 23.8966C27.2457 23.8966 27.951 24.6019 27.951 25.4639C27.951 26.3259 27.2457 27.0312 26.3837 27.0312ZM26.3837 24.7717C26.0049 24.7717 25.6915 25.0851 25.6915 25.4639C25.6915 25.8427 26.0049 26.1561 26.3837 26.1561C26.7625 26.1561 27.0759 25.8427 27.0759 25.4639C27.0759 25.0851 26.7625 24.7717 26.3837 24.7717Z" fill="white"/>
</svg>
