<svg width="16" height="16" viewBox="0 0 16 16" fill="none" xmlns="http://www.w3.org/2000/svg">
<rect width="16" height="16" rx="8" fill="#F8954F"/>
<path d="M3.0052 7.34814C3.0052 7.4748 2.89965 7.55924 2.7941 7.55924C2.68856 7.55924 2.58301 7.4748 2.58301 7.34814C2.58301 7.32703 2.58301 7.28481 2.58301 7.2637C2.60412 7.17927 2.68856 7.11594 2.7941 7.11594C2.89965 7.13705 3.0052 7.22148 3.0052 7.34814Z" fill="#13142D"/>
<path d="M13.3914 8.00255C13.3914 11.0001 10.9427 13.4277 7.94512 13.4277H7.35405C6.76298 13.4277 6.29856 12.9633 6.29856 12.3723V7.64368C6.29856 7.05261 6.76298 6.58819 7.35405 6.58819C7.94512 6.58819 8.40954 7.05261 8.40954 7.64368V11.2746C10.0139 11.0423 11.2593 9.67021 11.2593 7.98144C11.2593 6.14489 9.78167 4.66721 7.94512 4.66721C7.35405 4.66721 6.8052 4.81498 6.34078 5.08941C5.77082 5.40605 5.30641 5.89157 5.01087 6.48265C4.98976 6.52487 4.8631 6.79929 4.77866 7.07372C4.73645 7.17927 4.65201 7.2426 4.54646 7.22149C4.4198 7.20038 4.33536 7.07372 4.37758 6.96817C4.46202 6.6093 4.58868 6.3771 4.60979 6.35599C4.65201 6.25044 4.60979 6.14489 4.50424 6.10267H4.48313C4.37758 6.06045 4.25092 6.10267 4.2087 6.18711C4.18759 6.25044 4.14537 6.29266 4.12426 6.35599C3.9765 6.71485 3.87095 7.09483 3.80762 7.4748C3.80762 7.49591 3.78651 7.6859 3.78651 7.70701C3.78651 7.81256 3.68096 7.91811 3.57541 7.897C3.44875 7.897 3.36431 7.79145 3.38542 7.6859C3.40653 7.32703 3.49097 6.94706 3.57541 6.63041C3.57541 6.6093 3.57541 6.6093 3.59652 6.58819C3.59652 6.50376 3.53319 6.41932 3.44875 6.3771C3.3432 6.33488 3.23766 6.39821 3.19544 6.50376C3.19544 6.52487 3.13211 6.69374 3.111 6.77818C3.08989 6.88373 2.98434 6.94706 2.85768 6.92595C2.75213 6.90484 2.66769 6.79929 2.6888 6.69374C2.75213 6.46154 2.85768 6.14489 2.92101 5.9549C3.3432 4.89942 4.10315 4.01281 5.05309 3.40063C5.89748 2.87289 6.88964 2.55624 7.96623 2.55624C10.9638 2.55624 13.3914 5.00497 13.3914 8.00255Z" fill="#13142D"/>
</svg>
